<?xml version="1.0" encoding="utf-8"?>
<!-- Generator: Adobe Illustrator 18.1.1, SVG Export Plug-In . SVG Version: 6.00 Build 0)  -->
<!DOCTYPE svg PUBLIC "-//W3C//DTD SVG 1.1//EN" "http://www.w3.org/Graphics/SVG/1.1/DTD/svg11.dtd">
<svg version="1.1" id="Capa_1_1_" xmlns="http://www.w3.org/2000/svg" xmlns:xlink="http://www.w3.org/1999/xlink" x="0px" y="0px"
	 viewBox="0 0 40 40" enable-background="new 0 0 40 40" xml:space="preserve">
<path fill="#1384C7" d="M19.6,36.4c9.4,0,17-7.6,17-17c0-9.4-7.6-17-17-17c-9.4,0-17,7.6-17,17C2.5,28.8,10.2,36.4,19.6,36.4"/>
<path fill="#FFFFFF" d="M14.8,26.5h-3.3V15.9h3.3V26.5z M13.1,14.6L13.1,14.6c-1.2,0-2-0.8-2-1.8c0-1,0.8-1.8,2-1.8
	c1.2,0,2,0.8,2,1.8C15.1,13.7,14.3,14.6,13.1,14.6z M28.1,26.5h-3.8V21c0-1.4-0.6-2.4-1.9-2.4c-1,0-1.5,0.7-1.8,1.3
	c-0.1,0.2-0.1,0.5-0.1,0.9v5.7h-3.7c0,0,0-9.7,0-10.6h3.7v1.7c0.2-0.7,1.4-1.8,3.3-1.8c2.4,0,4.2,1.5,4.2,4.8V26.5z"/>
</svg>
