<?xml version="1.0" encoding="utf-8"?>
<!-- Generator: Adobe Illustrator 18.1.1, SVG Export Plug-In . SVG Version: 6.00 Build 0)  -->
<!DOCTYPE svg PUBLIC "-//W3C//DTD SVG 1.1//EN" "http://www.w3.org/Graphics/SVG/1.1/DTD/svg11.dtd">
<svg version="1.1" id="Layer_1" xmlns="http://www.w3.org/2000/svg" xmlns:xlink="http://www.w3.org/1999/xlink" x="0px" y="0px"
	 viewBox="0 0 40 40" style="enable-background:new 0 0 40 40;" xml:space="preserve">
<style type="text/css">
	.st0{fill:#E9644A;}
	.st1{fill:#FFFFFF;}
</style>
<g id="Layer_1_1_">
</g>
<g id="Capa_1">
	<path id="yCircle" class="st0" d="M19.7,36.4c9.4,0,17-7.6,17-17s-7.6-17-17-17s-17,7.6-17,17C2.7,28.8,10.3,36.4,19.7,36.4"/>
	<path class="st1" d="M23.2,13.6v3.2C23.1,16.9,23,17,22.9,17c-0.1,0.1-0.2,0.1-0.2,0.1c-0.1,0-0.1,0-0.2-0.1c0-0.1-0.1-0.1-0.1-0.2
		v-3.3h-0.9v3.6c0,0.3,0.1,0.4,0.2,0.6c0.1,0.1,0.3,0.2,0.5,0.2s0.3,0,0.5-0.1s0.3-0.2,0.5-0.4v0.5H24v-4.3
		C24,13.6,23.2,13.6,23.2,13.6z M20.5,13.8c-0.2-0.2-0.5-0.3-0.9-0.3s-0.7,0.1-1,0.3c-0.2,0.2-0.4,0.5-0.4,0.8v2.2
		c0,0.4,0.1,0.7,0.3,0.9c0.2,0.2,0.5,0.3,0.9,0.3s0.7-0.1,0.9-0.3c0.2-0.2,0.3-0.5,0.3-0.9v-2.2C20.8,14.3,20.7,14,20.5,13.8z
		 M19.9,16.9c0,0.1,0,0.2-0.1,0.3c-0.1,0.1-0.2,0.1-0.3,0.1c-0.1,0-0.2,0-0.3-0.1c-0.1-0.1-0.1-0.2-0.1-0.3v-2.3
		c0-0.1,0-0.2,0.1-0.2c0.1-0.1,0.2-0.1,0.3-0.1c0.1,0,0.2,0,0.3,0.1c0.1,0.1,0.1,0.1,0.1,0.2V16.9z M17.2,12.1l-0.6,2.3h-0.1
		l-0.6-2.3h-1l1.2,3.5v2.3h1v-2.4l1.1-3.4H17.2z M24,22.3c0.1,0.1,0.1,0.2,0.1,0.3V23h-0.7v-0.4c0-0.2,0-0.3,0.1-0.3
		c0.1-0.1,0.1-0.1,0.3-0.1C23.9,22.2,24,22.2,24,22.3z M21.4,22.3c-0.1-0.1-0.1-0.1-0.2-0.1s-0.1,0-0.2,0s-0.1,0.1-0.2,0.1v2.4
		c0.1,0.1,0.1,0.1,0.2,0.1s0.1,0,0.2,0s0.2,0,0.2-0.1s0.1-0.1,0.1-0.3v-2C21.4,22.4,21.4,22.3,21.4,22.3z M21.4,22.3
		c-0.1-0.1-0.1-0.1-0.2-0.1s-0.1,0-0.2,0s-0.1,0.1-0.2,0.1v2.4c0.1,0.1,0.1,0.1,0.2,0.1s0.1,0,0.2,0s0.2,0,0.2-0.1s0.1-0.1,0.1-0.3
		v-2C21.4,22.4,21.4,22.3,21.4,22.3z M25.8,19.3H13.6c-1.3,0-2.4,1.1-2.4,2.4v2.5c0,1.3,1.1,2.4,2.4,2.4h12.2c1.3,0,2.4-1.1,2.4-2.4
		v-2.5C28.2,20.4,27.1,19.3,25.8,19.3z M16.9,21H16v4.5h-0.9V21h-0.9v-0.8h2.7C16.9,20.2,16.9,21,16.9,21z M19.4,25.5h-0.8V25
		c-0.1,0.2-0.3,0.3-0.4,0.4c-0.2,0.1-0.3,0.1-0.4,0.1c-0.2,0-0.3-0.1-0.4-0.2s-0.1-0.3-0.1-0.5v-3.2H18v3c0,0.1,0,0.2,0.1,0.2
		c0,0,0.1,0.1,0.2,0.1s0.1,0,0.2-0.1s0.2-0.1,0.2-0.2v-2.9h0.8v3.8H19.4z M22.2,24.7c0,0.3-0.1,0.5-0.2,0.6s-0.3,0.2-0.5,0.2
		s-0.3,0-0.4-0.1s-0.2-0.1-0.3-0.3v0.3H20v-5.3h0.8v1.7c0.1-0.1,0.2-0.2,0.3-0.3c0.1-0.1,0.2-0.1,0.4-0.1c0.2,0,0.4,0.1,0.6,0.2
		c0.1,0.2,0.2,0.4,0.2,0.7L22.2,24.7L22.2,24.7z M24.9,23.6h-1.5v0.7c0,0.2,0,0.3,0.1,0.4s0.1,0.1,0.3,0.1c0.1,0,0.2,0,0.3-0.1
		c0.1-0.1,0.1-0.2,0.1-0.4v-0.2H25v0.2c0,0.4-0.1,0.7-0.3,0.9c-0.2,0.2-0.5,0.3-0.9,0.3s-0.6-0.1-0.8-0.3c-0.2-0.2-0.3-0.5-0.3-0.9
		v-1.7c0-0.3,0.1-0.6,0.3-0.8c0.2-0.2,0.5-0.3,0.8-0.3c0.4,0,0.6,0.1,0.8,0.3c0.2,0.2,0.3,0.5,0.3,0.8
		C24.9,22.6,24.9,23.6,24.9,23.6z M21.1,22.2c-0.1,0-0.1,0-0.2,0s-0.1,0.1-0.2,0.1v2.4c0.1,0.1,0.1,0.1,0.2,0.1s0.1,0,0.2,0
		s0.2,0,0.2-0.1s0.1-0.1,0.1-0.3v-2c0-0.1,0-0.2-0.1-0.3C21.3,22.2,21.2,22.2,21.1,22.2z M21.4,22.3c-0.1-0.1-0.1-0.1-0.2-0.1
		s-0.1,0-0.2,0s-0.1,0.1-0.2,0.1v2.4c0.1,0.1,0.1,0.1,0.2,0.1s0.1,0,0.2,0s0.2,0,0.2-0.1s0.1-0.1,0.1-0.3v-2
		C21.4,22.4,21.4,22.3,21.4,22.3z M21.4,22.3c-0.1-0.1-0.1-0.1-0.2-0.1s-0.1,0-0.2,0s-0.1,0.1-0.2,0.1v2.4c0.1,0.1,0.1,0.1,0.2,0.1
		s0.1,0,0.2,0s0.2,0,0.2-0.1s0.1-0.1,0.1-0.3v-2C21.4,22.4,21.4,22.3,21.4,22.3z"/>
</g>
</svg>
