<?xml version="1.0" encoding="utf-8"?>
<!-- Generator: Adobe Illustrator 18.1.1, SVG Export Plug-In . SVG Version: 6.00 Build 0)  -->
<!DOCTYPE svg PUBLIC "-//W3C//DTD SVG 1.1//EN" "http://www.w3.org/Graphics/SVG/1.1/DTD/svg11.dtd">
<svg version="1.1" id="Layer_1" xmlns="http://www.w3.org/2000/svg" xmlns:xlink="http://www.w3.org/1999/xlink" x="0px" y="0px"
	 viewBox="0 0 960 70.5" enable-background="new 0 0 960 70.5" xml:space="preserve">
<g>
	<g>
		<g>
			<g>
				<path fill="#9E373A" d="M891.6,37.4c0.9,0,0.8,0,0.9,0C890.6,37.3,891.7,37.4,891.6,37.4z"/>
				<polygon fill="#9E373A" points="871.9,36.9 872.3,36.9 869.4,36.9 				"/>
				<path fill="#9E373A" d="M853.5,36.5c1.7,0.4,6.7,0.1,10,0.3l0.5,0.1l1.5-0.2C861.5,36.6,856.3,36.7,853.5,36.5z"/>
				<path fill="#9E373A" d="M843.7,35.2c0.6,0.2-2.1,0.1,2.3,0.2c-0.2,0-0.3,0-0.4-0.1C845.2,35.3,844.6,35.3,843.7,35.2z"/>
				<path fill="#9E373A" d="M845.6,35.3C847.5,35.4,844.3,35.1,845.6,35.3L845.6,35.3z"/>
				<path fill="#9E373A" d="M836.6,35.1l2.6-0.1c-0.5-0.1-2.8-0.3-2-0.3C834.6,34.7,835.1,34.8,836.6,35.1z"/>
				<path fill="#9E373A" d="M834.2,35.4l1.3,0C835.3,35.3,834.9,35.3,834.2,35.4z"/>
				<path fill="#9E373A" d="M838.3,35.3l-2.8,0.1c0.4,0.1,0.4,0.3,1.3,0C836.6,35.5,837.1,35.4,838.3,35.3z"/>
				<path fill="#9E373A" d="M839.9,35.4c1.4,0.2,3.3,0.3,0.7,0.4C845.5,35.9,844.8,35.5,839.9,35.4z"/>
				<path fill="#9E373A" d="M852.6,37l1.9,0.1l1.7-0.1C855.3,37,852.4,36.8,852.6,37z"/>
				<path fill="#9E373A" d="M820.7,34.2c-0.2,0.1,0.9,0.4,1,0.6l1.9-0.1C822.6,34.6,820.8,34.4,820.7,34.2z"/>
				<path fill="#9E373A" d="M821.7,34.8l-2.8,0.2C821.4,35.1,821.9,35,821.7,34.8z"/>
				<polygon fill="#9E373A" points="833.7,36.1 838.4,35.8 832.8,36.1 				"/>
				<polygon fill="#9E373A" points="809.9,33.8 811.5,33.4 808.6,33.9 				"/>
				<path fill="#9E373A" d="M802.7,33.6c1.2-0.3-1.6-0.7-0.4-0.8c-1.9,0-3.6,0.2-5.1,0.5C798.9,33.1,800.5,33.2,802.7,33.6z"/>
				<path fill="#9E373A" d="M794.8,33.6c0.8-0.1,1.6-0.2,2.5-0.3C796.4,33.3,795.6,33.4,794.8,33.6z"/>
				<path fill="#9E373A" d="M814.1,34.8c-0.2-0.1-0.6-0.4-2.2-0.5l1.1,0.5C813.3,34.8,813.7,34.8,814.1,34.8z"/>
				<path fill="#9E373A" d="M813,34.8L813,34.8c-1.2-0.1-2.1-0.1-2.4-0.1C810.9,34.7,811.6,34.7,813,34.8z"/>
				<path fill="#9E373A" d="M814.4,34.8c-0.1,0-0.2,0-0.3,0C814.2,34.8,814.3,34.9,814.4,34.8z"/>
				<path fill="#9E373A" d="M826.3,35.6c-1.7,0.2-5.1,0.4-1.8,0.8C825.7,36.1,823.8,35.9,826.3,35.6z"/>
				<path fill="#9E373A" d="M815.7,35.4l3,0.2c-0.1-0.1-0.6-0.3,0.2-0.4L815.7,35.4z"/>
				<polygon fill="#9E373A" points="814.3,35.5 815.7,35.4 814.6,35.3 				"/>
				<path fill="#9E373A" d="M799.9,34.2c-1.3,0.2-2.7,0.2-4.3,0.2c1.7,0.1,3.5,0.2,5.2,0.3C801,34.5,801.7,34.3,799.9,34.2z"/>
				<path fill="#9E373A" d="M806.3,34.5c-0.1,0-0.2,0-0.3,0C806.2,34.6,806.3,34.6,806.3,34.5z"/>
				<path fill="#9E373A" d="M779.8,34c0.1,0,0.2,0.1,0.3,0.1c0,0,0-0.1,0.1-0.1L779.8,34z"/>
				<path fill="#9E373A" d="M801,34.8c1.3,0.1,2.1,0,2.8-0.1c-1,0-2,0-3.1,0C800.6,34.8,800.6,34.8,801,34.8z"/>
				<path fill="#9E373A" d="M790.4,33.7c0.7,0.1,1.4,0.3,2.2,0.4C791.9,33.9,790.6,33.6,790.4,33.7z"/>
				<path fill="#9E373A" d="M805.5,34.4c0.1,0,0.1,0,0.2,0C805.3,34.3,805.4,34.3,805.5,34.4z"/>
				<path fill="#9E373A" d="M805.5,34.4c-0.7,0.1-1.2,0.2-1.7,0.3c0.8,0,1.5-0.1,2.1-0.1C805.8,34.5,805.7,34.5,805.5,34.4z"/>
				<path fill="#9E373A" d="M775,37.9c0.2-0.6,3.6-1.1,6.5-0.5c2.9-0.4,1-2.2-1.5-3.3c-0.1,0.2-0.1,0.5-3.1,0.8
					c1,0.3,6.6,0.8,4.1,1.3c-3.9,0.3-3.2-0.2-5.1-0.6c1.6,0.7-5,1-4.1,2.1l3.4-0.4C775.3,37.5,774.1,37.8,775,37.9z"/>
				<path fill="#9E373A" d="M785.7,34.3l1.2,0c-1.4-0.1-2.4-0.4-4.2-0.8c-2,0.2-2.5,0.4-2.6,0.6l6,0.2L785.7,34.3z"/>
				<path fill="#9E373A" d="M792.4,34.4c-1,0.5-3.9,0.7-2.1,1.4c3.6,0,2.5-0.4,4.6-0.6C789.2,35.2,796.6,34.9,792.4,34.4
					c1.2,0,2.2,0,3.2,0c-1-0.1-2-0.2-3-0.3c0.1,0,0.1,0,0.1,0l0,0l0,0c0.2,0.1,0.3,0.1,0.1,0.1c0,0-0.1,0-0.1,0
					C792.6,34.3,792.5,34.3,792.4,34.4c-1.7-0.2-0.3-0.2,0.3-0.2c0,0,0.1-0.1,0.1-0.1l0,0l-5.8,0.2
					C788.2,34.4,789.7,34.4,792.4,34.4z"/>
				<path fill="#9E373A" d="M821.5,37.3c-0.2,0-0.2-0.1-0.2-0.1C820.9,37.2,820.8,37.3,821.5,37.3z"/>
				<path fill="#9E373A" d="M819.1,37c0.4-0.1,0.8-0.2,2.1-0.2c1.2,0.1,0,0.2,0.1,0.3c0.8-0.1,2.9-0.3,0.3-0.5l-0.4,0.1
					c-2.3-0.2-5.3-0.8-4.9-0.8C816.9,36.3,817.5,36.6,819.1,37z"/>
				<path fill="#9E373A" d="M805.6,36l-4.8,0.2l2.5,0.5l-0.1-0.3C805.8,36.5,805.2,36.2,805.6,36z"/>
				<polygon fill="#9E373A" points="779.3,33.7 779.9,33.1 777.1,33.9 				"/>
				<polygon fill="#9E373A" points="773,33.6 773.2,33.1 771.6,33.4 				"/>
				<path fill="#9E373A" d="M419.6,43.6l-1.4,0.3C418.9,43.8,419.3,43.7,419.6,43.6z"/>
				<path fill="#9E373A" d="M429.9,43.7l0.3-0.5C429.6,43.4,429.4,43.7,429.9,43.7z"/>
				<path fill="#9E373A" d="M619.2,31.4c-2.1-0.9-4.4-2.3-4.1-1.3l0.6,1.1C617.2,31,618.3,31.1,619.2,31.4z"/>
				<path fill="#9E373A" d="M513.9,37.7c0.2,0.1,0.4,0.2,0.6,0.3c0.5-0.4,1-0.8,1.4-1.1C515.3,37.1,514.6,37.4,513.9,37.7z"/>
				<path fill="#9E373A" d="M512.4,42.4l-2.7-0.7C510.3,42,511.2,42.2,512.4,42.4z"/>
				<path fill="#9E373A" d="M363.6,44.3l-1.7,1.1C364.6,45.4,363.4,44.9,363.6,44.3z"/>
				<path fill="#9E373A" d="M708.9,32.7c-1.8-0.4-3.2-0.5-4.4-0.6C706.6,32.7,708.3,33.4,708.9,32.7z"/>
				<path fill="#9E373A" d="M423.6,31.6c-0.9,0.2-1.2,0.4-1.2,0.7C423.3,32.1,423.8,31.9,423.6,31.6z"/>
				<path fill="#9E373A" d="M699.3,32c0.3,0.1,0.6,0.1,0.9,0.2c1.3-0.1,2.6-0.2,4.2-0.1C702.8,31.7,701,31.4,699.3,32z"/>
				<path fill="#9E373A" d="M160.6,40c-0.1,0-0.3,0-0.5-0.1C160.1,40,160.3,40,160.6,40z"/>
				<path fill="#9E373A" d="M101.4,36.9c0.6,0,1.5,0,2.4-0.1C103.4,36.8,102.7,36.8,101.4,36.9z"/>
				<path fill="#9E373A" d="M747.8,32.8C749.1,32.8,748,32.7,747.8,32.8L747.8,32.8z"/>
				<path fill="#9E373A" d="M754.3,35.7c-0.3,0.1-0.5,0.2-0.5,0.3C753.8,35.9,754,35.8,754.3,35.7z"/>
				<path fill="#9E373A" d="M686.1,37.5c0,0-0.1,0-0.1,0C686.3,37.7,686.3,37.7,686.1,37.5z"/>
				<path fill="#9E373A" d="M749.8,33.2c-0.5-0.1-1.1-0.2-1.7-0.3C748.4,33,748.9,33.1,749.8,33.2z"/>
				<path fill="#9E373A" d="M749.5,32.8c0.5,0,0.8,0.1,1.2,0.1C750.9,32.8,750.7,32.7,749.5,32.8z"/>
				<path fill="#9E373A" d="M746,32.8c0.8,0,1.5,0.1,2.2,0.1c-0.3-0.1-0.4-0.1-0.3-0.1C747.4,32.8,746.9,32.8,746,32.8z"/>
				<path fill="#9E373A" d="M269.4,40c-0.1,0-0.2,0-0.3-0.1C267.7,40.3,268.3,40.2,269.4,40z"/>
				<path fill="#9E373A" d="M584.6,42.5c0.1,0,0.1,0,0.2-0.1C584.7,42.5,584.6,42.4,584.6,42.5L584.6,42.5z"/>
				<path fill="#9E373A" d="M579.9,43.4c2-1.4,3.2-1.2,4.7-0.9l-1.6-3.2L579.9,43.4z"/>
				<path fill="#9E373A" d="M395.1,43.8l3.4,1c-4,1.6-7,1-3.8,2.4c0.5-3.4,13-0.2,13.5-3.7l2.2,0.7c-0.6,0-0.7,0.2-1.4,0.1
					c4.3,1.7,3.2-2.5,8.7-2c1.9,0.3,3.3,0.8,2,1.2l4.3-0.9c1.3,0.1,0.9,0.7-0.3,0.6l6.6-0.3l0,0.1c0.9-0.6,3.1-1.4,4.1-1.8
					c1.7,0.5-0.8,0.4-0.4,0.8l3.6-0.9c1.5,0.9-1.5,1.8-4,1.7c3.4,3.6,3-0.9,10.3,1.2l-3.4,0.4c2.2,2,4.9,1.3,8.8,2.6
					c-0.9-0.7-7.8-3.2-3.8-4.1c1.1,0.3,2.6,0.4,4.7-0.3c0,1.3,2.1,1,4.7,0.9l-0.2,1.7c2.8-0.5,2.6-1.3,4.2-2.1
					c3.1,0.2,3.8,1.5,4.5,2.6c5,0.3-3.5-2.1,2.5-2.4c4.2,0.7,7.1,0,12.1-1.1c2.9,0.6-0.5,1,0.5,1.5l2.6-1.4c0.6,0,0.4,0.4,0.3,0.7
					c2.2-0.5,0.2-1.7,3.6-2.2c0.9-1.9,7,2.7,11.3,0.6c1,0.5-0.5,1-0.2,1.7c5.8-1.4,5-1,9.8-2.9l4.1,1.1c-3-1.3,0.8-2.8,4.2-4
					c-1.1-0.6-2-1.2-2.6-1.4l5.3-0.9c0.6,0.3,0.1,0.9-0.8,1.6c0.4-0.1,0.7-0.3,1-0.4c1.9,0.6,0.9,1.6-0.4,2.6
					c-0.7-0.3-1.3-0.7-1.9-1c-1.3,1-2.6,2.2-2.3,3.2c0.3-0.2,1-0.4,1.7-0.5c-0.3,0.3-0.6,0.5-0.4,0.7c0.2,0.2,0.7-0.2,1.6-0.6
					l1.2,1.9l0.3-0.8l7,1.2c5-1.9,9.3-4.7,17.3-5.5c-2,1.4-0.4,2.2-0.5,3.9c-2.2-1.7-6.1,0.7-10.3,0.4c2.1,0.2,1.7,1,1.1,1.2
					l7.3-1.6c-0.2,1.3,1.6,1,3.5,1.5c-1.4-2.6,5.5-1.8,8.4-2.6c0.2,0.9-0.5,1.8-4.2,1.6c4,2,5.2-3.1,9.1-1.4c-0.9,0-1.4-0.1-1.7,0.3
					c2.1-0.8,7.1-0.2,6,0.6l-0.9,0c5.9,0.3,18-0.1,18.8-2.2c0.1,0.3-0.8,2.6-1.1,3.1l10.5-7.3c-0.9,1.9,2.6,6.2-2.3,7.3
					c1.4,0.3,3.1,0.6,6.1-0.1c-1-0.3-2.4-2.7-1.1-2.8c3.6,2,2.5,1.1,6.9,2.8c-1.4-0.4,0.2-3.3,2.4-3.2c-0.4,0.4,0.2,2.8-0.6,3.1
					l5.6-2.8c-1.4,0.5-0.2,2.4,1,3.1c-0.6-0.5,4.9,0,6.4-0.3l-2.4-0.6c6.4,0.4,6.3-3.9,12.6-3.8c-0.8,0.6-1.9,3.5,1.3,3.8
					c1.5-1.4,6.5-6.7,12.1-7.7l1.1,0.8l4.3-0.9c-2.7,2-10.2,6.3-14.3,8.1c2.4,0.6,0.7,0.9,4.2,0.8c1.3,0.7-1.9,1.1-3,1.2l8.3,0.4
					c-0.4-1.6,6.4-1.7,6-3l-9,1.7c-0.4-1.6,5.2-4.6,11.1-4.3c1.5,0.6-1.1,2.8-1,3.3c0.8-0.5,5.6-1.1,6.1-0.7l-2.5,0.9
					c3.3,0.5,5.4-2.1,9.3-0.7c1.4,0.1,4.1,1.9,4.3,1c-2.2-1.7-2.7-7.1-1.2-8.4c0.5,0.1,7.1,1.7,8.7,2.5c2.2,1.3-3.4,3.2-1.5,4.3
					c0.1-0.4,1.3-0.9,1.8-1.1c1.4,0.3-0.6,1.3,2.5,1.1c0.5-1.5,6.3,0.1,1.5-1.3c3-0.4,3.2,0.3,6.8,0.2c-1.1-1,3.2-3.2,6.2-3.6
					c-0.2,0.4,0.5,0.8,0.8,1.1c6.2,0.1,9.6,0.8,15.4,0.8c0.5,0.3,3.3,0.7,2.1,1.3c0.8-0.2,1.6-0.7,3.4-0.8c3.5,1.2-4,0.2-1.4,1.6
					c0.2-0.8,4.6-1.1,7.2-1.6c-0.8-1.2-5.9-0.2-8.5,0.3c0-1.7,4.4-3.5,10.5-4.2c4.8-0.4,2.1,1.1,2.9,0.8c9.1,0.3,7.7-2.7,15.2-1.5
					c3,1,0.1,1.9,0.8,2.6c-3.9,0.4-6-0.6-8.7-0.6l3.3,0.5c-1.3,0.3-3.9,0.6-5.3,0.3c2.5,0.9,15.3,0.2,22.3,0.9
					c1.2-0.3,3.4-0.6,2.4-1l-2.2,0.1c-2-0.8,4.2-1,1.4-1.4c3-0.5,6.3-1.2,10.5-0.8l0.8,1c-0.1-0.3-2.7-0.6-3.9-0.3
					c1.7-0.4,6.4,1.4,8.3,0.1l-2.9-0.7c3-0.5,6.7-1.4,10.4-1c-1.7-1-0.9,0.1-3.5-1.1c2.3,1.4-9.5-0.3-5.8,1.3
					c-2.7-1.4-4.7-0.6-8.2-1.9c0.1,0.3,1.3,0.7-1.9,0.4c-0.1,0.1-0.5,0.2-0.7,0.3c-0.1,0-0.1,0-0.2,0c0.1,0,0.1,0,0.2,0
					c-0.1,0-0.1,0.1,0.1,0c0.7,0.2,1.3,0.4,1.6,0.5c-1.5,0.7-6.5,0.7-8.2,1.1c-1.8-0.2,0.8-0.4-0.2-0.8l-2.5,0.6
					c-0.2-0.8-4.9-1.4-0.6-1.8l-3.9-0.1c-2.3-0.5-5.5-0.8-7.4-0.4c-1.8-0.2-4.7,0.8-3.1,0.2l-6.1,0.4l-0.1-0.2
					c-6.1-0.2-12.5,1.3-19.4-0.5c-2,0.2-4.1,0.5-7.6,0.1l-0.7-0.8c-2.6,0.2-7.9-1-9-0.1c-2.8-2.3-12.7-0.7-17.3-1.2l-0.2,1.1
					c-3.2-0.1-6.2,0.2-10.1,0.6l0.2,1c-3.4,0.8-8.7-0.8-14.1-0.8c0.4-0.4,1.7-0.3,2.7,0c-6.4-2.5-13.5,1.6-19.3-0.2
					c-1.4,0.4-2.5,0.2-3.5,0c0.1,0,0.3,0,0.4-0.1c-0.1,0-0.4,0-0.6,0c-0.6-0.2-1.3-0.4-2-0.6c0.6,0.3,1.2,0.5,1.7,0.6
					c-1.1,0-2.8,0.1-4.5,0.4l-0.7-1.2c-0.1,0-0.2,0-0.4,0c-1.6-0.4-1.3,0.5-0.4,1.4c-0.8,0.2-1.6,0.4-2.2,0.7
					c-1.3-1.9-4.4,0.6-6.2-1.4c-1.1,1-8.3,0.7-9.2,2.8c-0.1-0.3-0.5-0.4,0.4-0.4c-1.9-0.2-3.7-0.5-5.4,0.1l-0.8-1.5l-4,2.1
					c-2.5-1-3.5-1.5-1-2.7c-5.9,1.8-4.8,0.7-9.8,2.5l0.2-1c-1.8,0-4.6,1.4-5.7,0.5c-4-2-19.8-0.3-30.1-2.2c2,3.1-4.8-1.4-5.2,1
					c-0.6-0.7-2-1.1-0.4-1.8c-5.2,0.7-7.9-1.2-11.5,0.8c-0.6-0.7,1.1-1.1,0.6-1.5c-0.4,0.2-1.7,0.6-2.2,0.2
					c-0.5-0.4,0.8-0.6,1.6-0.9c-5.4,0.1-5.9,2.4-6.3,4.5c-2.7-1-4.1-0.9-6,0.5c-0.9-0.7-2.5-1.4,0.8-1.7c-1.9-0.1-11.4-1-11.6,0.7
					c-0.6-0.4-2.6-0.1-3.1,0.1c-4.2-0.1-4.6-0.3-8.7-0.1l1.1,0.3c-1.6,2-3.4,0.5-6.8,0.7l0.1-0.2c-7.6-1.5-3.3,0.7-10.8-1l0.4,1.3
					c-0.7,2.7-6.7-1.6-11-0.6l1.6,0.7c-2.4,0.9-6.7-3.7-9.1-4c-0.5-0.2,0.8-0.4,1.6-0.6c-6.3-1.6-0.8,1.7-5.5,2.1
					c-0.9-0.9,1.1-2.3-2-2.4c-1.6-0.7-9.1,2.9-13.4,1.2c0.9,0.7,1.9,1.4-0.3,1.9c-3.3,0.2-9-2.5-12-0.4c-0.4-0.2-0.6-0.4-0.6-0.5
					c-2.5,0.6-8.3,0.9-9.8,2.1c-2.3-4.2-15.8,2.1-15.7-1.8l-7.8,0.2l0.2-0.4c-5-0.2-6.8,0.7-8.5,1.6c-1.2-0.3-0.3-0.6-0.2-0.8
					c-7.3-0.7-8-0.5-14.2,1.3l-0.6-1.2c-1.7,0.7-10.6-1.8-17.7-0.4c0.1-0.1,0.2-0.4,0.8-0.5c-4,0.7-8.9-0.1-13-0.5
					c-4.2-0.4-7.7-0.4-9.2,1.6l-5.3,1.1c6.9,0.3-1,1.8,1.8,2.5c-2.7,0.2-7-1.2-3.7-1.4l0.5,0.2c1.2-2.1-8.5-0.7-8.4-2.1
					C298,34,284.8,33,272.1,33.1l1.5,1.4l-4.4,0c-1.2-0.3-1.6-1.1,1.6-1.1c-1.7-0.8-5.3,0.8-5.4,1.1c-6.2-0.5,2.4-1.7,0.5-1.7
					l-2.6,0.1l0.6,0.2c-2.1,0.6-2.3,1.2-6.1,1.2c-2.4-0.3-1.2-0.8-2.2-0.9c0-0.1-0.3-0.1-1.4,0l-5.6,0l2.2,1c-2.5,0.6-5.2,0-2.7,1.2
					c-3.8-1.8-20.8-0.4-23.1-0.9c-3.5,0.7-6.9,0.8-11.1,0.7c1.1,0.2,1.7,1.2-2,1.1c1.3-2.1-6.7-0.8-9.6-2.2
					c2.6,0.9-10.4,0.4-6.2,1.6c-3-0.1-0.2-0.7-2.5-1.1c-7.2,0.8-16-0.1-24.9,0.3c-0.1,0.2,1.4,0.5-0.6,0.8c0,0-1.2-0.2-2.4-0.4
					c-1.2-0.2-2.4-0.4-2.4-0.4c-1.8,0.1-1.6,1.1-4.9,0.5c0.5,0.1,1.1,0.4,0,0.4c-8.8-0.3-17.7,0.1-26.7,0.3c-9,0.3-18,0.3-26.9,0.3
					c2.4,0,0.8,0.1-1,0.2c1.2,0,0,0.1,0.2,0.2c0,0-1.9,0-3.7,0c-1.9,0-3.7,0-3.7,0c-1.4,0.2-8,0.2-8.8,0.3l2.4-0.1
					c-1.6,0.1-0.5,0.1,1,0.1c1.4,0,3.2,0.1,3,0.2c1.8,0,4.1,0,6.7,0.2c2.6,0.1,5.5,0.3,8.4,0.1c1.3,0.1-1.1,0.1-0.4,0.2
					c1.5-0.1,3.2-0.1,6.5,0l-0.4,0c9.2,0.2,13.1,0.4,23.5,0.9l-0.8-0.4c2.2,0.1,2.7,0.2,3.7,0.4c2.5-0.5-6.2-0.2-3.9-0.7
					c1.5,0.4,5.4,0.5,9.2,0.6c3.8,0.1,7.5,0.2,8.5,0.8c3.4,0.1-1-0.6,2.4-0.5l0.9,0.3l0.9-0.4c2.2,0.1,3.4,0.5,3.5,0.8
					c-0.5,0-1.5,0-2.1,0c2.9,0.5,8.2,0.1,9.2,0.2l-3.3-0.3c9.3-0.1,20.7,0.7,29.7,0l-0.7-0.3c6.9-0.5,5.5,0.4,13.1,0.3l-0.3,0.1
					c1.5-0.3,3.5-0.5,5.6-0.4c-1.9,0.4,3.6,0.9,1.1,1.3c7.5-0.6,3.7-0.5,8.6-1.8l1.1,0.6c1.7-0.5,1.8-0.8,5.6-1
					c-3.1,0.5,2.4,1-1.1,1.7c7.9,1.5,11.8-1.3,15.4,0.9c3.6-1.8-6.8-1.1-4.8-1.5c-1.7-0.6,3-1.3,5.5-1.2c2.5,0,4.3,2.4,10.7,2.5
					c-0.6,0-0.7,0.1-1.3,0.1c2.4,0.5,4.7-0.6,7.6,0.2c1.6-1.2,3.8,0.1,4.3-1.4l-5.8,0.3c3.3-0.4,6.4-2.2,11.9-1.3
					c-0.4,0.3-2,0.7-3.2,0.9c1.6,0.5,3.1-0.3,4.7,0.2c-0.5,1.6-7.1,0.3-10.6,1.4c1.7,0.7,6.7-1,4.9,0.6c2.6-2.1,6.3,0.4,10.6-1.3
					l-0.3,1c0.7-0.1,2.1-0.6,3.3-0.5l-2.3,1.2c3.5-1,6.7,1.1,10.1,0.5c-7-0.1-1.6-1.2-4.5-2c8.6-1.3,5,2.7,14.6,2.3
					c-1.3,0.1-4.9-0.7-2.9-1.1c1.8,0.2,4.3,0.7,5.4,1.2c6.4-0.1-1-1.1,1.7-1.7c2.2,1.3,3.1-0.5,6-0.9l0,1.1c7.3,0.8,1.9-2.2,8.5-1.3
					l-2.8,1.5l3.4-0.4l-0.7,1.2c3.7-0.9,4.9-0.6,8.5-0.2c-0.8-0.8,0.5-2,3.7-2c2.2,0.7-1.2,1.1,3.3,0.9c-1,0.7-2.2,1.6-4.2,0.5
					c-0.2,0.4-1,0.7-1.2,1c2.4,0.8,6,0.3,7.6,0.3c-0.6,0-1.4-0.1-1.8-0.3l6.6-1.5c1,0.4,0.2,0.8-0.6,1.1c1.3-0.1,2.3-0.6,4.3-0.7
					c-0.5,0.9-0.4,1.9-3.2,2.3l6.3-1c0.4,0.4,3.2,1.2,2.4,1.5c3.5,0.6,8.6-1.7,13.3-1c0.2-0.2,0.7-0.4,1.7-0.5
					c4.4,0.2,8.2,1.5,13.4,0.2l2.9,1.8c4.1-0.4-4-2.2,2.8-2.9c4.8-0.5,1.8,1.5,3.5,2c2.4-0.9,6.5-2.7,10.9-1.2
					C397.6,43.9,396.4,43.6,395.1,43.8z M445.1,43.2c-1,0.3-2.9,1.1-3.6,0.3C442.6,42,443.5,42.7,445.1,43.2z M521.2,40.1
					c-0.7,0.4-1.8,0.2-3.1-0.3C519.1,39.8,520.1,39.8,521.2,40.1z M733.2,33.2c0,0-0.1,0-0.1,0C731,32.8,731.7,33,733.2,33.2z
					 M737.7,33.6c0.5-0.1,0.4-0.2,0.2-0.4c-0.3,0.2-1.3,0.2-2.5,0.1C735.8,33.6,736.4,33.8,737.7,33.6z M255.2,33.8l0.9,0.2
					C254.1,34.3,254.6,34,255.2,33.8z"/>
				<path fill="#9E373A" d="M512.6,41.9c-0.3-0.2-0.4-0.5-0.4-0.7C511.8,41.4,511.8,41.6,512.6,41.9z"/>
				<path fill="#9E373A" d="M363.9,44.1c-0.1,0-0.1,0-0.2,0c-0.1,0.1-0.1,0.1-0.2,0.2L363.9,44.1z"/>
				<path fill="#9E373A" d="M668.1,41.8c-0.9-0.1-1.4-0.3-1.8-0.5C666.3,41.5,666.7,41.7,668.1,41.8z"/>
				<path fill="#9E373A" d="M761.6,32.7l-2.9,0.1c1.4,0,1.9,0.2,2.6,0.3C761.2,33,760.7,32.7,761.6,32.7z"/>
				<path fill="#9E373A" d="M786.5,37.5c0.4-0.1,0.9,0,1.3-0.1l-0.1-0.3C785.9,37.1,784.7,37.3,786.5,37.5z"/>
				<path fill="#9E373A" d="M764.2,35.3c0.2,0.6,2,0.4,4,0.3c-0.1,0-0.2,0-0.4,0C768.5,34.8,766.4,35.1,764.2,35.3z"/>
				<path fill="#9E373A" d="M768.7,35.6c0.6,0,1.3,0,1.9,0C770.8,35.3,769.8,35.6,768.7,35.6z"/>
				<path fill="#9E373A" d="M743.4,33.3c1,0.2,0.6-0.9,1.1-0.6C745.6,31.8,738.2,33.6,743.4,33.3z"/>
				<polygon fill="#9E373A" points="765.8,37.4 765.1,36.6 764,37.3 				"/>
				<path fill="#9E373A" d="M749.9,36.8l3.2,0.2c0-0.1,0.4-0.2,0.9-0.3C752,36.7,749.9,36.5,749.9,36.8z"/>
				<path fill="#9E373A" d="M754,36.7c1,0,2,0,2.6-0.1C756,36.6,754.8,36.6,754,36.7z"/>
				<polygon fill="#9E373A" points="761.4,37.6 760.5,37.5 758.2,37.4 				"/>
				<path fill="#9E373A" d="M715.3,36.5l-3.5,0.3c-0.4,0.3,0.6,0.5,1.9,0.4C714.5,37,715.8,36.8,715.3,36.5z"/>
				<path fill="#9E373A" d="M725.9,39.1c-1-0.2-1-0.4-1.6-0.7l-0.1,1.2L725.9,39.1z"/>
				<path fill="#9E373A" d="M715.7,39.4c-0.4,0.3-5.1,1-0.6,0.9C715.4,40,718.9,39.7,715.7,39.4z"/>
				<polygon fill="#9E373A" points="662.7,38 663.6,38 663.5,35.7 				"/>
				<path fill="#9E373A" d="M616,44c4.2,0.6,1-1.5,4.8-0.8c1-0.6-3.1-0.6-2.1-1.1C616.2,42.7,614.8,42.4,616,44z"/>
				<path fill="#9E373A" d="M618.7,42.1c0.4-0.1,0.8-0.2,1.3-0.4C619.2,41.9,618.9,42,618.7,42.1z"/>
				<polygon fill="#9E373A" points="91.6,37.1 88.9,37.2 90.6,37.1 				"/>
				<path fill="#9E373A" d="M86.5,37.3l-0.6,0l-1.6,0.1C84.8,37.4,86,37.4,86.5,37.3z"/>
				<path fill="#9E373A" d="M452.6,46.6l0.2-0.4c-0.4-0.4-1-0.5-2.3-0.6L452.6,46.6z"/>
				<polygon fill="#9E373A" points="416.2,45.2 416.9,45.2 415.7,43.7 				"/>
				<path fill="#9E373A" d="M385.7,46.9c1.2,0.1,2.7-0.2,4-0.2C387,46.9,385.4,45,385.7,46.9z"/>
			</g>
		</g>
	</g>
</g>
</svg>
