<?xml version="1.0" encoding="utf-8"?>
<!-- Generator: Adobe Illustrator 19.1.0, SVG Export Plug-In . SVG Version: 6.00 Build 0)  -->
<svg version="1.1" xmlns="http://www.w3.org/2000/svg" xmlns:xlink="http://www.w3.org/1999/xlink" x="0px" y="0px"
	 viewBox="0 0 400 2100" style="enable-background:new 0 0 400 2100;" xml:space="preserve">
<style type="text/css">
	.st0{display:none;}
	.st1{display:inline;fill:#388438;}
</style>
<g id="Layer_2" class="st0">
	<rect x="0" y="-0.3" class="st1" width="400" height="300"/>
	<rect x="0" y="299.7" class="st1" width="400" height="300"/>
	<rect x="0" y="599.7" class="st1" width="400" height="300"/>
	<rect x="0" y="899.7" class="st1" width="400" height="300"/>
	<rect x="0" y="1199.7" class="st1" width="400" height="300"/>
	<rect x="0" y="1499.7" class="st1" width="400" height="300"/>
	<rect x="0" y="1800" class="st1" width="400" height="300"/>
</g>
<g id="Layer_1">
	<g>
		<path d="M340,73.8c-2-1.1-4.1-2.2-6.1-3.2c1.1-1,2.9-1.2,4.2-0.5C339.4,70.8,340.2,72.4,340,73.8z"/>
		<path d="M182.4,50.9c-2.2,3.7-7.4,3.9-11.3,5.8c-3.4,1.7-6,5-6.7,8.7c-0.7,3.5-3.5,6-5.8,8.7c-2.3,2.7-4.2,6.5-2.6,9.6
			c1.7,3.3-0.5,7.1-2.2,10.4c-1.7,3.3-2.5,8.1,0.7,10c-1.1,1.5-3.6,0.2-4.3-1.5c-2.5-6.2,5.8-12.9,3.4-19.1c-1.3-3.4,0.5-7.2,2.6-10
			c2.2-2.9,4.9-5.5,6-9c1.8-5.7,6.8-10.3,12.6-11.7c3.5-0.8,5.8-4,8.7-6c2.9-2,8-2.2,9.1,1.2C188.9,47.6,184.3,47.6,182.4,50.9z"/>
		<path d="M154.5,111.8c1-0.1,1.6,1.1,1.5,2.1c-0.1,1-0.7,1.8-1.1,2.7c-1.3,3,0.4,6.9,3.4,8.2c0.7,0.7-0.6,1.6-1.6,1.5
			c-2.8-0.4-4.6-3.4-4.7-6.3S153.3,114.3,154.5,111.8z"/>
		<path d="M289.4,55.6c1.8-4.7-1-10.7-5.8-12.3c-2.3-0.8-5.2-0.8-6.7-2.7c-6-7.4-16.6-10.5-25.7-7.6c-3.4,1.1-6.9-1.2-9.8-3.1
			c-3-2-7-3.7-9.9-1.7c-3.5,2.4-8.1,2-12.3,2.4c-4.2,0.3-9.1,2.1-10.1,6.3c-1.2-1.8-0.3-4.3,1.3-5.6c1.6-1.3,3.8-1.8,5.9-2.2
			c4.6-0.9,9.1-1.8,13.7-2.7c2.8-0.5,5.7-1.1,8.5-0.4c4.7,1.2,8.8,6,13.5,4.7c8.4-2.3,17.9,0,24.3,6c2.3,2.1,5.3,3.3,8.1,4.7
			c2.8,1.4,5.6,3.2,7,6C292.7,50.2,292.1,54.2,289.4,55.6z"/>
		<path d="M170.1,111.5c-1.1-3.8,0.9-7.7,2.9-11.1c1-1.6,2.1-3.3,4-3.7c0.3,2.8-2.1,5-3.4,7.5c-1.6,3-1.7,6.7-0.3,9.8
			C171.9,114.4,170.6,112.9,170.1,111.5z"/>
		<path d="M82.6,255.3c2.8-6.1,6.1-11.9,9.4-17.8c17.2-30.3,34.4-60.5,51.7-90.8c2.9-5.1,6.6-10.8,12.4-11.8
			c3.9-0.7,7.7,0.9,11.5,1.9c19,5,38.5-5.6,58.1-7.1c3.5-0.3,7.3-0.2,10.2,1.9c7.9,5.8,15,12.7,21,20.4c0.2,0.6,1.3,0.4,1.4-0.2
			s-0.3-1.3-0.8-1.7c13.1,19.9,24.5,41,33.9,63c3.4,7.8,6.5,15.8,10.9,23c5.9,9.7,14.4,18.8,15.3,30.2c-2,0.4-3.8-1.4-5-3
			c-16.1-20.8-25.8-45.7-38.2-68.9c-7.8-14.5-16.8-28.4-25.7-42.3c-5-7.8-10.8-16.2-19.7-18.6c-7-1.9-14.4,0.3-21.4,2.2
			c-14.4,4-29.9,7.1-44.1,2.3c-4.4-1.5-9.3,0.3-12.8,3.3c-3.5,3-5.8,7.2-8.1,11.2c-21.9,39.2-43.7,78.4-65.6,117.6
			C78.5,265.2,80.3,260.2,82.6,255.3 M281.3,198.9c-3.1-4.3-3.9-9.9-6-14.8c-1.7-4.2-4.4-7.9-7-11.6c-6.2-8.6-12.6-17.1-19.1-25.5
			c1.1,3.7,3.1,7,5.1,10.3c10.3,17,20.7,33.9,31,50.9C286.5,204.8,283.4,201.7,281.3,198.9 M288.6,213.7c-0.4-1-0.8-2.1-1.4-3
			c-0.3-0.6-0.7-1.2-1.1-1.8c1.1,9.5,5.1,18.6,11.2,25.9C294.4,227.8,291.5,220.7,288.6,213.7 M314,259.3
			c-3.2-5.4-6.4-10.8-9.6-16.2c-0.4-0.6-1.1-1-1.8-0.8c3.2,6.8,6.8,13.3,11,19.5C314.6,262,314.5,260.2,314,259.3z"/>
		<path d="M246.3,77.2c2.2-1,4-2.8,6.4-3.2c3.9-0.6,7.3,2.8,11.2,3.3c2.4,0.3,4.8-0.5,6.5-2.2c0.9-0.9,1.6-2.1,2.6-3
			c1-0.9,2.4-1.5,3.6-0.9c2.8,1.3,6-1.2,7.5-4c1.5-2.7,2.3-6,4.7-8c0.3,1.2-0.1,2.4-0.5,3.5c-1.6,4.4-3.9,9.6-8.5,10.4
			c-1.6,0.3-3.4,0-4.9,0.5c-2.6,0.9-3.9,3.9-6.3,5.1c-2.9,1.5-6.5,0.2-9.5-1c-3.1-1.2-6.9-2.2-9.5-0.1c-5.7,4.5-15.3,2.7-19-3.6
			c2.1-0.6,3.9,1.2,5.7,2.4C239.3,78.4,243.2,78.7,246.3,77.2z"/>
		<path d="M234,125.2c-1-0.6,0.1-2,1-2.7c2.8-2.3,3.3-6.3,3.3-9.9c-0.2-6.9-1.9-13.7-5-19.9c-0.2-0.4-0.5-0.9-0.3-1.4
			c0.3-0.8,1.5-0.5,2.2,0c1.7,1.4,2.3,3.6,2.9,5.8c1.4,5.4,2.8,11,2.8,16.6c0,2.4-0.3,4.9-1.4,7.1S236.4,124.8,234,125.2z"/>
		<path d="M199.9,65.6c-2.1,0.3-4.1,0.6-6.2,1.2c-4,1-8.3,2.8-10.1,6.6c-1,2-1.1,4.3-1.2,6.6c-2.6-1-2.3-4.9-0.9-7.3
			c3.1-5.3,9.2-8.7,15.3-8.7C198.2,63.8,199.9,64.3,199.9,65.6z"/>
		<path d="M233.3,156.1c-5.6-3.6-12.9-0.9-19.1,1.6c-6.2,2.5-14.1,4.3-18.8-0.3c-3-2.9-7.7-2.9-11.7-1.8c-4,1.1-7.7,3.2-11.7,4
			c-4.1,0.8-8.9-0.2-11-3.8c-2.3-4-6.9-6.6-11.5-6.5c1.5-2.9,6-2.2,8.4-0.1c2.4,2.1,4,5.2,6.8,6.8c8.4,4.8,19-7,27.9-3
			c2,0.9,3.5,2.4,5.5,3.4c10.1,5.2,22.3-7.9,32.9-3.9c4,1.5,7.6,5.4,11.8,4.4c0.2,2-2.5,3.2-4.4,2.5S234.9,157.2,233.3,156.1z"/>
		<path d="M261.3,203c-1.6,1-3.8,0.6-5.4-0.4c-1.6-1-2.7-2.7-3.6-4.3c-3.4-5.9-5.3-12.6-5.5-19.4c-0.1-2-2.6-2.9-4.6-3.3
			c-2-0.4-4.5-1.2-4.6-3.3c2.9-1.1,6.2-0.7,8.7,1.1c2.5,1.7,4.1,4.7,4.1,7.8c0,2.1-0.4,4.9,1.6,5.7c1.3,0.5,1.4,2.3,1.7,3.6
			C254.7,195.3,260.3,198.1,261.3,203L261.3,203z"/>
		<path d="M269.3,230.7c0.7-1.1,2.3,0.1,3,1.3c3.5,6.7,7.8,13.1,12.8,18.9c1.1,1.2-0.6,3.2-2.2,3.1c-1.6-0.2-2.8-1.6-3.7-2.9
			C274.7,244.9,271.3,238,269.3,230.7z"/>
		<path d="M246.9,47.1c-0.9-2.2-3.9-3-6.2-2.3c-2.3,0.7-4.1,2.5-5.8,4.2c0.2-2.9,2.2-5.5,4.9-6.4c2.7-0.9,5.9-0.1,7.8,2
			c1.1,1.2,2.2,3,3.8,2.7c5.4-1,11.3,0.4,15.7,3.6c1.8,1.3,3.5,3.1,4,5.3c0.5,2.2-0.6,4.9-2.8,5.5c1.8-3.4-0.1-7.8-3.3-9.9
			c-3.2-2.1-7.2-2.4-11-2.3C251.4,49.7,247.9,49.6,246.9,47.1L246.9,47.1z"/>
		<path d="M319.9,76.9c-3-0.4-5.6-3-5.9-6c-0.2-1.7,0.9-3.9,2.6-3.7c-0.1,1.6-0.2,3.2,0.2,4.7c0.4,1.5,1.6,2.9,3.1,3.2
			c1.9,0.4,3.9-1,5.8-0.5c1.9,0.5,2.8,2.6,4.6,3.5c2.8,1.4,5.9-1,8.9-1.9c1.3-0.4,3.2-0.1,3.4,1.2c-2.5,1.3-5.1,2.6-7.9,3.1
			s-5.9-0.2-7.8-2.3C325.3,76.3,322.3,77.2,319.9,76.9z"/>
		<path d="M345.4,73c-0.4,0.1-0.8,0.2-1.2,0.3c-2-6.8-10-11.2-16.9-9.2c-2,0.6-3.9-1-5.9-1.8c-3-1.2-6.7-0.2-8.7,2.3
			c-0.7-2.1,1.3-4.3,3.4-4.8c2.2-0.5,4.4,0.2,6.5,0.9c2.1,0.7,4.4,1.4,6.5,0.8c3.7-1,7.5,0.9,10.8,2.8c1.6,0.9,3.2,1.9,4.3,3.4
			S346.1,71.3,345.4,73z"/>
	</g>
	<g>
		<path d="M232.2,424.1c-1,1.4-3.1,1.9-4.6,1c0.8-1.7,3.2-2.3,4.7-1.2L232.2,424.1z"/>
		<path d="M183.1,409.2c-3.7-0.7-7,2.6-8.3,6.1c-0.3,0.7-1.6,0.7-1.8-0.1c0.7-3.9,4-7.1,7.9-7.8c0.6-0.1,1.3-0.1,1.8,0.2
			S183.5,408.8,183.1,409.2z"/>
		<path d="M150.6,429.6c-2.2,0.1-3.7-2.6-3.3-4.8s1.9-4,3.2-5.8c1.3-1.8,2.5-4,2.1-6.1c-0.8-4,4.3-6.8,5.3-10.8
			c0.8-3.3,2.6-6.2,4.3-9.1c2.8-4.7,5.6-9.4,8.4-14.1c2.6-4.4,5.2-8.7,8-13c1.3-2,2.6-3.9,4.6-5.2s4.7-1.5,6.6,0
			c-5.3,0.6-8.7,5.6-11.5,10.1c-4.1,6.7-8.1,13.4-12.2,20.1c-2.5,4.2-5.1,8.4-6.6,13.1c-1.1,3.4-5.5,5.8-4.7,9.3
			c0.7,2.9-1.5,5.6-3.3,8S148.5,427.5,150.6,429.6z"/>
		<path d="M293.1,520.4c6,13.6,19.8,23.7,21.6,38.4c-2.7,0.9-5.1-1.7-6.7-4c-23.4-33.4-39.6-71.6-63.9-104.3
			c-6.2-8.4-14.2-17-24.6-17.5c-4.4-0.2-8.6,1.1-12.8,2.4c-15.1,4.6-31.4,8.6-46.4,3.8c-3.4-1.1-7.2,0.3-9.9,2.6
			c-2.7,2.3-4.5,5.5-6.3,8.6c-22.2,39-44.3,78.1-64.9,117.9c1.3-4.9,3-9.7,5-14.3c3-7.1,6.8-13.8,10.6-20.5
			c15.7-28,31.4-56,47.1-83.9c2-3.5,4-7,6.9-9.7s7.2-4.3,11-3.1c13.6,3.9,28.3,2,41.8-2.4c7.4-2.4,15.1-5.6,22.8-4.3
			c8.3,1.4,14.8,7.6,20.7,13.6c2.4,2.4,4.7,4.7,7.1,7.1c-0.1-0.9-0.1-1.8-0.2-2.7C268.2,470.8,282,495,293.1,520.4 M257.7,462.8
			c-4.3-7.5-10-14.2-16.6-19.7c5.3,7.6,10.5,15.3,15.8,22.9c8.7,12.6,17.4,25.2,23.9,39c4.3,9.2,7.9,19.2,15.2,26.2
			c-8.6-17.3-17.2-34.5-25.8-51.8c-2.3-4.5-4.7-9.2-8.9-12.1C259.6,466.3,258.6,464.5,257.7,462.8 M303.4,539.8
			c-0.9-1.5-2-3.2-3.7-3.8c2.9,7,6.9,13.5,11.8,19.3c0.8-0.3,0.5-1.6,0-2.3C308.8,548.7,306.1,544.3,303.4,539.8z"/>
		<path d="M216.4,368.3c1.6-0.1,3.2,0.3,4.8,0.6c3.2,0.5,6.5,0.3,9.6-0.5c2.6-0.7,6.1-1.5,7.5,0.8c-6.3,1.7-13,2.2-19.5,1.3
			c-1.2-0.2-2.4-0.4-3.6-0.1c-3.1,0.8-4.4,4.6-7.1,6.3C208.3,372.3,212.1,368.5,216.4,368.3z"/>
		<path d="M238.5,456.1c-1.4,1.5-3.9,1.4-5.8,0.7c-1.9-0.8-3.5-2.1-5.5-2.9c-5.7-2.4-12,0.5-17.6,2.9s-12.9,3.9-17.4-0.2
			c-3.7-3.5-9.8-2-14.5,0c-4.7,2-10.1,4.5-14.7,2.3c-2.7-1.3-4.5-3.8-6.6-5.9c-2.2-2-5.4-3.6-8-2.2c0.9-2.8,5.1-2.8,7.4-1
			c2.4,1.7,3.9,4.5,6.4,6c4.6,2.8,10.6,0.5,15.6-1.6c5-2.1,11.5-3.7,15.4,0.1c3.8,3.7,10.1,2.8,15,0.8s9.9-4.9,15.1-4.3
			c2.1,0.2,4.2,1.1,6.1,1.9C232.5,453.7,235.5,454.9,238.5,456.1z"/>
		<path d="M305.5,392c5.4-1.4,10.9,1,15.9,3.3c1.2-0.3,1.4-2.1,0.6-3.1c-0.8-1-2.1-1.3-3.3-1.6s-2.5-0.7-3.3-1.6
			c-1.3-1.7-3.8-1.9-5.9-1.9c-4.4-0.1-8.7-0.1-13.1-0.2c6.1-3.2,13.8-3.1,19.8,0.3c0.9,0.5,1.7,1.1,2.7,1.2c2.1,0.2,4.2,1.3,5.1,3.2
			c0.9,1.9,0.1,4.6-1.9,5.3c-1.9,0.7-3.9-0.4-5.7-1.2c-4.3-1.9-9.3-2.2-13.8-0.8c-3.2,1-6.9-2.2-6.4-5.5c0.6-0.3,1.4,0.1,1.8,0.7
			c0.4,0.6,0.5,1.3,0.9,1.9C300.3,393.7,303.2,392.6,305.5,392z"/>
		<path d="M267.3,524.3c5.1,7.1,10.2,14.3,15.4,21.4c0.1,0.2,0.3,0.4,0.3,0.6c0,0.3-0.2,0.5-0.4,0.7c-1.4,1.1-3.5,0.7-5-0.3
			c-1.4-1.1-2.3-2.7-3.2-4.3c-2.3-4.3-4.6-8.5-6.9-12.8C266.6,527.9,265.8,525.5,267.3,524.3z"/>
		<path d="M196.4,357.7c3.6-4,11.2,1.8,15.3-1.7c3.6-3,9.8,1.8,13.5-1c2.3-1.7,5.6-0.9,8.4-0.1c4.3,1.2,8.6,2,13,2.7
			c3.8,0.7,7.7,1.4,11.5,2.1c4.1,0.7,8.2,1.5,12.3,0.8c3.8-0.6,7.5-2.4,11.4-2.4c3.9-0.1,8.3,2.5,8.1,6.4c-2.3-3.4-6.8-5-10.7-4
			c-5.8,1.6-11.8,2.3-17.8,2.2c-1.6,0-3.2-0.2-4.5-1c-4.6-2.7-10.4-3.2-15.3-1.3c-3.8-3.8-9.8-5.2-14.9-3.6
			c-1.9,0.6-3.9,1.6-5.8,1.1c-1.6-0.4-3.1-1.8-4.6-1.2C210,359.5,202.9,359.7,196.4,357.7z"/>
		<path d="M233.2,469.8c4.9-2.5,11.8,1,12.7,6.4c0.2,1.4,0.2,2.8,0.5,4.2c0.2,0.9,0.7,1.7,1.1,2.5c2.9,5.4,6.4,10.4,10.5,14.9
			c-1,1.4-2.9,1.6-4.5,1.1s-2.7-1.8-3.8-3.1c-3.7-4.7-6.1-10.5-6.7-16.5c-0.1-1.4-0.2-2.8-0.8-4.1c-0.6-1.3-1.8-2.4-3.2-2.4
			C236.9,472.9,234.5,471.7,233.2,469.8 M253.3,495.1c-0.5-0.1-1-0.1-1.4,0.2c0.5,0.7,1.2,1.2,2,1.4
			C253.8,496.2,253.6,495.6,253.3,495.1L253.3,495.1z"/>
		<path d="M227.4,418.7c-1.2,1.8-2.5,3.6-3.7,5.4c-1.3-2.9,1.4-5.8,3.2-8.5c2.1-3.1,2.9-6.8,5-9.9s6.1-5.5,9.4-3.8
			c-0.6,1.2-2.3,1.3-3.6,1.7c-4.4,1.3-5.6,6.8-7.6,10.9C229.2,415.9,228.3,417.3,227.4,418.7z"/>
		<path d="M259.3,385.3c3.6-2.4,8.5-0.1,12.8-0.9c5.7-1.1,8.9-7.6,14.3-9.6c0.7,0.5,0.1,1.6-0.6,2.2c-5.2,5-11.5,10.5-18.7,9.6
			c-1.6-0.2-3.3-0.7-4.9-0.2c-1.8,0.5-3,2.1-4.4,3.2c-4.7,3.7-12.7,2-15.5-3.3c4.3-0.1,7.9,5,11.9,3.5
			C256.3,389,257.4,386.5,259.3,385.3z"/>
	</g>
	<g>
		<path d="M153.3,724.7c1.2,0,2.5,0,3.7,0c0.2,0.4,0.3,0.8,0.3,1.2c-2,1-4.5,0.7-6.2-0.8C151.7,724.7,152.5,724.6,153.3,724.7
			L153.3,724.7z"/>
		<path d="M227.1,723c-0.6-0.2-0.7-1-0.4-1.5c0.3-0.5,0.9-0.8,1.5-1c1.7-0.7,3.8-1.3,5.2-0.1c-1.7,0.8-3.5,1.6-5.2,2.4
			C227.8,723,227.5,723.1,227.1,723L227.1,723z"/>
		<path d="M250.3,686.1c-7.3,2.6-15.1-2-22.9-1.9c-6.1,0-12.6,2.8-17.9-0.2c-1.4-0.8-2.7-2-4.2-2.5c-1.8-0.6-3.8-0.2-5.7,0.1
			c-6.6,1.3-13.5,2.8-18.5,7.3c-4.3,3.9-8.7,7.8-13,11.7c-2.8,2.5-5.7,5.1-8.6,7.6c-2.5,2.2-3.2,6.2-1.5,9.1
			c-2.2-0.4-3.3-3.2-2.8-5.4c0.5-2.2,2.2-3.9,3.8-5.5c7.1-7,14.5-13.6,22.3-19.8c4.6-3.7,10.6-5.2,16.3-6.6c1.5-0.4,3.1-0.7,4.6-0.7
			c4.8,0.1,8.8,3.7,13.5,4.4c4.8,0.8,9.5-1.4,14.3-1.4c6,0.1,11.7,3.7,17.6,2.6c4.4-0.8,7.8-4,11.6-6.3c7.3-4.3,16.6-4.9,24.5-1.7
			c-8.2-0.5-17-0.8-24.1,3.4C256.4,682.2,253.7,684.8,250.3,686.1z"/>
		<path d="M323.4,672.5c1.8-1.2,4.2-0.8,6.2-0.1c2.2,0.8,4.4,1.9,6.2,3.4c-1.2,0.3-2.4-0.1-3.5-0.5
			C329.3,674.4,326.3,673.5,323.4,672.5z"/>
		<path d="M226,748.6c3.7,1.4,7.2,5,10.9,3.6c-0.2,1.9-2.7,2.7-4.5,2.1c-1.8-0.6-3.2-2-4.9-2.9c-5.2-2.8-11.5-0.4-16.9,2
			s-11.8,4.7-16.9,1.8c-1.2-0.7-2.3-1.7-3.6-2.4c-8.4-4.4-18.5,7.7-27.1,3.8c-2.7-1.2-4.5-3.9-6.7-5.9c-2.2-2.1-5.4-3.7-8.1-2.5
			c1.7-2.9,6.3-2,8.8,0.2c2.6,2.2,4.5,5.3,7.7,6.4c4.8,1.6,9.5-2.4,14.3-4.1c4.8-1.7,10.5-1,14.8,1.8c4.7,3.1,10.9,1.2,16-1
			C215.1,749.2,220.8,746.6,226,748.6z"/>
		<path d="M269.4,687.6c0.1,1.1-1.5,1.3-2.7,1.2c-3.4-0.3-6.9,1.1-9.2,3.6c-0.8,0.1-0.7-1.3-0.1-1.9
			C260.3,687.2,265.3,686,269.4,687.6z"/>
		<path d="M232.3,767.3c1.1-1.4,3.1-2,4.9-1.7c1.8,0.3,3.4,1.3,4.7,2.5c1.3,1.1,2.5,2.5,2.8,4.1c0.4,2.2-0.7,4.8,0.8,6.4
			c0.9,1,2.6,1.4,2.6,2.7c0.2,5.1,6.4,7.9,7.9,12.8c-0.9,1.5-3,1.7-4.5,0.9c-1.5-0.7-2.6-2.2-3.5-3.5c-1.4-2-2.8-4-3.8-6.2
			c-1.9-4.5-1.6-9.7-3.7-14c-0.3-0.6-0.7-1.3-1.3-1.6c-0.6-0.3-1.5-0.3-1.9,0.3c-0.3,0.5-1.1,0.2-1.6-0.2
			C234.7,769,233.5,768.2,232.3,767.3 M251.3,793c0.3,0.5,0.7,0.9,1.2,1.1c0.5,0.2,1.3-0.1,1.3-0.7c-3.2-3.2-5.8-6.9-7.9-11
			c-0.7,1.4,0.2,3,1.1,4.2C248.4,788.8,249.9,790.9,251.3,793z"/>
		<path d="M346.9,679.4c-1.5,0.4-2.8-0.8-4-1.8c-2.8-2.5-6.1-4.6-9.6-5.9c0.1-1,1.7-1,2.6-0.5C340.1,673,343.9,675.8,346.9,679.4z"
			/>
		<path d="M326.5,676.3c2.1-0.1,3.4,2.3,5.3,3.3c2.5,1.3,5.7-0.3,8.3,0.7c2.2,0.8,3.6,3.3,5.9,3.7c1.3,0.2,2.5-0.3,3.7-0.5
			c1.2-0.2,2.8,0,3.4,1.1c-2.1,0.6-4.2,1.1-6.3,1.1c-2.1-0.1-4.4-0.8-5.7-2.5c-2-2.6-6.3-0.2-9.4-1.4c-1.5-0.6-2.6-2-4-2.8
			c-1.9-1-4.1-0.8-6.2-0.8c-2.2,0.1-4.4,0.1-6.6-0.1c-1.6-0.1-3.3-0.3-4.7-1.1c-1.4-0.8-2.5-2.3-2.4-4c1.1-0.2,1.7,1.4,2.5,2.1
			c0.7,0.6,1.6,0.8,2.5,0.9C317.4,676.4,322,676.5,326.5,676.3z"/>
		<path d="M141.2,748.6c2-3.7,4-7.5,7.2-10.4c3.1-2.9,7.6-4.6,11.7-3.5c17.8,5,36.7-0.9,54.3-6.7c8.6-2.8,17.5,2.5,24.6,8
			c5.3,4.1,10.8,9.4,11,16.1c-2.9-5.4-7.1-10.1-12.1-13.7c6.3,9.1,12.5,18.2,18.8,27.3c4.4,6.4,8.8,12.8,12.9,19.5
			c13.1,21.5,22.4,45.6,39.1,64.4c-5.2-9.4-10.4-18.8-15.6-28.2c-1.7-3-3.3-6-5-9c-9.8-17.8-19.7-35.6-30.8-52.6
			c-3.3-5-6.8-10.4-6.6-16.4c6.1,10.7,12.2,21.4,18.3,32.1c2.2,3.9,4.5,7.9,6.7,11.8c11.4,20,22.8,40,34.2,60
			c0.7,1.1,1.3,2.4,1.3,3.7s-1.2,2.7-2.5,2.4c-26.1-33.9-41.9-75-68.7-108.3c-5.3-6.5-11.7-13.2-20-14.3c-6.1-0.8-12.1,1.5-17.9,3.4
			c-13.9,4.6-29,7.1-43,3c-3.2-0.9-6.7,0.4-9.1,2.6c-2.5,2.2-4.1,5.2-5.7,8.1c-21.5,39.6-42.9,79.4-62,120.2c-1.4-1-0.8-3.2-0.1-4.8
			C100.6,824.5,120.9,786.5,141.2,748.6 M227.4,730.3c0,1.5,1.8,2.7,3.2,2.1c-0.7-1.1-1.8-1.8-3.1-2.1L227.4,730.3z"/>
		<path d="M197.8,698.7c1-3.1,4.1-5.5,7.4-5.7c1.2-0.1,2.4,0.1,3.6,0.3c3.1,0.5,6.2,1,9.3,1.5c0.1,0.5-0.5,0.8-1,0.9
			c-2.9,0.7-5.9-0.2-8.8-0.7c-2.9-0.4-6.4,0-8.1,2.4C199.6,698.3,198.5,699.5,197.8,698.7z"/>
		<path d="M285.4,690.8c1.6,1.2,1.4,3.7,0.3,5.4s-3,2.6-4.5,3.9c-1.4,1.2-2.6,2.7-3.7,4.2c-0.7-1.1-0.2-2.7,0.7-3.6
			c0.9-1,2.1-1.6,3.1-2.5C283.5,696.4,285.1,693.7,285.4,690.8z"/>
		<path d="M281.8,841c-1.3,1.6-4,1.5-5.7,0.4c-1.7-1.2-2.8-3.1-3.8-4.9c-2.3-4.2-4.6-8.3-6.8-12.5c-0.5-0.9-1-1.9-0.7-2.8
			c0.3-0.9,1.8-1.5,2.2-0.6C271.2,827.8,276.2,834.7,281.8,841 M277.7,839.1c-0.3,0.6,0.3,1.5,1,1.4
			C278.6,839.9,278.3,839.4,277.7,839.1L277.7,839.1z"/>
		<path d="M319.9,664.7c-1.5-0.3-3-0.7-4.5-0.6c-2.8,0.1-5.5,1.5-7.7,3.3c-1.3,1-2.7,2.2-4.4,2.1c2.2-3.9,6.5-6.3,11-6.8
			s9,0.8,12.9,2.9c0.9,0.5,1.9,1.1,2.4,2c0.5,0.9,0.5,2.3-0.3,3C328,666.9,323.7,665.5,319.9,664.7z"/>
		<path d="M256.6,715.1c0.9-2.2,3.2-3.5,5.5-4.1c2.3-0.6,4.7-0.7,7-1.5c1.8-0.7,3.4-1.9,4.6-3.4c0.7,1.1,0.2,2.7-0.8,3.5
			s-2.4,1.1-3.7,1.4C264.8,712.1,260.6,713.4,256.6,715.1z"/>
	</g>
	<g>
		<path d="M154.6,1028.7c-2.1,0.3-4.3-0.3-5.8-1.7C150.7,1025.6,153.8,1026.5,154.6,1028.7z"/>
		<path d="M230.7,1019.2c-1.8,1.9-4.1,3.3-6.6,3.9C224.6,1020.3,227.9,1018.2,230.7,1019.2z"/>
		<path d="M221.5,990.9c2.9,1,5.8,2.3,8.9,2.4c2,0,3.9-0.4,5.8-0.6c7.1-0.8,14.6,1.9,19.6,7.1c-3.7-1.5-7.5-3-11.2-4.5
			c-3.2-1.3-7-2.6-10.1-1c-4.3,2.3-9.4-0.6-14-2.2c-5.2-1.8-10.9-2.1-16.2-0.7c-4.4,1.2-9.8,3.2-13.1,0c-1.5-1.4-4-1-5.8,0.1
			c-1.8,1-3.4,2.6-5.4,3.2c-2.9,0.9-6.3-0.5-9.1,0.7c-4.3,1.8-4.9,8.4-9.2,10.3c-3.8,1.6-6.8,5-8,9c-1.3-3.3,1.5-6.7,4.4-8.7
			c2.9-2,6.4-3.9,7.2-7.3c0.8-3,4.1-4.4,7.1-4.8s6.2-0.2,9-1.5c1.6-0.8,3-2.1,4.6-2.9c1.6-0.8,3.8-1,5,0.3c3.2,3.2,8.6,1.1,13,0
			C209.9,988.3,215.9,989,221.5,990.9z"/>
		<path d="M232.9,997.8c1.4,0.4,2.6,1.1,4,1.4c2.9,0.7,6-0.2,9-0.2c0.7,0,1.6,0.3,1.5,0.9c-3.7,0.9-7.6,1.7-11.2,0.7
			c-2.8-0.8-5.6-2.6-8.3-1.7c-1.9,0.6-3.7,2.5-5.5,1.7C225,997.8,229.2,996.7,232.9,997.8z"/>
		<path d="M235.2,1052.9c-2.2,2.7-6.4,0.4-9.6-1.1c-5.2-2.3-11.7-1.6-16.2,1.9c-5.7,4.4-14.3,4.8-20.4,0.8
			c-3.9-2.5-9.1-0.7-13.2,1.4c-4.1,2.1-8.8,4.6-13.2,3c-2.9-1-4.9-3.6-7.2-5.7s-5.6-3.7-8.4-2.4c1.6-2.9,6.2-2.2,8.8-0.1
			c2.6,2.1,4.6,5.1,7.9,6c4.2,1.2,8.2-1.7,12.1-3.6c5.4-2.6,12.2-3.2,17,0.4c3.5,2.6,8.5,1.6,12.4-0.3s7.6-4.6,11.9-5.1
			C223.4,1047.5,229.1,1051.3,235.2,1052.9z"/>
		<path d="M275.4,1007.4c1.5-0.2,2.9,0.7,4.3,1.1c1.4,0.4,3.5-0.3,3.4-1.8c-0.6,0.1-1.3,0.1-1.8-0.2s-0.7-1.2-0.2-1.6
			c-3.6-0.6-7.5,0.6-10.2,3.1c-0.6-0.3-0.2-1.3,0.3-1.7c4.4-4.1,12.2-3.7,16.2,0.8c-2.1-0.2-3.6,1.8-5.6,2.5
			c-2.3,0.9-4.8-0.1-7.1-1.1C274.2,1008.2,274.8,1007.5,275.4,1007.4z"/>
		<path d="M239.6,1071.9c-0.3-0.8-0.7-1.6-1.4-2.1c-0.7-0.5-1.8-0.6-2.3,0.1c-0.3,0.4-0.9,0.1-1.3-0.2c-1.2-0.8-2.5-1.7-3.7-2.5
			c1.2-2.1,4.1-2.3,6.3-1.5c4.3,1.6,7.1,6.5,6.2,11c-0.2,1.2,1.5,1.8,2.4,2.6c1.2,1.1,1.3,2.9,2,4.4c0.4,0.8,1,1.6,1.6,2.3
			c2,2.3,4,4.6,5.9,7c0.1,0.2,0.3,0.4,0.2,0.6c-0.1,0.2-0.2,0.2-0.4,0.3c-1.6,0.7-3.4,1.3-4.9,0.6c-0.9-0.4-1.5-1.2-2.1-1.9
			c-1.9-2.4-3.9-4.8-5.2-7.7C241.3,1080.7,241.1,1076.1,239.6,1071.9 M244.6,1080.7c-0.5-0.3-0.8,0.5-0.7,1.1
			c0.7,3.7,3.2,6.7,5.6,9.6c0.8,1,1.6,1.9,2.8,2.4c0.6-1.3-0.7-2.6-1.8-3.6C247.7,1087.7,245.6,1084.3,244.6,1080.7z"/>
		<path d="M130.5,1071c4.2-8.6,8.4-17.3,13.4-25.4c2.2-3.5,4.8-7.2,8.8-8.4c3.4-0.9,6.9,0.2,10.4,0.8c14,2.7,28.3-2.3,41.7-7.2
			c4.8-1.8,9.7-3.5,14.8-3.2c7.4,0.5,13.8,5.4,19.6,10c4.6,3.7,9.7,8.6,8.7,14.4c-2.3-6.1-7-11.3-12.8-14.2
			c12.3,16.3,24.6,32.6,35.2,50c12.5,20.5,22.6,42.8,39,60.3c-5.4-9.3-10.8-18.6-16.1-28c-1.7-2.9-3.3-5.7-5-8.6
			c-10.3-17.9-20.7-35.8-32.2-52.9c-3.4-5-7-10.1-8-16.1c3.3,5,6.6,10.1,9.8,15.2c8.3,12.9,16.3,26,24,39.3c1.4,2.5,2.9,5,4.3,7.5
			c8,13.9,16.1,27.9,24.1,41.8c0.9,1.5,1.4,3.8-0.1,4.5c-5.2-3-8.8-8.2-12.1-13.3c-20.2-31.2-36.7-64.9-60.4-93.5
			c-3.6-4.3-7.5-8.7-12.6-10.9c-6.5-2.9-14.1-2-20.9,0s-13.3,5.2-20.2,6.8c-8.3,2-17.1,1.7-25.3-0.7c-5.2-1.5-10,3.3-12.9,7.9
			c-3.8,5.9-7,12.3-10.2,18.6c-17.6,35.2-34.6,70.7-51.1,106.4c2.3-10.6,7-20.4,11.8-30.1C107.6,1118.4,119.1,1094.7,130.5,1071
			 M224.8,1029.8c-0.3-0.1-0.6-0.2-0.9-0.2c-0.2,0-0.3,0.1-0.4,0.2c1,1.8,3.2,2.9,5.2,2.5C227.6,1031.3,226.3,1030.4,224.8,1029.8z"
			/>
		<path d="M281.7,1139.5c-2.2,1-5.3,1.8-6.8-0.2c-3.9-5.4-7.3-11.1-10.1-17.1c-0.4-0.8-0.7-1.7-0.5-2.5s1.6-1.3,2-0.5
			C270.8,1126.5,275.9,1133.3,281.7,1139.5 M271.9,1131c0.4,2.6,2.2,4.9,4.5,6.1C275.4,1134.8,273.8,1132.6,271.9,1131
			 M277.6,1138.3c-0.1,0.9,1,1.5,1.8,1.1c-0.1-0.6-0.3-1.2-0.8-1.6c-0.5-0.3-1.4,0-1.3,0.6L277.6,1138.3z"/>
		<path d="M322.1,992.8c1.8,0.3,3.6,0.6,5.4,0.9c2.3,0.4,4.6,0.8,6.7,1.7c1.6,0.7,3.1,1.7,4.3,2.9c-2.2,0.9-4.1-2-6.5-2.6
			c-1.8-0.4-3.6,0.6-5.1,1.7c-1.5,1.1-2.9,2.5-4.6,3c-2.9,0.7-6.2-1.6-6.4-4.6c1-0.6,2,0.8,2.7,1.7c1.7,2.1,5.6,1.7,6.8-0.7
			c-0.6-0.3-1.4-0.4-2.1-0.4c0.5-0.7,0-1.7-0.7-2.1s-1.6-0.5-2.4-0.5c-2.3,0-4.7-0.1-7-0.1c-0.1-0.3-0.1-0.7-0.2-1
			C315.9,991.8,319.1,992.3,322.1,992.8z"/>
		<path d="M235.3,1008.7c-3.1,0.7-6,2.1-9.1,2.9c-3.2,0.9-6.5,1-9.8,1.2c-5.8,0.3-11.7,0.4-17.5,0.5c-1.8,0-4.1-0.3-4.6-2
			c14,1.6,28.3,0.2,41.7-4.3c2.6-0.9,5.6-0.2,7.5,1.7C240.8,1008.1,238,1008.1,235.3,1008.7z"/>
	</g>
	<g>
		<path d="M324.9,1309.1c0.4-0.1,0.9-0.1,1.3-0.2c0.1,0.4,0.2,0.9,0.3,1.3c-0.7,0.4-1.7-0.2-1.6-1L324.9,1309.1z"/>
		<path d="M245.7,1319.4c-5.6-0.7-11.2-0.8-16.8-0.1c-6.7,0.8-13.6,0.6-20.3-0.7c2.4-1.7,5.7-1.1,8.6-0.7c8.4,1,16.9-1.2,25.3-0.6
			C243.9,1317.4,245.7,1318,245.7,1319.4z"/>
		<path d="M227.5,1312.5c4.1-3.3,10-4.1,14.8-2.1c3.7,1.5,7.7,4.5,11.1,2.5c-0.3-4.2-5-6.7-9.3-6.9c-4.2-0.2-8.4,1-12.6,0.5
			c-4-0.5-7.7-2.5-11.8-2.8c-8.8-0.8-17.1,6.5-25.8,5c-3.3-0.6-7.2-2.3-9.8,0c-4.8,4.3-10.7,7.3-17,8.8c1.2-4.2,7.4-3.6,11.2-5.9
			c1.8-1.1,3.1-2.9,4.7-4.3c1.6-1.4,3.9-2.4,5.9-1.5c10,5,21.5-5.1,32.6-3.6c3.1,0.4,6.1,1.8,9.2,2.3c5.4,0.9,10.9-0.5,16.3,0.4
			s10.7,6.4,8.4,11.3c-4.3-1.1-8.6-2.2-12.9-3.3C237.5,1311.6,232.1,1310.3,227.5,1312.5z"/>
		<path d="M287.9,1311.1c0.9,0.6,1.8,1.5,1.9,2.6c0,1.7-2.1,2.7-3.8,2.7c-1.7-0.1-3.5-0.8-5.2-0.4c-1.5,0.3-2.7,1.3-4.1,1.9
			c-1.4,0.6-3.3,0.6-4.1-0.7c3.8-0.9,7.4-3,9.9-6.1C283.7,1309.5,286.2,1310,287.9,1311.1 M283.6,1314.5c1.6,0.4,3.4,0.2,4.9-0.6
			c-1.6-2.4-5.9-2.2-7.3,0.4c0.8,0.1,1.6,0.2,2.4,0.3L283.6,1314.5z"/>
		<path d="M139.9,1350.3c2.5-4.7,5.3-9.8,10.3-11.7c4.7-1.7,9.8-0.1,14.8,0.6c19.9,2.8,39-9.2,59-10.3c9.6,5.3,18.3,12.1,25.7,20.2
			c-0.2-1.1-0.5-2.3-0.7-3.4c14.1,17.8,26.6,37,37.2,57.1c3.3,6.3,6.4,12.6,10.4,18.5c6.5,9.6,15.5,18.1,18.6,29.3
			c-1.4,2.2-4.7,0.1-6.3-2c-24.8-32.4-42.6-70-69.1-101.1c-6.4-7.5-14.5-15.2-24.4-15.1c-4.2,0-8.2,1.5-12.2,2.9
			c-14.3,5-29.8,9-44.4,5.2c-4.2-1.1-8.7,0.8-11.9,3.8c-3.1,3-5.2,6.9-7.1,10.8c-19.6,38.5-39.1,77.1-56.4,116.7
			c-1.5-1.4-0.8-3.9,0.1-5.8C101,1426.7,120.1,1388.4,139.9,1350.3 M259.5,1370.4c7.9,10.6,15.9,21.3,21.9,33.1
			c8.3,16.1,18.7,31.1,30.9,44.5c-1.8-4-3.9-7.8-6.5-11.4c-4.2-5.9-9.5-11-13.4-17c-2.8-4.2-4.9-8.8-7.1-13.4
			c-9.2-18.8-20.6-36.6-33.8-52.8c-0.4-0.5-1-1.1-1.7-1.1c-0.7,0-1.1,1.2-0.4,1.4c-3-5.2-7.2-9.8-12.2-13.2
			C244.6,1350.5,252.1,1360.4,259.5,1370.4z"/>
		<path d="M219.2,1349.5c2.9-0.1,5.7,0.9,8.5,1.9c2.8,1,5.6,1.9,8.5,2.9c-1.3,1.7-3.9,1.7-5.9,1c-2-0.7-3.7-2.1-5.7-2.8
			c-9.2-3.4-18.4,7.4-28.1,5.9c-4.6-0.7-8.6-4.2-13.3-4.2c-7-0.1-12.9,7.5-19.7,5.9c-3.3-0.8-5.7-3.5-8.2-5.7
			c-2.6-2.2-6.1-4-9.2-2.6c0.8-2.9,5.1-3,7.5-1.3c2.5,1.7,4.1,4.4,6.7,5.8c4.8,2.7,10.7,0.2,15.7-2c5-2.2,11.5-3.9,15.5-0.2
			c3.6,3.3,9.4,2.4,13.9,0.4C209.9,1352.4,214.3,1349.6,219.2,1349.5z"/>
		<path d="M311.5,1311.6c0.4-1.2-0.9-2.3-2.1-2.5c-4.5-0.8-8.5,4.4-12.9,3.2c2.5-1.9,5.4-3.3,8.5-4.1c1-0.3,2.1-0.5,3.2-0.5
			c1.4,0.1,2.7,0.7,3.9,1.2c3.1,1.4,6.1,2.8,9.2,4.2c0,1-1.6,1-2.5,0.6c-3-1.1-6.3-1.3-9.4-0.7c-0.7,0.1-1.4,0.3-2.1,0.1
			c-0.7-0.2-1.3-1-0.9-1.6C308.1,1311.5,309.8,1311.5,311.5,1311.6z"/>
		<path d="M257.2,1394.9c-1.6,0.7-3.4,1.5-5,0.8c-0.8-0.3-1.4-0.9-1.9-1.5c-5.2-5.7-8.4-13.1-9.2-20.8c-0.2-1.9-2.5-2.6-4.3-2.8
			s-4.1-0.6-4.7-2.4c0.9-1.4,2.7-1.7,4.3-1.5c4.9,0.6,8.9,5.6,8.3,10.5c-0.2,2.3,3.5,3.3,3.8,5.6
			C249.3,1387.7,255.6,1390.1,257.2,1394.9 M250.8,1391.3c0.4,1.4,1.5,2.6,2.9,3c0.3-1.5-1.1-3.1-2.6-3.1L250.8,1391.3z"/>
		<path d="M268.7,1420.6c4,6.7,8.9,12.8,14.4,18.3c1.1,1.1-0.2,3.2-1.8,3.2s-2.8-1.2-3.9-2.3c-4.2-4.7-7.2-10.4-10.2-16
			c-0.4-0.8-0.9-1.7-0.6-2.6S268.3,1419.8,268.7,1420.6z"/>
	</g>
	<g>
		<path d="M230.7,1624.2c-1.4,1.4-3.7,1.7-5.4,0.8C226.7,1623.5,229,1623.2,230.7,1624.2z"/>
		<path d="M293.1,1607.5c-0.5-0.8,0.5-1.7,1.4-1.9c3.8-1.3,8.4,0.1,10.9,3.2c0.3,0.3,0.5,0.7,0.6,1.1c0.4,1.7-2,2.6-3.7,2.4
			c-1-0.1-2-0.3-2.6-1s-0.9-1.9-0.2-2.6c0.8,0.6,1.4,1.4,2.3,1.9c0.9,0.5,2.1,0.5,2.7-0.3C301.9,1606.9,296.9,1605.7,293.1,1607.5z"
			/>
		<path d="M218.4,1650.8c6.7-1.2,13.4,1.9,19.5,4.9c-1.1,1.5-3.4,1.5-5.2,0.8c-1.7-0.7-3.2-2-4.9-2.8c-5.7-2.7-12.3,0.4-18,3
			s-13.2,4.5-17.8,0.2c-3.7-3.4-9.6-1.9-14.2,0.2c-4.6,2.1-9.7,4.8-14.4,2.9c-2.9-1.1-5-3.8-7.3-5.9c-2.3-2.1-5.7-3.8-8.6-2.5
			c1.1-2.9,5.4-2.7,7.9-0.9s4.1,4.7,6.8,6.2c8.6,4.7,19.1-7.8,28-3.8c1.8,0.8,3.3,2.2,5.1,3.1c3.7,1.7,8,0.7,11.7-0.9
			C210.9,1653.7,214.4,1651.5,218.4,1650.8z"/>
		<path d="M340.4,1595.3c-3-1.9-7.1-1.2-10,0.8c-2,1.4-3.9,3.6-6.4,3.2c2.6-3,6.1-5.2,9.9-6.3c1.7-0.5,3.5-0.7,5.2-0.2
			s3.1,2,3.2,3.8c0,1.1-0.6,2.3-1.6,2.6s-2.4-0.5-2.3-1.6C339.5,1597.4,340.4,1596.4,340.4,1595.3z"/>
		<path d="M246.6,1680.5c0.8,1.6,3.2,2.3,3.3,4.1c0.5,5.2,6.9,7.8,8.6,12.8c-1.5,0.6-3.2,1.3-4.8,0.7c-1-0.4-1.8-1.2-2.5-2
			c-4.2-4.9-6.9-11.1-7.8-17.5c-0.2-1.5-0.3-3.1-1.1-4.4c-0.8-1.3-2.4-2.2-3.8-1.7c-0.3,0.1-0.6,0.3-0.9,0.3c-1,0-1.3-1.8-2.3-1.7
			c-1.1,0.1-1.6-1.6-0.8-2.4c0.8-0.8,2-0.7,3.1-0.6c4.3,0.8,8.6,3.9,8.7,8.2C246.3,1677.8,246,1679.3,246.6,1680.5 M253.2,1695.7
			c0.6,0.8,1.9,1.5,2.3,0.6c-2.4-2.7-4.8-5.4-7.2-8.1c-0.1,0.7,0.4,1.3,0.8,1.9C250.5,1692,251.8,1693.8,253.2,1695.7z"/>
		<path d="M250.7,1605.1c-0.4-1.4,1.6-2.2,3-2c3,0.3,5.7,1.7,8.5,2.7c2.8,1,6.1,1.4,8.6-0.2c-0.1-2.6-2.9-4.2-5.5-4.4
			s-5.1,0.7-7.7,0.5c-2.7-0.2-5.9-1.3-7.9,0.6c-0.5,0.5-0.8,1.1-1.4,1.6c-0.5,0.5-1.4,0.7-1.9,0.2c1-2.9,4.5-4.1,7.5-4.2
			c3-0.1,6.1,0.6,9.1,0c2.7-0.6,5.8,0.3,7.8,2.2c1.2,1.1,2.1,2.8,1.4,4.3c-0.5,1.1-1.7,1.7-2.8,1.9
			C263.1,1609.6,256.9,1603.6,250.7,1605.1z"/>
		<path d="M277.9,1743.2c-2.1-2.2-3.6-4.9-5.1-7.6c-1.6-2.9-3.1-5.7-4.7-8.6c-0.8-1.4-1.2-3.7,0.3-4.1c0.9,1.2,1.8,2.5,2.8,3.7
			c4.4,5.8,8.8,11.7,13.2,17.5c-0.7,1-2.2,1.4-3.4,1.1C279.8,1744.9,278.7,1744.1,277.9,1743.2 M280.9,1743.2c0.2,0.4,1-0.2,0.7-0.6
			c-0.2-0.4-0.8-0.5-1.3-0.5c0,0.4,0.3,0.9,0.7,1L280.9,1743.2z"/>
		<path d="M140.7,1651c2.9-5.9,6.8-12.5,13.3-13.5c3.1-0.5,6.3,0.5,9.4,1.1c14.4,2.9,29.2-1.3,43.1-6.1c5.2-1.8,10.5-3.7,15.9-3.1
			c7.5,0.8,13.6,6.1,19.2,11.2c3.4,3.1,6.9,6.2,10.3,9.3c-0.2-1.2-0.4-2.4-0.6-3.7c4.8,7.7,9.7,15.5,14.5,23.2
			c1.7,2.7,3.3,5.4,5,8.1c6.8,11,13.2,22.3,19.7,33.5c7.9,13.7,15.8,27.4,23.7,41c0.5,0.8,1,1.9,0.5,2.8c-0.9,1.7-3.4,0.3-4.6-1.2
			c-27.1-34.5-43.1-77-72.3-109.7c-4-4.5-8.5-8.9-14.3-10.5c-6.8-1.9-14,0.6-20.7,2.8c-14.3,4.7-29.8,8.1-44.2,3.8
			c-3.4-1-7.1,0.5-9.6,2.8c-2.6,2.4-4.2,5.6-5.8,8.7c-20.6,40.4-41.2,80.9-59.7,122.4c3.2-14.7,10-28.3,16.7-41.7
			C113.7,1705.1,127.2,1678.1,140.7,1651 M251.4,1652.1c-0.1,0.9-0.1,1.8-0.2,2.7c-2.7-5.8-7.1-10.7-12.4-14.1
			c7.7,10.9,15.4,21.9,23.1,32.8c7.3,10.4,14.7,20.9,20.3,32.4c8,16.6,18.1,32.2,29.9,46.3c-2.1-3.6-4.1-7.2-6.2-10.8
			c-3.2-5.6-6.5-11.2-9.7-16.8c-1.2-2.2-2.5-4.3-3.7-6.5c-7.1-12.2-14.1-24.5-21.2-36.7C265.3,1671.2,259.3,1660.9,251.4,1652.1
			 M226.6,1632.3c0.8,1.4,2.5,2.3,4.1,2.2c-1.2-1.3-2.6-2.4-4.1-3.2C226.3,1631.5,226.3,1632,226.6,1632.3z"/>
	</g>
	<g>
		<path d="M269.5,2024.6c4,6.8,8.4,13.3,13.4,19.5c0.9,1.1-0.7,2.8-2.1,2.6c-1.4-0.2-2.4-1.5-3.2-2.6c-3.6-5.4-6.7-11.1-9.2-17.1
			c-0.2-0.6-0.5-1.2-0.3-1.7C268.2,2024.6,269,2024.2,269.5,2024.6L269.5,2024.6z"/>
		<path d="M254.9,1997.8c0.4-0.1,0.7-0.1,1.1-0.2c0.4-1-0.5-2.2-1.5-2.1c0.1,0.8,0.2,1.5,0.3,2.3c-3.2-2.6-5.7-6.2-7-10.2
			c-1.3-3.9-1.5-8-2.7-11.9c-0.2-0.8-0.5-1.7-1.2-2.2c-0.6-0.6-1.7-0.7-2.3-0.1c-0.6,0.6-1.5-0.1-2-0.7c-0.5-0.6-1.2-1.4-1.9-1.1
			c-0.5-0.6-0.1-1.7,0.6-1.9c0.3-0.1,0.6-0.1,0.9,0c5,0.5,9.9,4.7,9.5,9.7c-0.1,1.7-0.4,3.9,1.1,4.5c2.1,0.7,2.1,3.6,2.9,5.6
			c1.5,3.4,6.2,5.5,5.9,9.2C257.6,1999.8,255.5,1999.2,254.9,1997.8z"/>
		<path d="M166.8,1954.5c4.4,2.9,10.2,0.8,15.1-1.1s11.1-3.3,14.9,0.4c4.3,4.2,11.5,2.8,17.1,0.7c5.7-2.1,12.1-4.6,17.5-1.8
			c3,1.6,6.1,4.8,9.2,3.5c-0.5,1.8-3,2.3-4.8,1.5c-1.8-0.7-3.1-2.2-4.7-3.2c-4.1-2.4-9.2-1.1-13.6,0.6c-4.4,1.8-8.9,4-13.5,3.4
			c-5.3-0.7-9.7-5-15-5.2c-4.2-0.2-8,2.3-12,3.7s-9.2,1.6-11.6-1.9c-2.6-3.9-6.8-6.6-11.4-7.4c1.9-1.9,5.3-0.9,7.2,0.9
			S164.5,1953,166.8,1954.5z"/>
		<path d="M89.8,2046.5c3.1-6.4,6.6-12.5,10.2-18.7c15.6-26.8,31.2-53.6,46.7-80.4c2.8-4.8,6.1-10,11.4-11.4
			c4.2-1.1,8.6,0.5,12.9,1.4c14.9,3.4,30.4-0.8,45.1-5c7.5-2.1,15.8,0.1,22.3,4.5c6.5,4.3,11.5,10.5,16.1,16.9
			c-3.2-2.5-6.3-5.2-9.3-7.9c7.6,11.7,15.1,23.4,22.7,35.1c5.3,8.2,10.7,16.5,14.6,25.5c7.7,17.6,17.9,34.1,30.3,48.9
			c-15.8-24-29.5-49.5-41-75.8c-4.6-10.6-16.9-17.9-17.1-29.4c11.6,16.9,22,34.7,31,53.1c5.6,13.6,12.7,26.7,21.2,38.7
			c3.4,4.9,7.2,10,7.7,15.9c-0.4,1.4-2.6,0.5-3.5-0.6c-15.1-18-24.8-39.9-36.2-60.5c-8.4-15.1-17.8-29.6-27.3-44
			c-5.6-8.4-12.4-17.5-22.4-18.8c-4.3-0.6-8.7,0.5-12.9,1.5c-13.8,3.4-28.3,7.2-42.1,3.6c-3.9-1-8.1-2.6-11.8-1
			c-2.3,1-3.9,3-5.4,4.9c-7.9,10.5-14.5,22-21,33.4c-16.1,28.3-32.2,56.6-48.3,84.9C85.4,2056.2,87.5,2051.2,89.8,2046.5z"/>
	</g>
</g>
</svg>
