<?xml version="1.0" encoding="utf-8"?>
<!-- Generator: Adobe Illustrator 19.2.0, SVG Export Plug-In . SVG Version: 6.00 Build 0)  -->
<svg version="1.1" id="Layer_1" xmlns="http://www.w3.org/2000/svg" xmlns:xlink="http://www.w3.org/1999/xlink" x="0px" y="0px"
	 viewBox="0 0 662.4 500" style="enable-background:new 0 0 662.4 500;" xml:space="preserve">
<style type="text/css">
	.st0{fill:#7A0000;}
	.st1{fill:#8B2020;}
</style>
<g id="Shape_35">
	<g>
		<path class="st0" d="M201.2,444.9c67.5,10.7,136.3,10,204.5,4.9c65-4.9,133.8-15.5,183-58.4c14.1-12.3,26.2-27.1,33.6-44.3
			c8.5-19.6,10.5-41.7,8.4-62.9c-6.9-70.1-56.5-130-115.7-168.2c-107.7-69.5-252.7-76.6-366.7-18c-50,25.7-96.3,66.9-108.8,121.6
			c-8.1,35.3-0.8,74,19.8,103.9s53.9,50.6,89.8,55.8c-7.8,5-18.2,2.9-26.9-0.2c-31.6-11.4-58.8-34.7-74.8-64.3
			c-16-29.6-20.6-65.1-12.7-97.8c14.1-58.7,65.2-101.8,119.6-127.8c65.6-31.4,140.2-44.1,212.2-34.5s141.2,41.4,194.3,91
			c32.8,30.6,59.8,68.8,71.1,112.2c6.7,25.7,7.6,53.3-0.3,78.6c-12.2,39-44.5,69.3-81.2,87.2c-36.7,17.9-77.7,24.7-118.3,29
			c-59,6.2-118.4,7.6-177.6,4C236.3,455.4,217.4,453.6,201.2,444.9z"/>
		<g>
			<g>
				<g>
					<g>
						<path class="st1" d="M202.5,442.5c-1.6-0.5-1.1,0.7,2.8,2.5l3.3,0c0,0-1.5-0.6-3.1-1.2C204,443.2,202.5,442.5,202.5,442.5z"/>
						<path class="st1" d="M229.4,453.7c5.2,0.2,11.2-0.3,8.1-1.9c-2.6,0.3-4.2,0.3-5.8,0.3c-0.8,0-1.6,0-2.6,0
							c-1,0-2.1,0.1-3.5,0.2c-4.3-0.7-7.3-2.2-6.5-2.4c-0.8,0-2.4-0.6-4.1-1.1c-0.9-0.3-1.7-0.6-2.5-0.8c-0.8-0.2-1.6-0.4-2.2-0.4
							c4.9,3,12,5,19.6,5.4C231.4,453.5,229.8,453.5,229.4,453.7z"/>
						<path class="st1" d="M627.1,353l-1.4,2.5C626.1,354.8,626.6,354,627.1,353z"/>
						<path class="st1" d="M535,120.6c1.6,1.2,2.4,1.6,2.6,1.6C536,121.1,534.7,120.2,535,120.6z"/>
						<path class="st1" d="M497.3,94.1c0.8,0.5,1.5,1,2.3,1.5C498.8,95,497.9,94.4,497.3,94.1z"/>
						<path class="st1" d="M627.1,353c0,0,0.2-0.4,0.6-1c0.4-0.6,0.7-1.4,1.1-2.2c0.8-1.6,1.6-3.3,1.6-3.3c-0.1-0.3-0.5,0.5-1.1,1.8
							C628.7,349.7,628,351.5,627.1,353z"/>
						<path class="st1" d="M288.7,454.6c-1.5,0-2.7,0.1-3.9,0.2c1.2,0,2.4,0,3.6,0C288.5,454.8,288.6,454.7,288.7,454.6z"/>
						<path class="st1" d="M540.4,431.3l-2,0.9c-0.5,0.4-1,0.8-1.5,1.2c0,0,0.9-0.5,1.8-1C539.5,431.9,540.4,431.3,540.4,431.3z"/>
						<path class="st1" d="M452.2,453.3c2-0.2,2.6-1.4,3.3-2c-1.1,0.6-2.6,1-4.3,1.3C451.2,452.9,451.5,453.1,452.2,453.3z"/>
						<path class="st1" d="M308.8,459.6l-2.5,0.1C307,459.7,308.1,459.6,308.8,459.6z"/>
						<path class="st1" d="M595.8,396.7c0.2,0,0.6-0.1,0.9-0.3C596.6,396.3,596.3,396.4,595.8,396.7z"/>
						<path class="st1" d="M305.5,458.5c0.1-0.1,0-0.1,0-0.2C305,458.5,304.8,458.5,305.5,458.5z"/>
						<path class="st1" d="M201.3,444.6l1.4,0.2c0.2-0.2,0.4-0.4,0.4-0.6L201.3,444.6z"/>
						<path class="st1" d="M420,60.2c0.2,0.1,0.2,0.1,0.4,0.1C422.6,60.8,421.3,60.5,420,60.2z"/>
						<path class="st1" d="M78,338.7c2.6,3.3,0,1.1-2.3-0.7c-1.2-0.9-2.2-1.8-2.4-1.8c-0.2,0,0.2,1,2.3,3.4
							c-0.3-0.6,2.1,1.2,3.6,2.1c0.8,0.4,1.4,0.6,1.3,0.2c0-0.2-0.2-0.5-0.7-1C79.5,340.4,78.9,339.7,78,338.7z"/>
						<path class="st1" d="M291,454.8c1.2,0,2.5,0.1,3.7,0.1C293,454.8,291.9,454.8,291,454.8z"/>
						<path class="st1" d="M75.6,339.7L75.6,339.7l0.9,1C76.1,340.3,75.9,340,75.6,339.7z"/>
						<path class="st1" d="M227.3,58c0.4,0.1,1.2,0,2,0C229.2,57.9,228.7,57.9,227.3,58z"/>
						<path class="st1" d="M371,52.1l-3.5-0.7C368.9,51.7,370.1,51.9,371,52.1z"/>
						<path class="st1" d="M157,84.4c-1.8,0.7-2.5,0.8-4.8,2.1c0.2-0.1,0.5-0.1,0.8-0.2C153.8,85.7,154.9,85.2,157,84.4z"/>
						<path class="st1" d="M90.9,125.9c0.4-0.2,0.8-0.5,1.3-0.8c0.6-0.5,1.3-1.1,1.9-1.6L90.9,125.9z"/>
						<path class="st1" d="M539.3,427.4c-1.7,0.3-2.9,0.4-3.8,0.4C537,428.1,526.3,432.6,539.3,427.4z"/>
						<path class="st1" d="M288.7,455.3c0.5-0.3,1.1-0.4,2.3-0.4c-0.9,0-1.7,0-2.6,0C288.2,455,288.2,455.1,288.7,455.3z"/>
						<path class="st1" d="M157.9,93.7c0,0-0.7,0.3-1.7,0.8c-1,0.5-2.4,1.1-3.8,1.8c-2.7,1.3-5.4,2.7-5.4,2.7
							C150.1,97.5,154,95.5,157.9,93.7z"/>
						<path class="st1" d="M362.8,57l2.9,0.2C364.5,57,363.5,56.9,362.8,57z"/>
						<path class="st1" d="M116.4,117.5c-2,0.9-4,2-6,3.3c-0.4,0.4-0.8,0.8-1,1.1c0,0,1.7-1.1,3.5-2.2
							C114.7,118.6,116.4,117.5,116.4,117.5z"/>
						<path class="st1" d="M535.5,427.8C535.5,427.8,535.5,427.8,535.5,427.8C535.5,427.8,535.5,427.8,535.5,427.8z"/>
						<path class="st1" d="M456.8,450.8c11.7-1.8,5.3-2.3,7.6-3.5c3.5-0.6,5.6-1,7-1.2c1.3-0.2,1.9-0.1,2.2,0.1c0.5,0.3,0,1,2.4,0.9
							c4.3-0.9,8.1-2.3,11.5-3.4c1.7-0.6,3.4-1.1,5-1.6c1.6-0.5,3.2-1,4.8-1.4c0.5,0.1,1.8-0.1,0.4,0.6c2.2-0.9,5-1.7,8.1-2.7
							c3.1-1,6.4-2,9.9-3c3.4-1.1,6.8-2.4,10-3.6c0.8-0.3,1.6-0.6,2.3-0.9c0.7-0.4,1.5-0.7,2.2-1c1.4-0.7,2.7-1.4,3.9-2
							c0.8-0.2,1.2-0.2,1.5-0.2c-1.9,0-2.4-0.6-2.3-1.3c5-1.9,8.6-4.7,10.9-4.6c-3,1.3-3,1.8-4.3,2.7l4.9-2.7
							c5.1-0.9-6.7,3.6-6.3,4.5c2.5-1.2,5-2.6,7.5-3.9c1.3-0.7,2.5-1.3,3.8-2c1.2-0.7,2.4-1.5,3.6-2.2c2.4-1.4,4.7-2.8,6.9-4
							c2.1-1.4,4.1-2.6,6-3.6c1.1,0.1-3,2.8-6.2,4.7c-3.2,1.8-5.4,3.1-0.2,1c0,0-2.9,1.4-5.9,2.8c-1.5,0.7-2.9,1.4-4,1.9
							c-1.1,0.5-1.9,0.8-1.9,0.8c2.5-0.5,3.3-0.7,3.2-0.5c-0.1,0.2-1,0.6-1.9,1c-1.9,0.8-3.9,1.8,0.8,0.9c3.9-1.8,6.8-3.5,9.4-4.8
							c2.6-1.3,4.5-2.7,6.5-4c2-1.3,4-2.6,6.4-4.2c2.3-1.7,5.1-3.6,8.6-6c2.7-2.8-1.7-0.1,0.9-3c2.2-2,4.2-3.7,5.9-5.1
							c1.7-1.4,3.2-2.5,4.5-3.5c2.5-2,4.4-3.2,6.1-4.3c1.7-1.1,3.2-2.1,5.1-3.8c1.8-1.7,3.8-4,6.4-7.8c0.6-1.1,1-2,1.4-3
							c0.4-1,0.8-2,1.4-3.2c1.2-2.4,3.2-5.4,6.8-10.7c0,0-0.1,0.3-0.1,0.7c-0.1,0.4-0.2,1-0.3,1.6c-0.3,1.1-0.5,2.3-0.5,2.3
							c0.6-0.9,1.1-1.7,1.5-2.5c0.4-0.8,0.8-1.5,1.2-2.1c0.7-1.3,1.2-2.4,1.6-3.3c0.8-1.8,1.1-3.1,1.4-4.3c0.3-1.2,0.7-2.5,1.4-4.4
							c0.4-1,0.8-2.1,1.4-3.5c0.5-1.4,1.3-3.1,2.1-5.1c-0.1,0.8-0.4,2-0.8,3.3c-0.4,1.3-0.8,2.7-1.3,3.9c-0.9,2.5-1.7,4.2-1.1,3
							c2.8-5,3.2-7.1,3.5-8.8c0.2-1.7,0.2-3.2,1.3-7.4c0,0,0.5-0.3,0.9-0.7c0.4-0.4,0.9-0.7,0.9-0.7c2.1-8.8,3-18.2,3.1-27.7
							c0-9.6-0.9-19.3-2.5-28.9c0.6,1,1.5,4.3,1.2-0.3c-0.3-1.5-0.6-3.1-0.8-4.6c-0.3-1.5-0.7-3.1-1-4.6c-0.3-1.6-0.7-3.1-1.1-4.7
							c-0.4-1.6-0.7-3.1-1.2-4.7c-1.6-6.3-3.6-12.5-5.7-18.7c-2.2-6.2-4.6-12.2-7.2-18c-2.7-5.8-5.4-11.4-8.3-16.6
							c0,0-0.3-0.5-0.9-1.1c-0.5-0.7-1.3-1.6-2-2.4c-0.7-0.9-1.4-1.8-2-2.4c-0.5-0.7-0.9-1.1-0.9-1.1c-1.2-1.8-1.7-3.6-0.3-1.8
							c-4.8-8-0.9,0-3.7-3.4c-3.1-4.2-3.4-6.1-1.2-3.5c-5.1-6.4-12.6-15.2-20.7-23.6c-8-8.5-16.5-16.6-22.5-22.7l2.7,2
							c-4.8-4.6-8.1-6.6-11.2-8.5c-1.6-1-3.1-1.9-4.8-3.1c-1.7-1.2-3.6-2.7-5.9-4.8l2,1.3c-5.6-4.5-11.7-8.8-17.8-12.8
							c-3.1-2.1-6.2-3.9-9.3-5.9c-1.6-0.9-3.1-1.9-4.7-2.8c-1.6-0.9-3.1-1.8-4.7-2.7c-1.5-0.9-3.1-1.8-4.6-2.7
							c-1.5-0.8-3.1-1.7-4.6-2.5c-3-1.6-5.9-3.3-8.9-4.8c-2.9-1.5-5.7-3-8.4-4.4c-2.7-1.4-5.3-2.7-7.7-4c-2.2-0.1-8.8-3-15.1-5.6
							c-6.4-2.5-12.5-4.7-13.8-3.8c-3.8-1.6-6.4-2.7-8.4-3.6c-2.1-0.8-3.6-1.5-5.4-2.2c-1.8-0.7-3.7-1.5-6.6-2.5
							c-2.9-0.9-6.8-2.2-12.4-3.7c-6-1.4-9.3-0.7-16.9-1.9l0-1.2c0,0-2.6-0.2-5.2-0.3c-1.3-0.1-2.6-0.1-3.6-0.1
							c-1,0-1.6-0.1-1.6-0.1l-5.2-2.3c0,0-0.4-0.1-1.1-0.1c-0.7-0.1-1.6-0.2-2.5-0.2c-1.8-0.1-3.6-0.3-3.6-0.3
							c2.8,0.4,6,1.3,5.5,1.6c-11.1-1.1-27-3.9-27.3-4.5c0,0-1.7,0-4.2-0.1c-2.5-0.1-5.8-0.2-9.1-0.1c-3.3,0-6.6,0-9.1,0.1
							c-2.5,0.1-4.1,0.2-4.1,0.2c0.6-0.5,5-0.7,8.6-0.9c-3.6,0.2-5.5,0.3-6.6,0.2c-1.1,0-1.4-0.2-1.6-0.4c-0.5-0.3-0.8-0.7-7.3-0.1
							c1.7,0.3-0.9,0.7-1.2,1c-6.5-0.6-21.2-0.1-32.1,1.4l2-1c-9.8,0.8-20.1,2.3-30.7,4.2c-5.2,1.1-10.6,2.1-15.9,3.4
							c-2.7,0.6-5.4,1.2-8,1.9c-2.7,0.7-5.3,1.4-8,2.1c7.8-1.6,6.4,0.3,0.2,2c0,0-0.7-0.2-1.4-0.3c-0.7-0.2-1.4-0.3-1.4-0.3
							c-1.9,1-0.2,0.6,0.9,0.4c0.6-0.1,1-0.1,0.8,0.1c-0.2,0.2-1.1,0.6-3,1.4c-7.9,2.2-5.7,0.1-1.3-1.6c0,0-2.4,0.8-4.8,1.6
							c-1.2,0.4-2.4,0.8-3.3,1.1c-0.9,0.3-1.5,0.5-1.5,0.5c-0.7-0.2,1.5-1.1,1.9-1.7c-1.9,1-6.1,2.1-10.5,3.2
							c-2.2,0.6-4.5,1.3-6.5,2.1c-2,0.8-3.8,1.6-5.1,2.4l-0.7-0.2c-2.6,0.9-5,2-7.2,2.9c-2.2,0.9-4.4,1.8-6.4,2.7
							c-3.9,1.8-7.5,3.5-10.9,5.1c-3.4,1.7-6.6,3.4-10,5.1c-1.7,0.9-3.4,1.8-5.2,2.8c-1.8,1-3.7,2-5.6,3.2c0.1,0.6-1.4,1.7-3.4,3.1
							c-2,1.4-4.6,3.2-6.7,5c-11.4,6.7-24,14.5-36,25.3c-4,4-4.4,4.8-4.3,5c0.1,0.2,0.8-0.1-0.7,1.9c-0.6-0.1-3.8,2.7-6.1,4.8
							c-1.2,1-2.1,1.9-2.4,2.1c-0.3,0.2-0.1-0.3,1.3-2c-1.7,1.8-3.1,3.4-4.5,4.9c-1.3,1.6-2.6,3-3.7,4.4c-1.1,1.4-2.2,2.7-3.3,4.1
							c-1,1.4-2,2.7-3,4c-1,1.4-2,2.8-3,4.3c-1,1.6-2.1,3.2-3.2,5c-2.2,3.6-4.7,7.9-7.4,13.4c1.6-2.1,3.3-4.6,2.8-3.1
							c-0.5,1-1.1,2-1.7,3c-0.6,1-1.1,1.9-1.6,2.7c-1,1.6-1.8,2.6-1.9,2.2l0.4-1.1c-2.7,6.3-5.5,13.2-8,20.4
							c-2.5,7.2-4.5,14.7-5.9,22.3c-1.3,7.5-2.1,15.1-1.9,22c0.2,7,0.9,13.4,2.4,18.8l-0.3-1.2c0,0,0.3,1.4,0.8,3.5
							c0.5,2.1,1.3,4.9,2,7.6c0.9,2.7,1.7,5.5,2.4,7.5c0.8,2,1.3,3.3,1.3,3.3c0.4,1.3,0.6,2.1,0.8,2.6c0.2,0.5,0.2,0.8,0.2,0.8
							c-0.1,0.1-0.5-0.7-0.9-1.6c-0.8-1.7-1.8-3.8-0.9,0c0.5,1.5,1.2,2.8,1.8,4.2c0.6,1.3,1.1,2.7,1.7,3.9c0.6,1.3,1.2,2.5,1.8,3.7
							c0.6,1.2,1.1,2.4,1.7,3.5c2.3,4.6,4.6,8.7,7,12.7c4.8,7.8,10,14.9,17.5,21.8c4.4,6.7,15.1,16.2,28,23.4
							c3.2,1.9,6.5,3.5,9.8,5.2c1.7,0.8,3.4,1.5,5,2.2l1.2,0.6l1.3,0.5c0.8,0.3,1.7,0.7,2.5,1c0.8,0.3,1.6,0.7,2.4,1
							c0.8,0.3,1.6,0.6,2.4,0.9c1.6,0.6,3.1,1.1,4.6,1.7c1.5,0.5,3,1,4.4,1.4c1.4,0.5,2.7,1,4,1.4l-1-1c2.8,0.3,4.4,0.7,5.8,1.3
							c1.4,0.5,2.7,1,4.7,1.5c-0.5-0.6-5.8-1.6-2.4-1.4c1.8,0.3,3.5,0.5,5.4,0.8l-1.9-8.6c-1.7,1.1-3.6,1.8-5.8,2.1
							c-2.1,0.4-4.5,0.3-6.9-0.1c-2.4-0.3-4.9-0.9-7.3-1.7c-2.4-0.8-4.9-1.8-7.4-2.8c-1.3-0.5-2.5-1.1-3.7-1.6
							c-1.2-0.6-2.5-1.1-3.7-1.7c-2.4-1.2-4.8-2.4-7.1-3.8c-4.7-2.6-9.2-5.7-13.5-8.9c-8.6-6.6-16.5-14.1-23.2-22.5
							c-6.8-8.3-12.5-17.5-17-27c-3.4-7.3-4.9-9.1-6.7-11.5c-1.5-2.4-3.5-5.4-5.1-15.7c0,0,0.7,1.3,1.3,2.7c0.6,1.3,1.4,2.6,1.4,2.6
							c-5.2-15.5-6.9-32.6-5.2-49.2c1.6-16.6,6.6-32.6,13.1-47.4c-0.5,1.9-0.3,2.1-1.6,4.9c0.9-1.5,2.1-3.6,3.3-5.9
							c1.3-2.3,2.6-5,3.9-7.4c1.2-2.4,2.5-4.6,3.3-6.3c0.9-1.6,1.4-2.7,1.2-2.9c2.9-4.1,1.2-0.6,3.3-2.9c2.2-2.6,4.5-6.2,6.8-9.4
							c1.1-1.6,2.2-3.1,3.3-4.3c1-1.2,1.9-2.2,2.7-2.7c0.5-0.4-1.1,1.6-1.8,2.6c0.6-0.9,1.8-2.4,3.2-3.9c0.7-0.8,1.4-1.6,2.2-2.4
							c0.8-0.8,1.5-1.6,2.2-2.3c2.8-3,5-5.2,3-4.1c4.6-4.1,8.8-8.1,13.1-11.7c4.2-3.6,8.3-6.9,12.5-9.5c2.2-2.4,6.6-5.3,10.6-7.8
							c2-1.3,3.9-2.4,5.3-3.5c1.4-1,2.5-1.9,2.7-2.5c0.1,1,4.9-1.5,10.6-4.6c5.7-3.1,12.3-6.8,15.6-8.9c-1,0.8,0.5,0.2,2.1-0.3
							c1.6-0.5,3.1-1,1.9,0c4-1.8,7.9-3.7,10.5-5.1c2.7-1.3,4.1-2.2,3.2-2.4c8-2.2,15.5-5.5,22.3-8.3c3.4-1.3,6.7-2.6,9.6-3.5
							c3-0.9,5.7-1.4,8.1-1.4c6.2-2.2,12.5-3.9,18.6-5.7c3.1-0.8,6.2-1.6,9.2-2.4c1.5-0.4,3.1-0.8,4.6-1.1c1.5-0.3,3.1-0.6,4.6-1
							c3-0.6,6.1-1.3,9.1-1.9c3-0.5,6-1,9-1.5c1.5-0.2,3-0.5,4.5-0.7c1.5-0.2,3-0.4,4.5-0.6c3-0.4,6-0.8,8.9-1.1
							c-0.4,0.9-6.9,1.7-13.2,2.4c-6.3,0.9-12.3,1.9-11.7,2.8c2.8-0.5,5.4-1,7.9-1.5c1.3-0.2,2.5-0.5,3.7-0.7
							c1.2-0.2,2.4-0.4,3.6-0.6c4.7-0.7,9.1-1.6,13.5-2c4.4-0.5,8.8-1.1,13.6-1.3c2.4-0.1,4.8-0.3,7.4-0.4c2.6-0.1,5.2,0,8,0
							c5.8,0.2-3.3,0.8-5.3,1.1c2.8-0.1,5.6-0.2,8.4-0.2c1.4,0,2.8-0.1,4.2,0c1.4,0,2.7,0.1,4.1,0.1c2.7,0.1,5.4,0.2,8.1,0.3
							c2.7,0.1,5.3,0.4,8,0.6c2.6,0.2,5.3,0.3,7.9,0.6c2.6,0.3,5.2,0.5,7.7,0.8c1.3,0.1,2.6,0.2,3.8,0.4c1.3,0.2,2.5,0.3,3.8,0.5
							c2.5,0.3,5,0.6,7.5,0.9c-0.1,0.2-2.3,0-4.3-0.2c2,0.3,4.2,0.6,6,0.9c1.7,0.3,2.9,0.4,2.8-0.1c0,0-1-0.1-1.9-0.3
							c-1-0.1-1.9-0.2-1.9-0.2c-1.5-0.5-1.3-0.8,0-0.9c1.2-0.1,3.4,0,5.9,0.2c4.8,0.4,10.6,0.9,11,0.8c-7.1,0.8,19.3,5.1,8.2,5.5
							c2.6,0.4,5.8,0.9,5.4,0.2c3.7,1.2,4.8,1.8,0.9,1.4c13.8,3.3,9.2,1.1,21.5,5c-0.2,0.4-2.7-0.3-4.1-0.2c1.6,0.3,3.2,0.6,4.9,0.9
							c1.7,0.4,3.4,0.8,5.2,1.3c3.7,1.1,7.9,2.3,12.8,4.6c-0.7,0,0.4,0.7-2.7-0.5c2.2,0.9,4.3,1.6,6.3,2.4c2.1,0.8,4.1,1.4,6,2.2
							c3.9,1.5,7.7,2.9,11.5,4.5c3.8,1.6,7.6,3.3,11.6,5.2c3.9,2,8.1,4.2,12.5,6.9c-3.1-0.7-1.6,0.2,0.6,1.7
							c2.2,1.4,5.2,3.3,5.3,4.2c0,0,0.6,0.3,1.5,0.8c0.9,0.5,2.1,1.1,3.3,1.8c2.4,1.4,4.8,2.8,4.8,2.8l-3.3-3c2,1.3,4,2.5,6,3.7
							c2,1.2,3.9,2.2,5.8,3.4c3.7,2.4,7.3,4.6,10.5,7.3c0,0-1.5-1-3.1-1.9c-1.6-0.9-3.1-1.8-3.1-1.8s0.9,0.6,2.3,1.6
							c0.7,0.5,1.5,1,2.4,1.6c0.9,0.6,1.8,1.3,2.7,2c3.7,2.7,7.3,5.4,7.3,5.4l-7.8-6.7c8.3,5.3,0.3-2.2,10.3,6
							c-1.1-0.8,0.8,0.8,3.4,3c1.3,1.1,2.7,2.4,4.1,3.7c1.3,1.2,2.6,2.5,3.3,3.5l0,0c1.9,1.4,3.9,2.9,6.1,4.6
							c1.1,0.9,2.2,1.8,3.3,2.8c1.1,1.1,2.3,2.2,3.5,3.6c1,1.6-2.2,0.2-1.6,1.2c2.2,1.2,6.2,5.1,10.3,9.3c4.1,4.1,8.1,8.6,10.6,10.4
							c-1.6-1.3-2.2-0.9-1.9-0.3c0,0,0.9,0.6,1.7,1.2c0.8,0.6,1.7,1.2,1.7,1.2c2.6,3.7,2.9,4.3,2,4.1c4.1,5.3,3.8,4.2,3.7,3.4
							c-0.2-0.8-0.1-1.4,4.4,5.2c-0.8-1-0.5-0.4-2.3-2.4c4.7,6.6,9.3,12.8,13.4,19.2c0.5,0.8,1,1.6,1.6,2.4c0.5,0.8,1,1.6,1.5,2.4
							c1,1.6,1.9,3.2,2.9,4.8c0.9,1.6,1.8,3.3,2.6,4.9l1.3,2.5l1.1,2.5c0.2,2.3-1.2-0.6-2.7-3.3c-1.5-2.7-3-5.4-2.4-2.9
							c5.1,9.2,10,19.1,13.9,29.2c3.9,10.2,6.9,20.6,8.1,30.8c0,0-0.1-1-0.2-1.9c-0.1-1-0.2-1.9-0.2-1.9c1.3,1.2,1.7,5.1,1.8,9.9
							c0.1,4.8-0.1,10.5,0.5,15.7c-0.2-2.5-1.2-3.3-1-2.6c0,7-0.2,14.1-1,22.1c-0.9,8-2.5,16.8-6.1,26.8c0,0,0-0.2,0.1-0.4
							c0.1-0.2,0.1-0.6,0.2-0.9c0.1-0.7,0.2-1.3,0.2-1.3c-1.6,3.8-3.8,8.7-6.4,13.6c-0.6,1.2-1.3,2.4-2,3.6c-0.7,1.2-1.4,2.3-2,3.5
							c-1.4,2.2-2.8,4.3-4.1,6.1c-1,2.5-4.2,6.5-1.7,4.5c-9.4,10.2-18.4,19.5-28.1,27.9c-1.2,1.1-2.4,2.1-3.7,3.1
							c-1.2,1-2.5,2-3.7,3c-1.3,0.9-2.6,1.8-3.8,2.8c-1.3,0.9-2.5,1.8-3.9,2.6c-2.6,1.7-5.3,3.3-8.1,4.7c-1.4,0.7-2.7,1.4-4.2,2
							c-1.4,0.6-2.8,1.2-4.3,1.7c2.6-1.3,6-3.6,3.9-2.5c0,0-1.1,0.6-2.9,1.5c-0.9,0.5-1.9,1-2.9,1.6c-1.1,0.6-2.3,1.1-3.4,1.7
							c-1.2,0.6-2.3,1.2-3.4,1.7c-1.1,0.5-2.1,1-3,1.4c-1.8,0.8-3,1.3-3,1.3c1.9,0.2,2.7-0.5,7.1-1.6c-2.2,1.6-7.5,4.3-12.4,6.2
							c8.6-4-0.6-1.3-4.6-0.4c0.7,0-0.5,0.8,0,1c-5.4,1-5.7,1.6-6.5,2.4c-0.4,0.4-0.9,0.9-2.2,1.4c-1.3,0.6-3.4,1.3-7.1,2l0.6-0.7
							c-1.3,0.4-2.6,0.9-3.9,1.4c-1.3,0.5-2.6,0.9-3.9,1.3c-1.3,0.4-2.6,0.9-4,1.3c-1.4,0.4-2.8,0.7-4.3,1c-2.7-0.5,5.7-1.8,5.9-2.8
							c-8.2,2.1-15.9,5.8-23.7,6.1c1.7-0.5,3.9-1,6-1.5c2.2-0.5,4.3-1.1,6-1.6c-2.1,0.1-3.8,0.3-5.1,0.4c-1.4,0.1-2.5,0.2-3.5,0.4
							c-2,0.3-3.8,0.7-6.9,1.1l0.6-0.1c0,0-0.9,0.1-2.2,0.3c-1.3,0.2-3.1,0.4-4.9,0.6c-1.8,0.2-3.6,0.4-4.9,0.6
							c-1.3,0.1-2.2,0.2-2.2,0.2s0.9,0,1.8-0.1c0.9-0.1,1.8-0.1,1.8-0.1c-10.1,4.4-21.4,3.5-35.5,6.8c13.7-3.2,2.2-1.2,3.1-2.5
							c-3.7,0-9.3,0.2-7.7-0.3c-3.3,0.8-6.2,0.9-9.3,1c-3.2,0.2-6.7,0.4-11.4,1.5c-0.5-0.4-7.2,0.5-5.8-0.6
							c-8.8,0.9,2.1,0.5,1.4,1.1c-13.5,2.4-32,0.5-51.4,2.8c-4.2,0.3-7.6,0.6-10.5,0.9c-2.9,0.3-5.4,0.6-7.8,0.9
							c-4.8,0.5-9.5,1.1-17.4,1.3c-5.3-0.6,4.3-1.4,4.3-1.4c-4.3-0.3-8-0.4-11.7-0.5c-3.7,0-7.3,0-11.3,0.2c1.6-0.3,0-0.6-2.5-1.1
							c-6.4-0.1-4.4,1.3-12.8,0.4c1.5-0.4,3.4-1,6.5-1.3c-7.6,0.1-15.1,0.5-23,0.4c-2-0.8,4.8-0.7,7.6-1.1c-4.4,0-10.1-0.2-15.1-0.2
							c-5,0-9.1,0-10.5,0.4c0,0,1.4,0.2,2.8,0.4c1.4,0.2,2.8,0.4,2.8,0.4c-3.2-0.2-1.6-1,0.8-1.1c7.6-0.3,10.9,1,11.3,1.4l-5.6-0.1
							c5.6,2.6,22.5,0.8,33.8,1.2l-4.8,1.5c0,0,2.9-0.2,5.8-0.5c2.9-0.3,5.8-0.5,5.8-0.5c2.4,0.5,4.1,1.5-1.5,1.6
							c8.1,1,7.2-0.5,14.1,0.6c0.8,0.2,0.4,0.2-0.3,0.3c0,0,2-0.1,4-0.2c2-0.1,4-0.2,4-0.2c-1.6,0.3,1.3,1.2-3.6,0.9
							c14.2,1.1,22.9-1.4,28.3-0.2l-1.2,0.1c19.7-1,1.9-1.2,16.6-3.1l10.1,2.6l1.9-1.3c2-0.1,6.1-0.2,5.3,0.4c7.5-1.2-1.3-0.5,3-1.5
							c9.8,0.6,26.9-2.3,29.2-0.6c3.4-1.2-9.4,0,1-1.4c1.6,0.9,4.6,0.6,8.3,0c3.7-0.6,8.2-1.4,12.7-1.3c-2.6,1.3-11.1,1.6-2.1,1.7
							c5.2-2.3,17.4-1.4,24.9-2.8c0.2-1.5,16.2-2.7,28.6-5.6c-0.4,0.3,5.6-0.6,13-2c7.4-1.5,16.3-3.6,22.1-5l-0.3,0.3
							c0.9-1,4.3-2.4,8.5-3.9c2.1-0.8,4.4-1.7,6.6-2.5c2.3-0.9,4.5-1.8,6.6-2.7c0,0.9-1.4,1.8-5.8,4c0,0,2-0.8,3.9-1.5
							c1-0.4,2-0.8,2.7-1c0.7-0.3,1.2-0.5,1.2-0.5c0.8-0.6,1.8-1.2,3.2-2c1.4-0.7,3.2-1.6,5.6-2.9l-1.5,1.9c5.1-2.4,10-5.1,15.2-8.3
							c1.3-0.8,2.6-1.6,3.9-2.4c1.3-0.8,2.7-1.7,4.1-2.6c2.8-1.7,5.6-3.6,8.7-5.5c0-0.6-2.7,0.4-4,0.4c-0.6,0-0.9-0.2-0.2-1
							c0.3-0.4,0.9-0.9,1.7-1.7c0.4-0.4,0.9-0.8,1.5-1.2c0.6-0.5,1.2-1,1.9-1.6c0.8,0.1,1.8,0.5-1.3,3.1c1-0.8,3.4-3.1,5.7-4.5
							l-4.3,4.4c2.7-1.8,3.3-2.5,3.7-3.1c0.4-0.6,0.7-1.1,2.7-2.7c0.4,0.7,3.3-2,3.2-1c-0.5,0.5-1.4,1.1-2.4,1.8
							c-1,0.7-2,1.5-2.7,2.2c1.2-0.8,2.4-1.8,3.7-2.7c1.2-0.9,2.5-1.8,3.6-2.6c2.3-1.7,4.2-3.1,5.3-3.7c-0.3,0-0.5-0.2-0.2-0.8
							c0.1-0.3,0.4-0.7,0.8-1.2c0.4-0.5,1-1.1,1.7-1.9c2-2,3.2-3.1,3.9-3.7c0.7-0.7,1.1-0.8,1.3-0.9c0.5-0.1,0.6,0.3,3-2
							c0.4-0.6,1-1.3,1.6-2.2c0.7-0.8,1.4-1.8,2-2.6c1.3-1.7,2.4-3.2,2-3.7c2-2.6,2.8-2.8,3.8-3.6c0.4-0.6,0.9-1.4,1.6-2.4
							c0.6-1,1.3-2.1,2-3.2c0.7-1.2,1.5-2.4,2.2-3.6c0.7-1.2,1.4-2.5,2-3.6c0.6-1.2,1.2-2.2,1.7-3.2c0.4-1,0.8-1.7,0.9-2.3
							c0.4-1.1,0.2-1.3-0.8,0l-0.7,1.3c0.1-0.3,0.2-0.6,0.4-0.9c0,0,0,0,0,0l0,0c3.8-8.7,7.6-17.8,10.1-27.3
							c0.3-1.2,0.6-2.4,0.9-3.6c0.3-1.2,0.6-2.4,0.8-3.6c0.4-2.4,0.9-4.8,1.2-7.2c0.4-2.4,0.5-4.8,0.8-7.2c0.1-2.4,0.2-4.8,0.2-7.1
							l0.4,0c-0.1-5.6-0.5-11.9-1.2-17.7c-0.7-5.8-1.8-11.1-3-15c-0.3-1.6-0.6-3.6-0.6-4.9c-0.1-1.4,0-2.2,0.4-1.6
							c-1.1-4.2-2-6.4-2.9-9.1c-0.4-1.4-0.8-2.9-1.4-4.7c-0.6-1.9-1.2-4.2-2.1-7.1c3.5,7.9-0.3-3,3.3,8.2c-0.8-2.7-1.4-4.9-2-6.8
							c-0.6-1.9-1.2-3.6-1.8-5.2c-1.2-3.3-2.7-6.7-5.7-11.9c2.7,3.3-2.4-8.2-5.3-12.7c0,0,0.8,1.8,1.5,3.6c0.4,0.9,0.8,1.8,1,2.5
							c0.3,0.7,0.4,1.2,0.4,1.2c-2.8-5.3-5.2-9.9-7.9-14.5l2.6,1.8c-5-10.4-11.5-18.6-17.7-26c-6.3-7.4-12.4-13.8-17.3-21.2
							c-2.4-1.9-0.4,0.5,1.6,3c2,2.5,4,5.1,1.8,3.4c-6.7-8-13.1-17.1-15.6-19.3c-1.2-1.3-2.3-2.4-3.3-3.4c-1-1-1.9-1.7-2.8-2.4
							c-1.7-1.3-3.1-2.3-4.6-3.3c-1.5-0.9-2.9-1.9-4.7-3.3c-1.8-1.3-4-3-6.8-5.5c0.6,0.8,1,1.7,0.2,1.6c-0.4-0.1-1.1-0.4-2.3-1.1
							c-1.2-0.7-2.8-1.9-5.1-3.5c-8.2-6.4-9-9.4-3.5-5.7c2,1.5,2.9,2.3,2.7,2.4c2.8,1.9,6.5,4.5,3.5,1.5l-1.4-0.5
							c-1.9-1.8-5.8-4.9-8.8-7.2c-3.1-2.3-5.2-4.1-3.6-3.4c-6.8-4.2-3.2-1.3,1.4,2.3c-2.7-2.1-5.1-3.9-7.4-5.5
							c-2.3-1.6-4.6-3-6.8-4.5c-2.3-1.4-4.5-2.9-6.9-4.4c-2.5-1.5-5.1-3.1-8-4.9c1.8,1.3,3.2,2.9,1.4,1.7c-4.3-2.8-7-4.2-8.8-5.1
							c-1.8-0.9-2.7-1.2-3.4-1.4c-0.7-0.2-1.2-0.3-2.3-0.7c-0.6-0.2-1.3-0.5-2.2-0.9c-1-0.4-2.2-1-3.7-1.7c-6.7-4.1,3.3-0.4-9.4-5.8
							c-7.5-3.9-1.1-1.9,2.1-0.8c-3-1.1-5.8-2.3-8.5-3.5c-2.7-1.2-5.2-2.4-7.6-3.5c-2.4-1.1-4.6-2.2-6.6-3.1c-1-0.5-2-0.9-2.9-1.4
							c-0.9-0.4-1.8-0.8-2.7-1.1c0,0,1.6,0.5,3.2,1c1.6,0.5,3.2,1.1,3.2,1.1c-3.8-1.3-6.9-2.3-10-3.5l3.3,2.2
							c-3.6-1.5-6.8-2.6-6.6-2.9c-4-0.7,2.4,2.5-5.4,0.7c-2.4-1-6.2-2.1-9.6-3.1c-0.8-0.3-1.7-0.5-2.4-0.8c-0.8-0.2-1.5-0.4-2.1-0.7
							c-1.3-0.4-2.2-0.9-2.5-1.3c3.9,1.2,5.8,1.7,6.6,1.8c0.8,0.1,0.6-0.1,0.3-0.4c-0.6-0.6-1.5-1.4,5.2,0.6
							c-1.3-0.3-2.7-0.7-4.3-1.2c-0.8-0.3-1.6-0.5-2.5-0.8c-0.9-0.3-1.8-0.5-2.7-0.8c-0.5-0.3,0.6-0.1,1.7,0.1
							c-14.9-5.2-7.3-0.7-23.2-4.4c1.1-0.1,0.2-0.7-1.2-1.2c-1.4-0.6-3.5-1.1-4.8-1.3c6.5,1.3,2.8,1.7-3.2,1.2
							c-2.5-0.6-4.5-1-6.1-1.3c-1.6-0.3-2.9-0.4-4-0.5c-2.2-0.2-3.8-0.2-6.5-0.6l6.1,1.2c-1.1,0.2-2.9,0.1-5.4-0.2
							c-1.2-0.2-2.6-0.3-4.1-0.5c-1.5-0.2-3.2-0.3-5-0.5c-0.5-0.6,6.6,0.4,4-0.2c-4.1,0.2-8.5-0.7-13.4-1.6c-2.4-0.4-5-0.8-7.6-1.1
							c-1.3-0.1-2.7-0.3-4-0.4c-0.7,0-1.4-0.1-2.1-0.1c-0.7,0-1.4,0-2.1,0c-5.2-0.7-0.4-1.4-5-1.8c-3.2,0.1-5.6,0-7.7,0
							c-2.1,0-3.8-0.2-5.6-0.3c-1.8-0.1-3.5-0.3-5.7-0.3c-2.2-0.1-4.7,0.1-8,0.4c3.9,0.8,4.5,0.6-4.8,1.8c0,0,5.4-0.4,10.9-0.7
							c5.4-0.2,10.9-0.4,10.9-0.4s-3.5,0.3-7,0.7c-1.7,0.2-3.5,0.3-4.8,0.5c-1.3,0.2-2.2,0.3-2.2,0.3c3.3-0.1,6.7-0.3,9.9-0.4
							c3.1-0.1,5.9-0.3,7.9-0.2c-6.7,0.8-6,0.5-2.8,1.3c-2.2-0.4-4.5-0.5-6.7-0.5c-2.2,0-4.5,0.1-6.8,0.3c-2.3,0.2-4.6,0.5-7.1,0.6
							c-1.2,0.1-2.4,0.1-3.7,0.1c-1.2,0-2.5,0.1-3.8,0l0.2-2.4c-3.9,0-7.6,0.2-11.3,0.6c-3.6,0.5-7.2,1-10.9,1.6
							c-1.9,0.3-3.8,0.6-5.7,1c-1.9,0.4-3.9,0.7-6,1.1c-4.2,0.7-8.6,1.6-13.7,2.3l6.5-0.8c-1.3,0.7-4.3,1.3-7.9,1.9
							c-0.9,0.2-1.8,0.3-2.7,0.5c-0.9,0.2-1.9,0.4-2.8,0.6c-1.8,0.4-3.6,0.8-5.2,1.3c0.4-0.9-3.7-0.3-6.5-0.1
							c0.2,0.2-3.4,1.2-7.2,2.3c-1.9,0.6-3.9,1.1-5.5,1.7c-1.6,0.6-2.7,1.3-3.1,1.8l-9,1.6c-3.9,1.1-6.9,2.3-9.5,3.3
							c-1.3,0.5-2.4,1-3.6,1.5c-1.1,0.5-2.1,1.1-3.2,1.6c-2,1.1-4.1,2.1-6.5,3.3c-1.2,0.6-2.5,1.1-4,1.8c-1.5,0.7-3.1,1.3-4.9,2.1
							c2-1.3,1.3-1.4,1.3-1.7c0-0.2,0.2-0.4,0.9-0.9c0.8-0.5,2.1-1.3,4.5-2.3c-2.5,0.9-4.8,1.9-6.5,2.6c-1.7,0.7-2.8,1.3-2.7,1.6
							c-1.5,0.4-4.8,1.9-8.2,3.8c-3.4,1.8-7,3.7-9.4,4.4c-1.8,1.3-2.2,2.3-7.4,4.9c-0.6,0.2-0.2-0.4-0.2-0.4c0.1,0.3-7.9,4.8-3,3.1
							c-7.7,2.7-17.5,8.3-26.6,14.6c-9.2,6.2-17.6,12.9-23.6,16.6c-8.7,7.5-18.4,17.5-25.1,25.5c0.3-0.7-0.3-0.3,1.1-1.7
							c-2.5,2.6-4,4.5-4.9,5.9c-1,1.5-1.5,2.6-2,3.7c-0.5,1.2-1.1,2.3-2.1,4c-0.5,0.9-1.2,1.8-2,3c-0.8,1.2-1.8,2.6-3,4.2
							c-1.4,1.6-1.8,1.9-1.8,1.5c0.1-0.4,0.6-1.4,1.3-2.5c1.4-2.2,3-4.6,1.4-2.6c-0.9,0.1-2,1.2-3.3,2.9c-0.6,0.9-1.3,1.9-2,3.1
							c-0.3,0.6-0.7,1.2-1.1,1.8c-0.3,0.6-0.7,1.3-1.1,2c-2.9,5.4-5.8,11.9-8.7,16.8l0.9-2.5c-1.1,1.9-2.1,4-3,6.4
							c-0.9,2.4-1.7,5.1-2.5,7.9c-1.5,5.7-2.8,12.1-4.2,18.9c0,0-0.1-0.7-0.4-0.2c-0.2,4.8-0.7,11.7-0.7,19
							c-0.1,7.3,0.5,15.1,1.4,21.6c-1.5-4-1-6-1.9-3.3c0.4,3,0.7,2.5,1.2,2.8c0.2,0.1,0.5,0.4,0.8,1.5c0.1,0.5,0.3,1.2,0.5,2.1
							c0.2,0.9,0.4,2.1,0.7,3.5c0,1,0,2.2,0.2,3.6c0.1,1.4,0.3,2.8,0.4,4.2c0.1,1.4,0.2,2.7,0.3,3.7c0,1,0,1.8-0.2,2.2
							c0,0-0.2-0.7-0.4-1.7c-0.3-1-0.6-2.4-0.9-3.8c-0.3-1.4-0.6-2.8-0.8-3.8c-0.2-1-0.3-1.7-0.3-1.7c-0.1,1.5,0.1,3.1,0.3,4.8
							c0.1,0.9,0.3,1.7,0.5,2.6c0.2,0.9,0.5,1.8,0.7,2.7c0.5,1.8,1.1,3.5,1.7,5.2c0.6,1.7,1.1,3.3,1.5,4.7l-0.8-0.5
							c0.7,2.1,1.4,3.8,2,5.4c0.6,1.6,1.3,2.9,1.9,4.2c1.1,2.5,2.3,4.4,3.4,6.4c2.3,3.9,4.6,8,9.5,15.9l-0.6-1.9
							c3.3,3.9,4.4,5.6,5.4,7.5c0.3,0.5,0.5,0.9,0.8,1.4c0.3,0.5,0.6,1,1.1,1.6c0.9,1.1,1.9,2.6,3.8,4.3l0.8,3.3
							c2.3,2.5,6.6,6.5,11.6,10.7c5,4.2,10.8,8.3,15.7,11.6c-1.6-0.7-3.4-1.8-5.5-3.1c-2.1-1.2-4.2-2.8-6.4-4.4
							c-4.3-3.3-8.7-7-11.9-10c0.6,0.6,1.2,1.3,2,2.1c0.8,0.8,1.6,1.6,2.5,2.5c1.8,1.8,3.9,3.5,5.8,5.3c2,1.7,4.1,3.2,5.7,4.4
							c1.7,1.2,3.1,2,3.9,2.4c-1.1-0.7-2.4-1.5-3.7-2.4c-1.2-0.9-2.4-1.8-3.4-2.8c1.8,1,3.6,2.3,5.6,3.5c1,0.6,2,1.3,3.1,1.9
							c1,0.7,2.2,1.3,3.3,2c4.5,2.8,9.7,5.7,15.5,8.7c-0.9,0.4,0.6,1.6,3.4,3.3c1.4,0.8,3.2,1.7,5.2,2.6c2,0.9,4.3,1.8,6.7,2.7
							c4.8,1.8,10.3,3.3,15.5,3.6c2.6,0.2,5.1,0.1,7.3-0.2c2.2-0.3,4.1-0.9,5.5-1.2c0.7-0.4,1.3-0.8,1.9-1.2l10.7-6.6l-12.4-1.3
							c-10.7-1.1-21.2-4.2-31.4-8.7c-5.1-2.4-10.2-5-15.1-8.1c-2.5-1.5-4.9-3.2-7.5-4.9c-1.2-0.9-2.4-1.8-3.7-2.7
							c-0.6-0.5-1.2-0.9-1.9-1.4c-0.6-0.5-1.2-1-1.8-1.5c5.7,7.6-6-4.6-6.2-1.9c-4.7-3.9-6.2-5.7-6.5-6.2c0,0-0.8-0.9-1.9-2.2
							c-1.1-1.4-2.5-3.2-3.9-5c-1.3-1.9-2.6-3.8-3.6-5.2c-0.9-1.5-1.5-2.4-1.5-2.4c-1-2,0-0.9,1.2,0.6c0.3,0.4,0.6,0.8,0.9,1.1
							c0.3,0.4,0.7,0.7,0.9,1c0.6,0.6,1,0.9,1,0.7c-2.1-2.5-3.1-4.3-3.7-5.3c-0.6-1.1-0.9-1.6-1-2c-0.2-0.8,0-1.3-2.1-5.1
							c0.2,2-3.6-3.1-6.6-9.9c0,0,0.2,0.6,0.6,1.5c0.4,0.9,0.8,2.2,1.3,3.4c1.1,2.4,2.1,4.9,2.1,4.9c-1.3-1.9-2.3-3.6-3.2-5.1
							c-0.9-1.5-1.5-2.9-2-4.1c-1.1-2.4-1.7-4.4-2.2-6.3c-0.3-1-0.6-1.9-0.9-3c-0.3-1-0.6-2.2-1-3.4c-0.2-0.6-0.4-1.3-0.7-2
							c-0.2-0.7-0.5-1.5-0.8-2.3c-0.3-0.8-0.6-1.7-1-2.6c-0.2-0.5-0.4-1-0.6-1.5c-0.2-0.5-0.4-1-0.5-1.6c0,0,0.1,0.3,0.4,0.8
							c0.2,0.5,0.5,1.2,0.8,1.8c0.6,1.3,1.3,2.6,1.3,2.6c-1.8-4.4-4.1-12.8-5.6-21.3c-0.7-4.3-1.3-8.6-1.7-12.4
							c-0.3-1.9-0.4-3.7-0.6-5.3c-0.2-1.6-0.5-3-0.6-4.2c0.4-1.7,1.1-3.9,1.1,0.3c0.2-2.8,0.2-5.7,0.5-8.7c0.1-1.5,0.2-3,0.4-4.5
							c0.2-1.5,0.4-3,0.5-4.5c0.1-1.5,0.5-3,0.7-4.5c0.3-1.5,0.5-3,0.8-4.5c0.3-1.5,0.6-3,1-4.5c0.4-1.5,0.8-2.9,1.1-4.4
							c3.2-11.6,8.1-22.2,13.3-29.5l-0.4,1.8c1-1.9,1.7-3.6,2.6-5.4c0.5-0.9,1-1.8,1.6-2.7c0.6-0.9,1.4-1.9,2.2-2.9
							c0,0.4-0.5,1.8,0.7,0.2c0.5-1,2-3.4,3.8-6.2c0.9-1.3,1.9-2.8,3-4.1c1.1-1.3,2.1-2.6,3.1-3.6c0,0-0.7,1-1.3,2.1
							c-0.6,1-1.3,2.1-1.3,2.1c7.4-8.4,13.1-14.7,18.8-20.7c5.6-5.9,11.2-11.5,18.7-17.3c0.3,0.4,1.4,0,3-0.8
							c1.7-0.8,3.8-2.1,6.2-3.4c4.8-2.8,10.5-6.2,14.4-8.3l-0.1,0.4c5.7-3.3,10.9-6.3,16-9.1c2.6-1.4,5.1-2.7,7.5-4
							c1.2-0.7,2.4-1.3,3.7-2c1.2-0.6,2.5-1.2,3.7-1.8c9.7-5,19.5-9.5,31-13.8c7.5-1.6,19.8-5.2,33.5-8.3c3.4-0.7,6.9-1.5,10.4-2.2
							c3.5-0.6,7-1.3,10.5-1.9c3.5-0.5,6.9-1,10.2-1.5c3.3-0.4,6.5-0.7,9.6-0.9c-3.7,0.2,0.4-1.5,4.7-2.1c2.9-0.1,6.8-0.8,9.9-1.2
							c3.1-0.4,5.4-0.5,5,0.3l-2,0.1c2.2,0.7,6.2,0.7,10.8,0.6c2.3,0,4.8-0.1,7.2-0.2c1.2,0,2.5-0.1,3.7-0.1c1.2,0,2.4,0,3.5,0
							l1.5-2.1c12,1.5,27.7,1.9,42.1,3.2c14.3,1.3,27.3,3.3,33.4,6c2.9,0.3,6.1,0.9,9.3,1.5c1.6,0.3,3.2,0.6,4.7,0.9
							c1.5,0.3,3,0.6,4.5,0.8l-0.6,1c3.9,1.1,7.3,2,10.4,3c3.2,1,6.2,1.8,9.2,2.9c3.1,1,6.3,2.1,9.9,3.3c3.6,1.3,7.5,2.7,12.2,4.4
							c0,0-0.3,0-0.6-0.1c-0.4-0.1-0.9-0.2-1.4-0.2c-1-0.2-2-0.3-2-0.3c10.4,4.1,14.4,2.1,23.9,6.3c0,0,0.5,0.7,1.1,1.4
							c0.5,0.7,1,1.4,1,1.4c2.2,1.1,4.4,2.1,6.6,3.2c1.1,0.6,2.2,1.1,3.3,1.7l3.2,1.8l6.4,3.6l6.3,3.8c4.2,2.4,8.3,5.1,12.5,7.6
							c4.2,2.5,8.3,5.1,12.5,7.5c-0.4,0-1.2,0.1-3.8-1.6c3.8,2.6,10.8,8,16.5,12.5c5.7,4.5,10.3,8,9.7,6.1c-0.4,0.7,3.4,3.9,8.2,8
							c4.8,4.1,10.6,9.1,14.4,12.7l-1.9-0.4c1.8,1.3,3.2,2.4,4.3,3.3c1.2,0.9,2.2,1.7,3.2,2.6c2,1.9,4.3,4.1,8.4,8.8
							c0.9,1.2,1.1,1.8,0.8,1.8c-0.3-0.1-1-0.8-2.2-2.4c1.5,2,2.5,3.3,3.4,4.4c0.9,1,1.6,1.7,2.4,2.5c1.5,1.6,3.3,3.3,6.4,8.4
							l-3.1-3.2c2.9,4.1,4.3,6,5.4,7.4c1.1,1.4,2.1,2.2,3.9,4.3c0.9,1.3,2.1,3,3.1,4.8c1,1.9,2.1,3.8,3,5.7c0.9,1.9,1.7,3.7,2.2,5.1
							c0.5,1.4,0.8,2.5,0.7,3c1.2,0.9,4.4,5.5,6.5,11.1c0,0.9-1.1-1-1.6-2c3.1,7.8,5.4,13.7,7.4,18.9c0.5,1.3,0.9,2.6,1.4,3.9
							c0.4,1.3,0.8,2.5,1.2,3.8c0.8,2.6,1.3,5.2,1.7,8.1c-0.3,0.3-0.3,1.1-0.2,2c-2.7-13.1-6.5-23.2-6-22.3
							c-0.5,0.2,0.2,2.8,0.3,4.5c0.1,1.7,0,2.3-2-1.5c0.9,2,1.8,4.3,2.9,6.8c0.9,2.6,2.1,5.3,2.9,8.3c1.9,5.8,3.2,12,3.7,17.2
							c0,0.5-0.1,1-0.2,1.4l-0.2-1.1c0.2,2.4,0.6,4.5,0.9,6.5c0.1,1.7,0.1,3,0.1,4.4c0,1.3,0.1,2.7,0.1,4.3
							c-0.4,0.6-0.4,3.7-0.5,7.2c0,3.5-0.2,7.6-0.5,10.2c1.2-0.3,0.2,6.6,1.9,0.2c-0.2,0.8,0-1,0.2-4.6c0-0.8,0-1.7,0-2.3
							c0,0.1,0.1,0.2,0.1,0.4c0.1-3.5,0.2-8.1-0.1-13.3c0.8,4.2,1.3,8.7,0.4,14.6c0.6,2.8,1,5.9,1.2,7.6c-1.2,3.6-2.6,8.8-4.2,13.3
							c-1.5,4.4-3.2,8.1-4,8.8c-1.1,3.8-2.6,8-4.4,12c-1.8,4.1-4,8.1-6.3,11.8c-4.5,7.5-9.5,14-12.2,18.5c-3,3.6-4.2,3.4-5.7,4.4
							c1.8-2,4-4.3,4.8-5.6c-3,3.6-7.8,8.5-12.4,12.4c-4.6,3.9-8.4,7.4-8.9,8.6c-10.1,6.3,4.6-4.9-8.5,4.6l1.5-1.6
							c-6.9,3.9-13.1,7.5-19.2,10.8c-3,1.8-6,3.3-8.9,4.8c-1.5,0.8-3,1.6-4.4,2.4c-1.5,0.8-3,1.4-4.5,2.2
							c-12.1,5.8-25.3,11-43.1,13.5c2.5-0.3,3.7-0.6,4.2-0.5c-2.5,0.6-5,1-7.5,1.5c-2.5,0.5-5,1-7.6,1.5c-2.5,0.4-5.1,0.9-7.6,1.3
							l-3.8,0.7l-3.8,0.6c-2.6,0.4-5.1,0.8-7.7,1.2c-2.6,0.4-5.2,0.7-7.8,1.1c-5.2,0.8-10.4,1.4-15.6,2c-5.2,0.6-10.4,1.1-15.6,1.6
							c-5.2,0.4-10.4,0.9-15.6,1.2c-2.6,0.2-5.2,0.3-7.7,0.5c-2.6,0.1-5.1,0.2-7.7,0.3c-5.1,0.2-10.2,0.3-15.3,0.3
							c-5.7,0.1-8.9,0.3-11.5,0.7c-2.6,0.4-4.6,0.9-8.1,1.3l-2.5-1.1c0,0-3,0.4-6,0.9c-3,0.4-6,0.8-6,0.8c-4.2,0.3-8.2,0.4-12.1,0.2
							c-3.9-0.2-7.7-0.5-11.6-0.8c-7.9-0.7-16.3-1.3-27.1-0.7l2.7,0.9c-7.7-0.4-24.4-0.7-23.1-1.5c-0.8,0.1-2.6,0.7-5.6,0l-0.2-0.6
							c0,0-1.2,0-3,0c-1.8,0-4.1,0-6.5-0.1c-4.7-0.2-9.5-0.3-9.5-0.3c-7.3-1-6.6-1.6-6.8-2.2c-0.1-0.3-0.4-0.6-2-1
							c-1.6-0.4-4.5-0.8-9.8-1.6c-2-0.2-4.4-0.3-6.8-0.5c-2.4-0.2-4.9-0.3-7.1-0.4c-4.3-0.1-7.3-0.1-5.8,0.3
							c3.2,0.5,8.1,1.6,8.2,2.3l-7.3-0.7c-1.6,1.6-7.5,2.7,10.2,6.6l12.6,0.5c0,0,1,0.4,2,0.7c1,0.3,2,0.7,2,0.7s-0.7-0.1-1.6-0.2
							c-1-0.1-2.3-0.2-3.6-0.4c-2.6-0.3-5.2-0.6-5.2-0.6c2.9,0.8,5.4,1.1,7.6,1.3c2.2,0.1,4.3,0,6.4,0c1,0.6,2.7,1.1,5.1,1.6
							c0,0,0.8,0,1.9-0.1c1.2-0.1,2.7-0.1,4.3-0.2c3.1-0.2,6.2-0.3,6.2-0.3c1.4,0.8-5.6,1,2.6,2.1c5.8-0.4-5.4-2,4.2-1.9
							c3,0.6,4,1.1,5.2,1.4c1.2,0.3,2.5,0.4,6,0.2c1,0.5-0.5,0.8-3.3,0.8c3.2-0.1,7.3,0,11.1,0.1c3.8,0.1,7.2,0,8.8-0.4
							c1.6,0.3,3.7,0.5,5.9,0.6c2.3,0.1,4.7,0.1,6.9,0.2c4.4,0.1,8,0.3,7.7,1.2c2-0.4,11.1-1.2,16.8-1.4c-5.3,1.1,0.1,1.1,6.5,1.1
							c6.4-0.1,13.7-0.1,12.3,1c1.9-0.5,4.7-0.9,7.9-1.2c3.2-0.3,6.9-0.5,10.8-0.7c7.8-0.4,16.3-0.9,23.1-1.8
							c-0.8,0.2-2.3,0.6-3.5,0.6c7.7-0.3,10,0.1,15,0.2c0.9-1.6,12.9-2.8,19.3-4.3c9.6,0.7-5.6,2.3-2.5,3.5
							c-0.3-0.6,3.8-1.3,7.6-1.9c3.7-0.6,7.2-1.2,5.5-1.6c7.3,0.3,6.3-0.1,10.2,0.7c0.5-1,2.2-1.3,4.5-1.6c1.1-0.1,2.4-0.2,3.8-0.4
							c1.4-0.2,2.8-0.5,4.3-1c5.3-0.2,6,0.2,6.9,0.3c0.8,0.2,1.8,0.1,7.5-1.1C466.9,448.5,456.8,450.8,456.8,450.8z M632.7,275.4
							C632.7,275.4,632.7,275.4,632.7,275.4c0.5,2.4,0.6,4.4,0.8,5.7c-0.1-0.6-0.2-1.3-0.3-2.2C633.1,278,632.9,276.8,632.7,275.4z
							 M627.8,252.6c0.4,1.4,0.8,2.9,1.2,4.6c0.4,1.7,0.8,3.4,1.2,5.3c-0.2,0.9-0.8,0.1-1.3-2.2c0.3,0.6,0.1-0.5-0.1-2.1
							C628.5,256.5,628.1,254.3,627.8,252.6z M626.7,301.3c-0.1-3.5,0-4.7,0.3-5.2c0,1.7,0.1,3.6,0.1,6.2c0,0.1,0.1,0.3,0.1,0.4
							C627,302.4,626.8,302,626.7,301.3z"/>
						<path class="st1" d="M627.9,307.8c0,0.5,0,0.8,0,1.5c0.2-0.7,0.3-1.4,0.4-2.1c-0.1-0.4-0.2-0.9-0.3-1.3
							C628,306.5,628,307.2,627.9,307.8z"/>
						<path class="st1" d="M625.5,355.9l0.2-0.4c-0.2,0.3-0.4,0.7-0.6,0.8C625.3,356.1,625.3,356.1,625.5,355.9z"/>
						<polygon class="st1" points="388.5,60.5 388.5,60.7 390.5,60.9 						"/>
						<path class="st1" d="M527.1,431c-0.3,0-0.7,0-1.7,0.3C525.6,431.3,526.3,431.2,527.1,431z"/>
						<path class="st1" d="M474.5,444.3c0,0-1.9,0.2-3.8,0.5c-1.9,0.2-3.8,0.4-3.8,0.4C470.2,444.9,472.6,444.6,474.5,444.3z"/>
						<path class="st1" d="M432.9,449.5c-0.5,0.3-0.6,0.4-0.8,0.6c0,0,0.1,0,0.1,0L432.9,449.5z"/>
						<path class="st1" d="M372.8,59.9c-0.6-0.1-1.1-0.1-1.6-0.2C367.5,59.4,370,59.7,372.8,59.9z"/>
						<path class="st1" d="M550.9,138.9c-1.7-1.3-3.5-2.4-5.2-3.7c1.3,1.2,2.5,2.2,3.4,2.8C550,138.8,550.7,139.1,550.9,138.9z"/>
						<path class="st1" d="M159.1,93.2C159.2,93.2,159.1,93.2,159.1,93.2c-0.4,0.2-0.8,0.3-1.2,0.5L159.1,93.2z"/>
						<path class="st1" d="M538.6,129.4c2.6,2.4,4.9,4.2,7.1,5.9C543.5,133.3,541,131.1,538.6,129.4z"/>
						<path class="st1" d="M251.4,452.8l-2-0.2c0,0.1-0.1,0.1-0.3,0.2L251.4,452.8z"/>
						<path class="st1" d="M249.1,452.8l-2.2,0C247.9,452.8,248.8,452.9,249.1,452.8z"/>
						<path class="st1" d="M242.2,452.6c0,0,1.2,0,2.3,0.1c1.2,0,2.3,0,2.3,0C245.3,452.6,243.3,452.4,242.2,452.6z"/>
						<path class="st1" d="M306.8,455.4l0.6-0.4C307.1,455.1,306.9,455.2,306.8,455.4z"/>
						<path class="st1" d="M323.7,455.4c-4-0.1-10.1-0.9-15.7-0.7l-0.5,0.3C310.1,454.5,319.9,456.1,323.7,455.4z"/>
						<path class="st1" d="M394.4,457.8c0,0-3.5,0.2-7.1,0.3c-3.6,0.1-7.1,0.3-7.1,0.3c2.5,0.3,5.8,0.7-0.6,1.2
							c9,0.1,8.1-0.1,7.2-0.4C385.9,458.8,385.2,458.4,394.4,457.8z"/>
						<path class="st1" d="M438.4,454.4c-7.6,1,0.2,0.6-0.2,0.9C443,454.4,444.1,454.2,438.4,454.4z"/>
						<path class="st1" d="M634.7,257.8l1.2,0.5C634.2,252.6,635.5,258.4,634.7,257.8z"/>
						<path class="st1" d="M605.9,204.3c0,0,0.6,1.3,1.2,2.6c0.6,1.3,1.1,2.6,1.1,2.6l2.2,1.9c0,0-1.1-1.8-2.2-3.5
							c-0.6-0.9-1.1-1.8-1.5-2.4C606.2,204.7,605.9,204.3,605.9,204.3z"/>
						<path class="st1" d="M590.9,170.8l1.8,1.9c0,0-1.7-1.9-3.3-3.7c-1.6-1.9-3.4-3.7-3.4-3.7s0.3,0.3,0.8,0.8
							c0.5,0.5,1.1,1.2,1.7,1.9C589.7,169.4,590.9,170.8,590.9,170.8z"/>
						<path class="st1" d="M101.2,116.4l2.2-0.1C106.5,113.8,106.3,112.1,101.2,116.4z"/>
						<path class="st1" d="M49,323.3c0.4,1.2,1.4,3.4,2.7,5.5c1.4,2.1,2.9,4.3,4.4,5.7c-0.4-0.5-0.8-1.1-1.2-1.6
							c-0.4-0.5-0.7-1.1-1.1-1.6c-0.7-1.1-1.4-2.1-2-3.1C50.7,326.1,49.8,324.3,49,323.3z"/>
						<polygon class="st1" points="326.7,63.8 322.1,64 330.7,64 						"/>
					</g>
				</g>
			</g>
		</g>
	</g>
</g>
</svg>
