<?xml version="1.0" encoding="utf-8"?>
<!-- Generator: Adobe Illustrator 19.2.0, SVG Export Plug-In . SVG Version: 6.00 Build 0)  -->
<svg version="1.1" xmlns="http://www.w3.org/2000/svg" xmlns:xlink="http://www.w3.org/1999/xlink" x="0px" y="0px"
	 viewBox="0 0 1000 700" style="enable-background:new 0 0 1000 700;" xml:space="preserve">
<style type="text/css">
	.st0{fill:#F9F9F9;}
</style>
<g id="Layer_2">
	<path d="M942.2,180.8H41.4c0,0,0-49.1,0-49.1c130.9,6.3,223.6,8.8,354.5,7.8c129.6-1,259.1-1.2,388.7,0.3
		c58.3,0.7,102.1-3.8,156.7-7.1c8.7-0.5,16,6.4,16,15.1v17.9C957.3,174.1,950.5,180.8,942.2,180.8z"/>
	<path d="M971.8,209.8H26.9c0,0,0-49.1,0-49.1c131.5,6.3,239.4,8.8,371,7.7c131.6-1.1,263.2-0.1,394.8,0.4
		c59.8,0.2,119.5-4.9,179.2-8.1V209.8z"/>
	<path d="M971.8,253.3H16.7l2.9-49.1c131.5,6.3,246.6,8.8,378.2,7.7c131.6-1.1,263.2-0.1,394.8,0.4c59.8,0.2,125.3-4.9,185-8.1
		L971.8,253.3z"/>
	<path d="M960.3,289.5H38.4c-6.4,0-11.5-5.1-11.5-11.5c0-7.7,0-17.7,0-25.5c0-6.6,5.5-11.8,12.1-11.5c128.3,5.9,231.3,8.2,358.9,7.2
		c131.6-1.1,263.2-0.1,394.8,0.4c55.8,0.2,111.4-4.3,167.1-7.4c6.6-0.4,12.2,4.9,12.2,11.5V278C971.8,284.3,966.6,289.5,960.3,289.5
		z"/>
	<path d="M56.5,289.7h900.8c0,0,0,41.8,0,41.8c-130.9-6.3-260.3-1.5-391.3-0.5c-129.6,1-259.1,1.2-388.7-0.3
		c-58.3-0.7-65.4,3.8-120,7.1c-8.7,0.5-16-6.4-16-15.1v-17.9C41.4,296.4,48.1,289.7,56.5,289.7z"/>
	<path d="M719.3,415.9h236.2l0,36.9c-98.4-4.7-2.4-6.6-100.9-5.8c-97.4,0.8,80.7,0.9-16.7-0.2c-43.8-0.5-74.1-6.4-115.2-3.9
		c-6.5,0.4-51.6,4.5-51.6-2.1v-13.5C671.1,421,713.1,415.9,719.3,415.9z"/>
	<path d="M660.2,407.2h306.2c0,0,0,36.9,0,36.9c-98.9-4.8-14.3-6.6-113.3-5.8c-99,0.8,77.7,0.1-21.3-0.3
		c-45-0.2-126.7,3.7-171.6,6.1V407.2z"/>
	<path d="M665.9,375.6h301.4c3.7,0,6.6,3.1,6.4,6.7c-0.3,5.5-0.8,13.4-1.2,19.7c-0.3,5.8-5.2,10.2-11,9.9
		c-96.5-4.4-12.8-6.1-108.3-5.3c-99,0.8,77.7,0.1-21.3-0.3c-42.5-0.2-125.6,3.3-168.4,5.7c-4,0.2-7.2-3.2-6.7-7.1l2.8-23.7
		C660,378,662.7,375.6,665.9,375.6z"/>
	<path d="M668.9,348.4h288.8c4.8,0,8.7,3.9,8.7,8.7c0,5.8,0,13.3,0,19.2c0,4.9-4.1,8.9-9.1,8.6c-96.5-4.4-8.2-6.2-104.2-5.4
		c-99,0.8,77.7,0.1-21.3-0.3c-41.9-0.1-120.6,3.2-162.5,5.6c-5,0.3-9.1-3.7-9.1-8.7v-19.1C660.2,352.3,664.1,348.4,668.9,348.4z"/>
	<path d="M964.2,365.4H685.8l0-31.5c98.4,4.7,69.2,1.2,167.7,0.4c97.4-0.8-110.7-0.9-13.2,0.2c45.8,0.5,79.8-3.2,123.6-5.7
		c3.4-0.2,6.3,2.5,6.3,6l0,24.6C970.2,362.7,967.5,365.4,964.2,365.4z"/>
	<path d="M181.1,533.4h736.4l0,36.5c-97.2-4.7-193.4-6.5-290.7-5.8c-96.3,0.8-264.7,0.9-360.9-0.2c-43.3-0.5-43.6,2.9-84.1,5.3
		c-6.5,0.4-11.9-4.7-11.9-11.2v-13.3C169.9,538.4,174.9,533.4,181.1,533.4z"/>
	<path d="M159.1,521.6h769.2l0,36.5c-97.7-4.7-205.1-6.5-302.9-5.7c-97.8,0.8-267.6,0.1-365.4-0.3c-44.5-0.2-56.5,3.7-100.9,6V521.6
		z"/>
	<path d="M155,491.4h774.1c3.6,0,6.5,3,6.3,6.7c-0.3,5.4-0.8,13.2-1.2,19.5c-0.3,5.7-5.2,10.1-10.9,9.8c-95.3-4.4-203.7-6-298-5.3
		c-97.8,0.8-267.6,0.1-365.4-0.3c-42-0.1-65.1,3.3-107.4,5.6c-3.9,0.2-7.1-3.1-6.6-7l2.8-23.5C149.1,493.8,151.8,491.4,155,491.4z"
		/>
	<path d="M167.7,464.5h752.1c4.7,0,8.6,3.8,8.6,8.6c0,5.7,0,13.2,0,18.9c0,4.9-4.1,8.8-9,8.5c-95.3-4.4-199.2-6.1-294-5.3
		c-97.8,0.8-267.6,0.1-365.4-0.3c-41.4-0.1-50.5,3.2-91.8,5.5c-4.9,0.3-9-3.6-9-8.6v-18.8C159.1,468.4,162.9,464.5,167.7,464.5z"/>
	<path d="M911.6,464.4H169.9c0,0,0-7.4,0-15c0-8.7,7.3-15.7,16.1-15.3c69.7,3.5-10.3,0.3,80.9-0.4c287.3-2.2,617.1,1.3,522.3,0.2
		c45.3,0.5,78.8-3.2,122.1-5.6c3.4-0.2,6.3,2.5,6.3,5.9l0,24.3C917.5,461.7,914.9,464.4,911.6,464.4z"/>
	<g>
		<path class="st0" d="M287.3,179c5,2.2,9.3,5.3,12.8,9.3c3.5,4,6.2,8.9,8.2,14.6c1.9,5.7,2.9,12.1,2.9,19.1c0,6.9-1,13.2-2.9,18.8
			c-1.9,5.6-4.6,10.5-8.2,14.6c-3.5,4.1-7.8,7.3-12.8,9.5c-5,2.2-10.6,3.4-16.7,3.4h-0.2h-10.6v50.4H227v-143h43.4h0.2
			C276.7,175.7,282.3,176.8,287.3,179z"/>
		<path class="st0" d="M354.8,208v23.1h40.8v32.3h-40.8v23.1h55.4v32.3h-87.7v-143h87.7V208H354.8z"/>
		<path class="st0" d="M474.8,318.7l-19.2-46.5h-0.4v46.5h-32.3v-143h43.4h0.2c8.2,0,15,1.2,20.5,3.7c5.4,2.5,9.8,5.8,13.1,10
			c3.3,4.2,5.6,9,7,14.6c1.4,5.6,2.1,11.4,2.1,17.6c0,6.4-1.1,12.1-3.2,17.1c-2.1,5-4.6,9.2-7.5,12.6c-2.9,3.4-5.8,6-8.7,7.7
			c-3,1.7-5.3,2.6-6.9,2.6l29,57.1H474.8z"/>
		<path class="st0" d="M609.4,298.4c-2.4,4-5.6,7.6-9.8,10.6c-4.2,3-9.2,5.4-15.1,7.1c-5.9,1.7-12.6,2.6-20,2.6
			c-5.8,0-11.2-0.8-16.2-2.3c-5.1-1.5-9.6-3.7-13.7-6.5c-4.1-2.8-7.6-6.2-10.5-10.3c-2.9-4-5-8.6-6.2-13.7l30.8-12.9
			c-0.3,0.1,0,1,0.9,2.7c0.8,1.7,2,3.4,3.6,5.3c1.5,1.9,3.4,3.5,5.7,5c2.2,1.5,4.6,2,7.2,1.6c2.2-0.3,4.3-1.2,6.4-2.9
			c2.1-1.7,3.1-4.3,3-7.9c-0.1-2.2-1-4.2-2.6-6.1c-1.6-1.9-3.9-3.8-6.8-5.9c-6.5-4.4-12.6-8.2-18.2-11.4
			c-5.6-3.3-10.4-6.7-14.6-10.3c-4.2-3.6-7.4-7.6-9.8-12.1c-2.4-4.5-3.6-10.1-3.6-16.9c0-6.3,1.3-11.8,3.8-16.5
			c2.6-4.7,6-8.7,10.2-11.9c4.2-3.2,9.1-5.6,14.6-7.3c5.5-1.7,11.2-2.6,17.1-2.7c7,0,13.2,1,18.6,3c5.3,2,9.8,4.5,13.5,7.6
			c3.7,3.1,6.5,6.6,8.6,10.5c2,3.9,3.4,7.8,4,11.6l-28.3,11.2c-0.4-1.4-1-3-1.7-4.7c-0.8-1.7-1.8-3.3-3.2-4.8
			c-1.3-1.5-2.9-2.7-4.8-3.7c-1.9-1-4-1.5-6.4-1.5c-2.6,0-4.9,0.8-7,2.4c-2.1,1.6-3.2,4-3.2,7.2c0,2.4,1,4.6,3,6.4
			c2,1.9,5.1,4.3,9.3,7.4c5.9,3.3,11.6,6.7,17,10c5.4,3.3,10.3,7.1,14.5,11.3c4.2,4.2,7.6,9,10.2,14.3c2.6,5.3,3.8,11.6,3.8,18.9
			v2.7C613.1,290.1,611.8,294.4,609.4,298.4z"/>
		<path class="st0" d="M727.3,282.9c-2.1,7.1-5.7,13.4-10.9,18.7c-5.3,5.6-11.2,9.9-18,12.9c-6.7,2.9-13.9,4.4-21.4,4.4h-0.2
			c-7.4,0-14.5-1.5-21.2-4.4c-6.7-2.9-12.8-7.2-18.2-12.7c-5-5.4-8.6-11.5-10.7-18.3c-2.1-6.8-3.2-14-3.4-21.7v-33.5
			c0-6.2,1.2-12.4,3.7-18.7c2.4-6.3,5.9-11.9,10.4-16.8c5.4-5.5,11.4-9.7,18.1-12.7c6.7-2.9,13.8-4.4,21.3-4.4h0.2
			c7.6,0,14.7,1.5,21.4,4.4c6.7,3,12.7,7.2,18,12.7c4.6,4.9,8.1,10.4,10.4,16.5c2.3,6.2,3.5,12.5,3.7,19v33.5
			C730.5,268.7,729.4,275.8,727.3,282.9z"/>
		<path class="st0" d="M845.8,175.7v143h-32.7l-38.5-70.4v70.4h-34.2v-143h32.9l38.3,70.2v-70.2H845.8z"/>
		<path class="st0" d="M948,298.4c-2.4,4-5.6,7.6-9.8,10.6c-4.2,3-9.2,5.4-15.1,7.1c-5.9,1.7-12.6,2.6-20,2.6
			c-5.8,0-11.2-0.8-16.2-2.3c-5.1-1.5-9.6-3.7-13.7-6.5c-4.1-2.8-7.6-6.2-10.5-10.3c-2.9-4-5-8.6-6.2-13.7l30.8-12.9
			c-0.3,0.1,0,1,0.9,2.7c0.8,1.7,2,3.4,3.6,5.3c1.5,1.9,3.4,3.5,5.7,5c2.2,1.5,4.6,2,7.2,1.6c2.2-0.3,4.3-1.2,6.4-2.9
			c2.1-1.7,3.1-4.3,3-7.9c-0.1-2.2-1-4.2-2.6-6.1c-1.6-1.9-3.9-3.8-6.8-5.9c-6.5-4.4-12.6-8.2-18.2-11.4
			c-5.6-3.3-10.4-6.7-14.6-10.3c-4.2-3.6-7.4-7.6-9.8-12.1c-2.4-4.5-3.6-10.1-3.6-16.9c0-6.3,1.3-11.8,3.8-16.5
			c2.6-4.7,6-8.7,10.2-11.9c4.2-3.2,9.1-5.6,14.6-7.3c5.5-1.7,11.2-2.6,17.1-2.7c7,0,13.2,1,18.6,3c5.3,2,9.8,4.5,13.5,7.6
			c3.7,3.1,6.5,6.6,8.6,10.5c2,3.9,3.4,7.8,4,11.6l-28.3,11.2c-0.4-1.4-1-3-1.7-4.7c-0.8-1.7-1.8-3.3-3.2-4.8
			c-1.3-1.5-2.9-2.7-4.8-3.7c-1.9-1-4-1.5-6.4-1.5c-2.6,0-4.9,0.8-7,2.4c-2.1,1.6-3.2,4-3.2,7.2c0,2.4,1,4.6,3,6.4
			c2,1.9,5.1,4.3,9.3,7.4c5.9,3.3,11.6,6.7,17,10c5.4,3.3,10.3,7.1,14.5,11.3c4.2,4.2,7.6,9,10.2,14.3c2.6,5.3,3.8,11.6,3.8,18.9
			v2.7C951.7,290.1,950.4,294.4,948,298.4z"/>
	</g>
	<g>
		<path class="st0" d="M814.5,409.3c-1.4,4.7-3.8,8.7-7.1,12.3c-3.4,3.7-7.4,6.5-11.8,8.4c-4.4,1.9-9.1,2.9-14,2.9h-0.1
			c-4.9,0-9.5-1-13.9-2.9c-4.4-1.9-8.4-4.7-11.9-8.3c-3.3-3.5-5.6-7.5-7-12c-1.4-4.4-2.1-9.2-2.2-14.2v-21.9c0-4,0.8-8.1,2.4-12.3
			c1.6-4.2,3.9-7.8,6.8-11c3.5-3.6,7.5-6.4,11.8-8.3c4.4-1.9,9-2.9,14-2.9h0.1c4.9,0,9.6,1,14,2.9c4.4,1.9,8.3,4.7,11.8,8.3
			c3,3.2,5.3,6.8,6.8,10.8c1.5,4,2.3,8.2,2.4,12.5v21.9C816.5,400,815.9,404.6,814.5,409.3z"/>
		<path class="st0" d="M844.2,360.3v15.1h26.7v21.1h-26.7v36.2h-21.1v-93.6h57.4v21.1H844.2z"/>
	</g>
	<g>
		<path class="st0" d="M373.9,549.6h-24V443.3h24V549.6z"/>
		<path class="st0" d="M462.2,443.3v106.3h-24.3l-28.6-52.3v52.3h-25.4V443.3h24.4l28.4,52.1v-52.1H462.2z"/>
		<path class="st0" d="M541,467.3h-24.1v82.3h-24v-82.3h-24.1v-24H541V467.3z"/>
		<path class="st0" d="M572.7,467.3v17.1H603v24h-30.3v17.1h41.1v24h-65.1V443.3h65.1v24H572.7z"/>
		<path class="st0" d="M661.9,549.6L647.6,515h-0.3v34.6h-24V443.3h32.3h0.1c6.1,0,11.2,0.9,15.2,2.8c4,1.9,7.3,4.3,9.7,7.4
			c2.4,3.1,4.2,6.7,5.2,10.9c1,4.1,1.6,8.5,1.6,13.1c0,4.8-0.8,9-2.4,12.7c-1.6,3.7-3.4,6.8-5.6,9.4c-2.1,2.5-4.3,4.4-6.5,5.7
			c-2.2,1.3-3.9,1.9-5.1,1.9l21.6,42.4H661.9z"/>
		<path class="st0" d="M721.9,467.3v17.1h30.3v24h-30.3v17.1H763v24h-65.1V443.3H763v24H721.9z"/>
		<path class="st0" d="M840.5,534.5c-1.8,3-4.2,5.6-7.3,7.9c-3.1,2.2-6.8,4-11.2,5.3c-4.4,1.3-9.3,1.9-14.9,1.9
			c-4.3,0-8.3-0.6-12.1-1.7c-3.8-1.1-7.2-2.8-10.2-4.9c-3-2.1-5.6-4.6-7.8-7.6c-2.1-3-3.7-6.4-4.6-10.2l22.9-9.6
			c-0.2,0.1,0,0.8,0.6,2c0.6,1.2,1.5,2.5,2.6,3.9c1.1,1.4,2.5,2.6,4.2,3.7c1.7,1.1,3.5,1.5,5.4,1.2c1.6-0.2,3.2-0.9,4.8-2.1
			c1.6-1.2,2.3-3.2,2.2-5.9c-0.1-1.6-0.7-3.1-1.9-4.5c-1.2-1.4-2.9-2.8-5.1-4.4c-4.9-3.2-9.4-6.1-13.5-8.5c-4.1-2.4-7.8-5-10.9-7.6
			c-3.1-2.7-5.5-5.7-7.3-9c-1.8-3.3-2.6-7.5-2.6-12.6c0-4.7,1-8.8,2.9-12.3c1.9-3.5,4.4-6.5,7.6-8.9c3.1-2.4,6.8-4.2,10.9-5.4
			c4.1-1.2,8.3-1.9,12.7-2c5.2,0,9.8,0.7,13.8,2.2c4,1.5,7.3,3.4,10,5.6c2.7,2.3,4.8,4.9,6.4,7.8c1.5,2.9,2.5,5.8,3,8.6l-21,8.3
			c-0.3-1-0.7-2.2-1.3-3.5c-0.6-1.3-1.4-2.5-2.4-3.6c-1-1.1-2.2-2-3.6-2.8c-1.4-0.8-3-1.1-4.8-1.1c-1.9,0-3.6,0.6-5.2,1.8
			c-1.6,1.2-2.4,3-2.4,5.4c0,1.8,0.7,3.4,2.2,4.8c1.5,1.4,3.8,3.2,6.9,5.5c4.4,2.5,8.6,5,12.6,7.4c4,2.5,7.6,5.3,10.8,8.4
			c3.1,3.1,5.7,6.7,7.6,10.6c1.9,4,2.9,8.6,2.9,14.1v2C843.2,528.3,842.3,531.5,840.5,534.5z"/>
	</g>
	<path class="st0" d="M917.7,443.9l-67.7-0.3V467h24v83h23v-83h24.2l0.2-2.5l-0.8-0.2C915.8,462.1,919.2,449.2,917.7,443.9z"/>
</g>
<g id="Layer_1_copy">
</g>
</svg>
