<?xml version="1.0" encoding="utf-8"?>
<!-- Generator: Adobe Illustrator 19.2.0, SVG Export Plug-In . SVG Version: 6.00 Build 0)  -->
<svg version="1.1" xmlns="http://www.w3.org/2000/svg" xmlns:xlink="http://www.w3.org/1999/xlink" x="0px" y="0px"
	 viewBox="0 0 1000 700" style="enable-background:new 0 0 1000 700;" xml:space="preserve">
<style type="text/css">
	.st0{fill:#F8F8F8;}
</style>
<g id="Layer_2">
	<g id="line_1_">
		<path d="M888,286H122.2c0,0,0-40.1,0-40.1c106.9,5.2,212.6,7.2,319.6,6.3c105.8-0.8,211.7-1,317.5,0.2c47.6,0.5,83.4-3.1,128-5.8
			c7.1-0.4,13.1,5.2,13.1,12.3v14.6C900.4,280.5,894.8,286,888,286z"/>
		<path d="M912.2,309.7H110.4c0,0,0-40.1,0-40.1c107.4,5.2,225.5,7.2,333,6.3c107.5-0.9,215-0.1,322.4,0.3
			c48.9,0.2,97.6-4,146.4-6.6V309.7z"/>
		<path d="M912.2,345.1H102.1c0,0,2.4-40.1,2.4-40.1c107.4,5.2,231.4,7.2,338.9,6.3c107.5-0.9,215-0.1,322.4,0.3
			c48.9,0.2,102.4-4,151.1-6.6L912.2,345.1z"/>
		<path d="M902.8,374.7h-783c-5.2,0-9.4-4.2-9.4-9.4c0-6.3,0-14.5,0-20.8c0-5.4,4.5-9.6,9.8-9.4c104.8,4.8,219,6.7,323.2,5.9
			c107.5-0.9,215-0.1,322.4,0.3c45.6,0.2,91-3.5,136.5-6.1c5.4-0.3,9.9,4,9.9,9.4v20.7C912.2,370.5,908,374.7,902.8,374.7z"/>
		<path d="M134.6,374.9h765.8c0,0,0,34.2,0,34.2c-106.9-5.2-212.6-1.3-319.6-0.4c-105.8,0.8-211.7,1-317.5-0.2
			c-47.6-0.5-83.4,3.1-128,5.8c-7.1,0.4-13.1-5.2-13.1-12.3v-14.6C122.2,380.4,127.7,374.9,134.6,374.9z"/>
	</g>
	<g id="line">
		<path d="M398.3,189.9H48.7c0,0,0-19.3,0-19.3c51.6,2.5,82.6,3.5,134.2,3.1c51.1-0.4,102.1-0.5,153.2,0.1c23,0.3,40.2-1.5,61.8-2.8
			c3.4-0.2,6.3,2.5,6.3,6v7.1C404.2,187.2,401.6,189.9,398.3,189.9z"/>
		<path d="M409.9,201.3H43c0,0,0-19.3,0-19.3c51.8,2.5,88.8,3.5,140.7,3c51.9-0.4,103.7,0,155.6,0.1c23.6,0.1,47.1-2,70.6-3.2V201.3
			z"/>
		<path d="M409.9,218.4H39c0,0,1.1-19.3,1.1-19.3c51.8,2.5,91.7,3.5,143.5,3c51.9-0.4,103.7,0,155.6,0.1c23.6,0.1,49.4-2,72.9-3.2
			L409.9,218.4z"/>
		<path d="M405.4,232.7H47.6c-2.5,0-4.5-2-4.5-4.5c0-3,0-7,0-10c0-2.6,2.2-4.7,4.8-4.5c50.6,2.3,85.7,3.2,135.9,2.8
			c51.9-0.4,103.7,0,155.6,0.1c22,0.1,43.9-1.7,65.8-2.9c2.6-0.1,4.8,1.9,4.8,4.5v10C409.9,230.7,407.9,232.7,405.4,232.7z"/>
		<path d="M54.7,232.8h349.5c0,0,0,16.5,0,16.5c-51.6-2.5-102.6-0.6-154.2-0.2c-51.1,0.4-102.1,0.5-153.2-0.1
			c-23-0.3-20.2,1.5-41.8,2.8c-3.4,0.2-6.3-2.5-6.3-6v-7.1C48.7,235.5,51.4,232.8,54.7,232.8z"/>
	</g>
	<g id="line_2_">
		<path d="M96.8,543.4h721.9c0,0,0,19,0,30.8c0,5-4.2,9-9.2,8.7c-101.1-4.8-164.5-6.7-268-5.9c-105.5,0.8-211,1-316.4-0.2
			c-47.4-0.5-83.1,3.1-127.6,5.8c-7.1,0.4-13-5.2-13-12.3c0-4.7,0-10,0-14.6C84.5,549,90,543.4,96.8,543.4z"/>
		<path d="M86.5,517.9h730.3c7.6,0,13.7,6.1,13.7,13.7c0,3.8,0,7.9,0,11.8c0,7.8-6.6,14.1-14.4,13.7c-99.7-4.7-173.9-6.4-276.2-5.6
			c-107.1,0.9-214.2,0.1-321.3-0.3c-43.8-0.2-87.6,3.2-131.3,5.8c-7.9,0.5-14.6-5.8-14.6-13.7v-11.7C72.7,524,78.9,517.9,86.5,517.9
			z"/>
		<path d="M72.7,484.5h766.1c0,0-2.4,39.9-2.4,39.9c-107.1-5.2-189.3-7.2-296.5-6.3c-107.1,0.9-214.2,0.1-321.3-0.3
			c-48.7-0.2-94.2,4.8-142.8,7.3L72.7,484.5z"/>
		<path d="M82.1,455h739.1c5.2,0,9.4,4.2,9.4,9.4c0,6.2,0,14.4,0,20.7c0,5.4-4.5,9.6-9.8,9.4c-104.4-4.8-176.9-6.7-280.8-5.8
			c-107.1,0.9-214.2,0.1-321.3-0.3c-45.4-0.2-90.7,3.5-136,6c-5.4,0.3-9.9-4-9.9-9.4v-20.6C72.7,459.2,76.9,455,82.1,455z"/>
		<path d="M808.9,471.9L84.5,454.9c0,0,0-34,0-34c106.5,5.1,211.9,1.2,318.5,0.4c105.5-0.8,211-1,316.4,0.2
			c47.4,0.5,41.8,4.9,86.3,2.2c7.1-0.4,13,5.2,13,12.3v6.6C818.8,449.4,815.7,471.9,808.9,471.9z"/>
	</g>
</g>
<g id="Layer_1">
	<g>
		<path class="st0" d="M197.7,217.2c0,4.4-0.5,8.5-1.5,12.5c-1,3.9-2.6,7.4-4.9,10.4c-2.3,3-5.3,5.3-8.9,7.1
			c-3.7,1.8-8.2,2.6-13.5,2.6H167h-13.1v-65.1H167c5.1,0,9.5,0.8,13.4,2.5c3.9,1.7,7.1,3.9,9.6,6.8c2.6,2.9,4.5,6.3,5.8,10.3
			C197,208.3,197.7,212.6,197.7,217.2z"/>
		<path class="st0" d="M233.3,232.6h-12.7l-5.8,17.2h-16.7l19.1-65.1h19.6l19.1,65.1h-16.7L233.3,232.6z"/>
		<path class="st0" d="M293,199.4h-14.8v50.4h-14.7v-50.4h-14.8v-14.7H293V199.4z"/>
		<path class="st0" d="M312.5,199.4v10.5H331v14.7h-18.6v10.5h25.2v14.7h-39.9v-65.1h39.9v14.7H312.5z"/>
		<path class="st0" d="M355.4,195.1v12.1h-11.9v-12.1H355.4z M355.4,223.6v12.1h-11.9v-12.1H355.4z"/>
		<path class="st0" d="M177.1,295.9v16.5h29.2v23.1h-29.2v39.7H154V272.8h62.8v23.1H177.1z"/>
		<path class="st0" d="M245.9,295.9v16.5h29.2v23.1h-29.2v16.5h39.7v23.1h-62.8V272.8h62.8v23.1H245.9z"/>
		<path class="st0" d="M332.7,321.4c4.1,0,7.6,0.8,10.5,2.5c2.8,1.7,5.2,3.8,7,6.4c1.8,2.6,3.1,5.4,3.9,8.4c0.8,3,1.2,5.8,1.2,8.4
			c0,3.8-0.6,7.3-1.7,10.7c-1.1,3.4-2.8,6.4-5.1,9c-2.3,2.6-5.1,4.7-8.5,6.2c-3.4,1.5-7.3,2.3-11.8,2.3h-0.7h-32.8V272.9h24.5h-1.4
			h0.7c5,0,9.5,0.6,13.2,1.9c3.8,1.3,6.8,3,9.2,5.2c2.4,2.2,4.2,4.8,5.4,7.7c1.2,2.9,1.8,6.1,1.8,9.5c0,3.6-0.5,6.8-1.4,9.8
			c-1,2.9-2.2,5.5-3.7,7.6c-1.5,2.1-3.2,3.8-5,5C336.1,320.8,334.3,321.4,332.7,321.4z"/>
		<path class="st0" d="M400,375.2l-13.8-33.3H386v33.3h-23.1V272.8H394h0.1c5.9,0,10.8,0.9,14.7,2.7c3.9,1.8,7,4.2,9.4,7.2
			c2.3,3,4,6.5,5,10.5c1,4,1.5,8.2,1.5,12.6c0,4.6-0.8,8.7-2.3,12.3c-1.5,3.6-3.3,6.6-5.4,9c-2.1,2.4-4.2,4.3-6.3,5.5
			c-2.1,1.2-3.8,1.9-5,1.9l20.8,40.9H400z"/>
		<path class="st0" d="M508.8,334.3c0,6.1-0.8,11.6-2.4,16.7c-1.6,5-3.9,9.4-7,13c-3.1,3.6-6.9,6.4-11.5,8.4c-4.6,2-9.9,2.9-16,2.8
			h-0.1c-6.7,0.1-12.4-1-17.1-3.2s-8.5-5.2-11.4-9c-2.9-3.8-5.1-8.2-6.4-13.1c-1.3-5-2-10.1-2-15.6v-61.7h23.8v59.9
			c0,2.5,0.3,4.8,0.8,7c0.5,2.2,1.3,4.1,2.4,5.8s2.5,3,4.1,3.9c1.7,1,3.6,1.4,5.9,1.4c2.3,0,4.3-0.5,5.9-1.4c1.7-1,3-2.3,4.1-3.9
			c1.1-1.7,1.8-3.6,2.3-5.8c0.5-2.2,0.8-4.5,0.8-7v-59.9h23.8V334.3z"/>
		<path class="st0" d="M569.2,348.2h-20l-9.1,27h-26.3l30-102.4h30.8l30,102.4h-26.3L569.2,348.2z"/>
		<path class="st0" d="M647,375.2l-13.8-33.3H633v33.3h-23.1V272.8H641h0.1c5.9,0,10.8,0.9,14.7,2.7c3.9,1.8,7,4.2,9.4,7.2
			c2.3,3,4,6.5,5,10.5c1,4,1.5,8.2,1.5,12.6c0,4.6-0.8,8.7-2.3,12.3s-3.3,6.6-5.4,9c-2.1,2.4-4.2,4.3-6.3,5.5
			c-2.1,1.2-3.8,1.9-5,1.9l20.8,40.9H647z"/>
		<path class="st0" d="M721.8,324v51.2H700V324l-26.3-51.2h25.9l12,24.2l11.8-24.2h25.9L721.8,324z"/>
		<path class="st0" d="M823.7,352.1h31.8v23.1h-61.5v-23.1l37.5-43.2c0.8-1.2,1.2-2.7,1.2-4.4c0-0.7-0.1-1.6-0.3-2.5
			c-0.6-1.7-1.5-3.3-2.9-4.8c-1.4-1.4-3-2.1-5-2.1c-1.7,0-3.2,0.3-4.4,0.9c-1.2,0.6-2.1,1.4-2.8,2.3c-0.7,1-1.2,2-1.5,3.1
			c-0.3,1.1-0.5,2.1-0.5,3h-21.9c0-4.3,0.8-8.4,2.3-12.3c1.6-3.9,3.7-7.2,6.5-10.1c2.8-2.9,6-5.2,9.8-6.8c3.8-1.7,7.8-2.5,12.1-2.5
			c3.6,0,7,0.6,10.2,1.7c3.2,1.1,6.1,2.6,8.8,4.6c2.7,2,5,4.3,6.9,7.1c1.9,2.8,3.4,5.7,4.4,8.9c0.9,2.8,1.4,6,1.4,9.4
			c0,4.4-0.8,8.4-2.4,12c-1.6,3.6-3.9,6.9-6.8,10.1L823.7,352.1z"/>
		<path class="st0" d="M882.7,356.2v19l-7.3,12.8h-8.7l3.2-12.8h-6.1v-19H882.7z"/>
		<path class="st0" d="M223.7,394.4v180.2H183v-123l-6.5,8.7l-28.8-28.8l35.4-37.1H223.7z"/>
		<path class="st0" d="M260.2,449.1c0-7.7,1.2-15,3.5-21.7c2.3-6.7,5.7-12.6,10.2-17.7c4.4-5.1,10-9.1,16.6-12
			c6.6-2.9,14.3-4.4,23-4.4c8.7,0,16.5,1.3,23.5,3.9c6.9,2.6,12.8,6.2,17.6,10.8c4.8,4.6,8.4,10.1,11,16.3
			c2.6,6.3,3.9,13.2,3.9,20.6v74.1c0,7.1-0.9,14-2.8,20.6c-1.9,6.6-5,12.5-9.3,17.7c-4.4,5.2-10.1,9.3-17.2,12.5
			c-7.1,3.1-16,4.7-26.6,4.7c-7.6,0-14.7-1.3-21.2-4c-6.5-2.7-12.2-6.4-17-11.1c-4.8-4.8-8.5-10.4-11.1-17c-2.7-6.5-4-13.7-4-21.4
			h38.3c0,4.2,1.5,7.8,4.4,10.8c2.9,3,6.5,4.5,10.7,4.5c4.2,0,7.7-1.5,10.7-4.5c2.9-3,4.4-6.6,4.4-10.8h0.2v-25.7
			c-0.3,1.3-1.2,2.5-2.5,3.6c-1.4,1.1-3,2.1-4.8,2.9c-1.9,0.8-3.7,1.5-5.6,2.1c-1.9,0.6-3.4,0.8-4.7,0.8c-16.5,0-29.1-5-37.8-15
			c-8.7-10-13.1-23.5-13.1-40.4V449.1z"/>
		<path class="st0" d="M446.4,435.5v20.8c0.5-1.1,1.5-2.1,2.9-3c1.5-0.9,3-1.7,4.7-2.3c1.7-0.6,3.4-1.1,5.2-1.3
			c1.8-0.2,3.3-0.4,4.6-0.4c9.5,0,17.6,1.5,24.3,4.6c6.7,3.1,12.2,7,16.5,11.9c4.3,4.8,7.4,10.3,9.4,16.3c2,6.1,3,12,3,17.8v6.8v0.7
			v16.2c0,7.7-1.5,14.7-4.4,20.9c-2.9,6.2-6.9,11.6-12,16.1c-5.1,4.5-11,8-17.8,10.4s-14,3.6-21.6,3.6c-7.7,0-15-1.5-21.7-4.4
			c-6.7-2.9-12.6-6.9-17.7-12c-5.1-5.1-9.1-11-12-17.8c-2.9-6.8-4.4-14-4.4-21.8h40.7c0,4.2,1.6,7.8,4.7,10.8c3.1,3,6.8,4.5,11,4.5
			c4.2,0,7.8-1.2,10.8-3.8c3-2.5,4.5-5.8,4.5-10v-17.7c0-3.9-1.3-7.3-3.9-10.4c-2.6-3.1-6.4-4.6-11.4-4.6c-4.2,0-7.9,1.5-11,4.4
			c-3.1,2.9-4.7,6.5-4.7,10.7h-40.7V394.9h108v40.7H446.4z"/>
		<path class="st0" d="M551.3,449.1c0-7.7,1.2-15,3.5-21.7c2.3-6.7,5.7-12.6,10.2-17.7c4.4-5.1,10-9.1,16.6-12
			c6.6-2.9,14.3-4.4,23-4.4c8.7,0,16.5,1.3,23.5,3.9c6.9,2.6,12.8,6.2,17.6,10.8c4.8,4.6,8.4,10.1,11,16.3
			c2.6,6.3,3.9,13.2,3.9,20.6v74.1c0,7.1-0.9,14-2.8,20.6c-1.9,6.6-5,12.5-9.3,17.7c-4.4,5.2-10.1,9.3-17.2,12.5
			c-7.1,3.1-16,4.7-26.6,4.7c-7.6,0-14.7-1.3-21.2-4s-12.2-6.4-17-11.1c-4.8-4.8-8.5-10.4-11.1-17c-2.7-6.5-4-13.7-4-21.4h38.3
			c0,4.2,1.5,7.8,4.4,10.8c2.9,3,6.5,4.5,10.7,4.5c4.2,0,7.7-1.5,10.7-4.5c2.9-3,4.4-6.6,4.4-10.8h0.2v-25.7
			c-0.3,1.3-1.2,2.5-2.5,3.6c-1.4,1.1-3,2.1-4.8,2.9c-1.9,0.8-3.7,1.5-5.6,2.1c-1.9,0.6-3.4,0.8-4.7,0.8c-16.5,0-29.1-5-37.8-15
			c-8.7-10-13.1-23.5-13.1-40.4V449.1z"/>
	</g>
</g>
</svg>
