<?xml version="1.0" encoding="utf-8"?>
<!-- Generator: Adobe Illustrator 19.2.0, SVG Export Plug-In . SVG Version: 6.00 Build 0)  -->
<svg version="1.1" xmlns="http://www.w3.org/2000/svg" xmlns:xlink="http://www.w3.org/1999/xlink" x="0px" y="0px"
	 viewBox="0 0 500 130" style="enable-background:new 0 0 500 130;" xml:space="preserve">
<style type="text/css">
	.st0{fill:#F9F9F9;}
</style>
<g id="Layer_1">
	<g>
		<path d="M473.3,37.9H29.5l0-25c66.8,3.2,109.7,4.5,176.6,4c66.1-0.5,132.3-0.6,198.4,0.1c29.7,0.3,40.6-2,68.4-3.6
			c4.4-0.3,8.2,3.3,8.2,7.7v9.2C481,34.5,477.6,37.9,473.3,37.9z"/>
		<path d="M488.4,52.7H22.1c0,0,0-25,0-25c67.1,3.2,117.8,4.5,185,3.9c67.2-0.5,134.3-0.1,201.5,0.2c30.5,0.1,49.4-2.5,79.9-4.1
			V52.7z"/>
		<path d="M488.4,74.9H16.9l1.5-25c67.1,3.2,121.5,4.5,188.6,3.9c67.2-0.5,134.3-0.1,201.5,0.2c30.5,0.1,52.4-2.5,82.9-4.1
			L488.4,74.9z"/>
		<path d="M482.6,93.4H28c-3.2,0-5.9-2.6-5.9-5.9c0-3.9,0-9,0-13c0-3.4,2.8-6,6.2-5.9c65.5,3,113.7,4.2,178.8,3.7
			c67.2-0.5,134.3-0.1,201.5,0.2c28.5,0.1,45.3-2.2,73.7-3.8c3.4-0.2,6.2,2.5,6.2,5.9v12.9C488.4,90.7,485.8,93.4,482.6,93.4z"/>
		<path d="M37.2,93.5H481c0,0,0,21.3,0,21.3c-66.8-3.2-121.3-0.8-188.1-0.3c-66.1,0.5-132.3,0.6-198.4-0.1c-29.7-0.3-29,2-56.9,3.6
			c-4.4,0.3-8.2-3.3-8.2-7.7v-9.2C29.5,96.9,33,93.5,37.2,93.5z"/>
	</g>
	<g>
		<path class="st0" d="M176.5,47.7h-13.2v45.1h-13.2V47.7h-13.2V34.6h39.6V47.7z"/>
		<path class="st0" d="M222.6,34.6v58.2h-13.2V70.3h-15.6v22.5h-13.2V34.6h13.2v22.5h15.6V34.6H222.6z"/>
		<path class="st0" d="M241.9,47.7v9.4h16.6v13.2h-16.6v9.4h22.5v13.2h-35.7V34.6h35.7v13.2H241.9z"/>
		<path class="st0" d="M312.1,78.2c-0.9,2.9-2.3,5.4-4.4,7.6c-2.1,2.3-4.6,4-7.3,5.2c-2.7,1.2-5.6,1.8-8.7,1.8h-0.1
			c-3,0-5.9-0.6-8.6-1.8c-2.7-1.2-5.2-2.9-7.4-5.2c-2-2.2-3.5-4.7-4.3-7.4c-0.9-2.8-1.3-5.7-1.4-8.8V56c0-2.5,0.5-5,1.5-7.6
			c1-2.6,2.4-4.9,4.2-6.8c2.2-2.2,4.6-4,7.4-5.2c2.7-1.2,5.6-1.8,8.7-1.8h0.1c3.1,0,6,0.6,8.7,1.8c2.7,1.2,5.2,2.9,7.3,5.2
			c1.9,2,3.3,4.2,4.2,6.7s1.4,5.1,1.5,7.8v13.6C313.4,72.5,313,75.3,312.1,78.2z"/>
		<path class="st0" d="M338.5,92.8l-7.8-18.9h-0.2v18.9h-13.2V34.6h17.7h0.1c3.3,0,6.1,0.5,8.3,1.5c2.2,1,4,2.4,5.3,4.1
			c1.3,1.7,2.3,3.7,2.9,5.9c0.6,2.3,0.9,4.7,0.9,7.2c0,2.6-0.4,4.9-1.3,7c-0.9,2-1.9,3.7-3.1,5.1c-1.2,1.4-2.4,2.4-3.6,3.1
			c-1.2,0.7-2.1,1.1-2.8,1.1l11.8,23.2H338.5z"/>
		<path class="st0" d="M371.4,92.8h-13.2V34.6h13.2V92.8z"/>
		<path class="st0" d="M390,47.7v9.4h16.6v13.2H390v9.4h22.5v13.2h-35.7V34.6h35.7v13.2H390z"/>
		<path class="st0" d="M455,84.6c-1,1.6-2.3,3.1-4,4.3c-1.7,1.2-3.7,2.2-6.1,2.9c-2.4,0.7-5.1,1.1-8.1,1.1c-2.3,0-4.6-0.3-6.6-0.9
			s-3.9-1.5-5.6-2.7c-1.7-1.1-3.1-2.5-4.3-4.2c-1.2-1.6-2-3.5-2.5-5.6l12.5-5.2c-0.1,0.1,0,0.4,0.4,1.1c0.3,0.7,0.8,1.4,1.4,2.2
			c0.6,0.8,1.4,1.4,2.3,2c0.9,0.6,1.9,0.8,2.9,0.7c0.9-0.1,1.8-0.5,2.6-1.2c0.9-0.7,1.3-1.7,1.2-3.2c-0.1-0.9-0.4-1.7-1.1-2.5
			c-0.7-0.8-1.6-1.6-2.8-2.4c-2.7-1.8-5.1-3.3-7.4-4.7c-2.3-1.3-4.3-2.7-5.9-4.2c-1.7-1.5-3-3.1-4-4.9c-1-1.8-1.4-4.1-1.4-6.9
			c0-2.6,0.5-4.8,1.6-6.7c1-1.9,2.4-3.5,4.1-4.9c1.7-1.3,3.7-2.3,5.9-3c2.2-0.7,4.6-1,7-1.1c2.9,0,5.4,0.4,7.6,1.2
			c2.2,0.8,4,1.8,5.5,3.1c1.5,1.3,2.6,2.7,3.5,4.3s1.4,3.2,1.6,4.7l-11.5,4.5c-0.2-0.6-0.4-1.2-0.7-1.9c-0.3-0.7-0.7-1.4-1.3-2
			c-0.5-0.6-1.2-1.1-2-1.5c-0.8-0.4-1.6-0.6-2.6-0.6c-1,0-2,0.3-2.9,1c-0.9,0.7-1.3,1.6-1.3,2.9c0,1,0.4,1.9,1.2,2.6
			c0.8,0.8,2.1,1.8,3.8,3c2.4,1.4,4.7,2.7,6.9,4.1c2.2,1.4,4.2,2.9,5.9,4.6c1.7,1.7,3.1,3.7,4.1,5.8c1,2.2,1.6,4.7,1.6,7.7v1.1
			C456.5,81.2,455.9,82.9,455,84.6z"/>
	</g>
</g>
<g id="Layer_2">
</g>
</svg>
