<?xml version="1.0" encoding="utf-8"?>
<!-- Generator: Adobe Illustrator 19.2.0, SVG Export Plug-In . SVG Version: 6.00 Build 0)  -->
<svg version="1.1" xmlns="http://www.w3.org/2000/svg" xmlns:xlink="http://www.w3.org/1999/xlink" x="0px" y="0px"
	 viewBox="0 0 500 130" style="enable-background:new 0 0 500 130;" xml:space="preserve">
<style type="text/css">
	.st0{fill:#F9F9F9;}
</style>
<g id="Layer_1">
	<g>
		<path d="M473.3,37.9H29.5c0,0,0-25,0-25c66.8,3.2,109.7,4.5,176.6,4c66.1-0.5,132.3-0.6,198.4,0.1c29.7,0.3,40.6-2,68.4-3.6
			c4.4-0.3,8.2,3.3,8.2,7.7v9.2C481,34.5,477.6,37.9,473.3,37.9z"/>
		<path d="M488.4,52.7H22.1c0,0,0-25,0-25c67.1,3.2,117.8,4.5,185,3.9c67.2-0.5,134.3-0.1,201.5,0.2c30.5,0.1,49.4-2.5,79.9-4.1
			V52.7z"/>
		<path d="M488.4,74.9H16.9l1.5-25c67.1,3.2,121.5,4.5,188.6,3.9c67.2-0.5,134.3-0.1,201.5,0.2c30.5,0.1,52.4-2.5,82.9-4.1
			L488.4,74.9z"/>
		<path d="M482.6,93.4H28c-3.2,0-5.9-2.6-5.9-5.9c0-3.9,0-9,0-13c0-3.4,2.8-6,6.2-5.9c65.5,3,113.7,4.2,178.8,3.7
			c67.2-0.5,134.3-0.1,201.5,0.2c28.5,0.1,45.3-2.2,73.7-3.8c3.4-0.2,6.2,2.5,6.2,5.9v12.9C488.4,90.7,485.8,93.4,482.6,93.4z"/>
		<path d="M37.2,93.5H481c0,0,0,21.3,0,21.3c-66.8-3.2-121.3-0.8-188.1-0.3c-66.1,0.5-132.3,0.6-198.4-0.1c-29.7-0.3-29,2-56.9,3.6
			c-4.4,0.3-8.2-3.3-8.2-7.7v-9.2C29.5,96.9,33,93.5,37.2,93.5z"/>
	</g>
	<g>
		<g>
			<path class="st0" d="M158.7,26.3v78.9h-17.8V74.7h-21.1v30.6h-17.8V26.3h17.8v30.6h21.1V26.3H158.7z"/>
			<path class="st0" d="M184.9,105.2h-17.8V26.3h17.8V105.2z"/>
			<path class="st0" d="M215.5,65.9l29.3,39.4h-22.1L210,88.2v17.1h-17.8V26.3H210v18.4l12.8-18.4h22.1L215.5,65.9z"/>
			<path class="st0" d="M269.5,44.1v12.7H292v17.8h-22.5v12.7h30.6v17.8h-48.4V26.3h48.4v17.8H269.5z"/>
			<path class="st0" d="M335.7,105.2l-10.6-25.7h-0.2v25.7h-17.8V26.3h24h0.1c4.5,0,8.3,0.7,11.3,2.1c3,1.4,5.4,3.2,7.2,5.5
				c1.8,2.3,3.1,5,3.9,8.1c0.8,3.1,1.2,6.3,1.2,9.7c0,3.5-0.6,6.7-1.8,9.4c-1.2,2.8-2.5,5.1-4.1,6.9c-1.6,1.9-3.2,3.3-4.8,4.2
				c-1.6,1-2.9,1.4-3.8,1.4l16,31.5H335.7z"/>
			<path class="st0" d="M410.6,94c-1.3,2.2-3.1,4.2-5.4,5.8c-2.3,1.7-5.1,3-8.3,3.9s-6.9,1.4-11,1.4c-3.2,0-6.2-0.4-9-1.3
				c-2.8-0.8-5.3-2.1-7.6-3.6c-2.3-1.6-4.2-3.4-5.8-5.7c-1.6-2.2-2.7-4.8-3.4-7.6l17-7.1c-0.1,0.1,0,0.6,0.5,1.5
				c0.5,0.9,1.1,1.9,2,2.9c0.8,1,1.9,1.9,3.1,2.8c1.2,0.8,2.6,1.1,4,0.9c1.2-0.1,2.4-0.7,3.6-1.6c1.2-0.9,1.7-2.4,1.6-4.4
				c-0.1-1.2-0.5-2.3-1.4-3.3c-0.9-1-2.1-2.1-3.8-3.2c-3.6-2.4-6.9-4.5-10-6.3c-3.1-1.8-5.8-3.7-8.1-5.7c-2.3-2-4.1-4.2-5.4-6.7
				c-1.3-2.5-2-5.6-2-9.3c0-3.5,0.7-6.5,2.1-9.1c1.4-2.6,3.3-4.8,5.6-6.6c2.3-1.8,5-3.1,8.1-4c3-0.9,6.2-1.4,9.4-1.5
				c3.9,0,7.3,0.5,10.2,1.6c2.9,1.1,5.4,2.5,7.4,4.2c2,1.7,3.6,3.6,4.7,5.8c1.1,2.2,1.9,4.3,2.2,6.4l-15.6,6.2
				c-0.2-0.8-0.5-1.6-1-2.6c-0.4-1-1-1.8-1.8-2.7c-0.7-0.8-1.6-1.5-2.7-2.1c-1-0.6-2.2-0.8-3.6-0.8c-1.4,0-2.7,0.4-3.9,1.3
				c-1.2,0.9-1.8,2.2-1.8,4c0,1.3,0.5,2.5,1.6,3.6c1.1,1,2.8,2.4,5.1,4.1c3.3,1.8,6.4,3.7,9.4,5.5c3,1.8,5.7,3.9,8,6.3
				c2.3,2.3,4.2,5,5.6,7.9c1.4,2.9,2.1,6.4,2.1,10.5v1.5C412.6,89.4,411.9,91.8,410.6,94z"/>
		</g>
	</g>
</g>
<g id="Layer_2">
</g>
</svg>
