<?xml version="1.0" encoding="utf-8"?>
<!-- Generator: Adobe Illustrator 19.2.0, SVG Export Plug-In . SVG Version: 6.00 Build 0)  -->
<svg version="1.1" id="Layer_1" xmlns="http://www.w3.org/2000/svg" xmlns:xlink="http://www.w3.org/1999/xlink" x="0px" y="0px"
	 viewBox="0 0 500 130" style="enable-background:new 0 0 500 130;" xml:space="preserve">
<style type="text/css">
	.st0{fill:#F9F9F9;}
</style>
<g>
	<path d="M473.3,37.9H29.5c0,0,0-25,0-25c66.8,3.2,109.7,4.5,176.6,4c66.1-0.5,132.3-0.6,198.4,0.1c29.7,0.3,40.6-2,68.4-3.6
		c4.4-0.3,8.2,3.3,8.2,7.7v9.2C481,34.5,477.6,37.9,473.3,37.9z"/>
	<path d="M488.4,52.7H22.1c0,0,0-25,0-25c67.1,3.2,117.8,4.5,185,3.9c67.2-0.5,134.3-0.1,201.5,0.2c30.5,0.1,49.4-2.5,79.9-4.1V52.7
		z"/>
	<path d="M488.4,74.9H16.9l1.5-25c67.1,3.2,121.5,4.5,188.6,3.9c67.2-0.5,134.3-0.1,201.5,0.2c30.5,0.1,52.4-2.5,82.9-4.1
		L488.4,74.9z"/>
	<path d="M482.6,93.4H28c-3.2,0-5.9-2.6-5.9-5.9c0-3.9,0-9,0-13c0-3.4,2.8-6,6.2-5.9c65.5,3,113.7,4.2,178.8,3.7
		c67.2-0.5,134.3-0.1,201.5,0.2c28.5,0.1,45.3-2.2,73.7-3.8c3.4-0.2,6.2,2.5,6.2,5.9v12.9C488.4,90.7,485.8,93.4,482.6,93.4z"/>
	<path d="M37.2,93.5H481c0,0,0,21.3,0,21.3c-66.8-3.2-121.3-0.8-188.1-0.3c-66.1,0.5-132.3,0.6-198.4-0.1c-29.7-0.3-29,2-56.9,3.6
		c-4.4,0.3-8.2-3.3-8.2-7.7v-9.2C29.5,96.9,33,93.5,37.2,93.5z"/>
</g>
<g>
	<path class="st0" d="M181,23.8v85.6h-19.3V76.3h-22.9v33.1h-19.3V23.8h19.3V57h22.9V23.8H181z"/>
	<path class="st0" d="M252.5,88c-1.3,4.3-3.4,8-6.5,11.2c-3.1,3.4-6.7,5.9-10.8,7.7c-4,1.8-8.3,2.6-12.8,2.6h-0.1
		c-4.4,0-8.7-0.9-12.7-2.6c-4-1.8-7.6-4.3-10.9-7.6c-3-3.2-5.1-6.9-6.4-10.9c-1.3-4.1-1.9-8.4-2-13v-20c0-3.7,0.7-7.4,2.2-11.2
		c1.5-3.8,3.5-7.1,6.2-10.1c3.2-3.3,6.8-5.8,10.8-7.6c4-1.8,8.2-2.6,12.8-2.6h0.1c4.5,0,8.8,0.9,12.8,2.6c4,1.8,7.6,4.3,10.8,7.6
		c2.8,2.9,4.8,6.2,6.2,9.9c1.4,3.7,2.1,7.5,2.2,11.4v20C254.4,79.5,253.7,83.7,252.5,88z"/>
	<path class="st0" d="M334.8,109.4h-20.5V79.5l-10.5,29.9h-12.4l-10.7-30.8v30.8h-20.5V23.8h19.7l17.7,49.7l17.8-49.7h19.3V109.4z"
		/>
	<path class="st0" d="M362.4,43.2V57h24.4v19.3h-24.4v13.8h33.1v19.3H343V23.8h52.5v19.3H362.4z"/>
</g>
</svg>
