<?xml version="1.0" encoding="utf-8"?>
<!-- Generator: Adobe Illustrator 19.2.0, SVG Export Plug-In . SVG Version: 6.00 Build 0)  -->
<svg version="1.1" xmlns="http://www.w3.org/2000/svg" xmlns:xlink="http://www.w3.org/1999/xlink" x="0px" y="0px"
	 viewBox="0 0 500 130" style="enable-background:new 0 0 500 130;" xml:space="preserve">
<style type="text/css">
	.st0{fill:#F9F9F9;}
</style>
<g id="Layer_1">
	<g>
		<path d="M473.3,37.9H29.5c0,0,0-25,0-25c66.8,3.2,109.7,4.5,176.6,4c66.1-0.5,132.3-0.6,198.4,0.1c29.7,0.3,40.6-2,68.4-3.6
			c4.4-0.3,8.2,3.3,8.2,7.7v9.2C481,34.5,477.6,37.9,473.3,37.9z"/>
		<path d="M488.4,52.7H22.1c0,0,0-25,0-25c67.1,3.2,117.8,4.5,185,3.9c67.2-0.5,134.3-0.1,201.5,0.2c30.5,0.1,49.4-2.5,79.9-4.1
			V52.7z"/>
		<path d="M488.4,74.9H16.9l1.5-25c67.1,3.2,121.5,4.5,188.6,3.9c67.2-0.5,134.3-0.1,201.5,0.2c30.5,0.1,52.4-2.5,82.9-4.1
			L488.4,74.9z"/>
		<path d="M482.6,93.4H28c-3.2,0-5.9-2.6-5.9-5.9c0-3.9,0-9,0-13c0-3.4,2.8-6,6.2-5.9c65.5,3,113.7,4.2,178.8,3.7
			c67.2-0.5,134.3-0.1,201.5,0.2c28.5,0.1,45.3-2.2,73.7-3.8c3.4-0.2,6.2,2.5,6.2,5.9v12.9C488.4,90.7,485.8,93.4,482.6,93.4z"/>
		<path d="M37.2,93.5H481c0,0,0,21.3,0,21.3c-66.8-3.2-121.3-0.8-188.1-0.3c-66.1,0.5-132.3,0.6-198.4-0.1c-29.7-0.3-29,2-56.9,3.6
			c-4.4,0.3-8.2-3.3-8.2-7.7v-9.2C29.5,96.9,33,93.5,37.2,93.5z"/>
	</g>
	<g>
		<g>
			<path class="st0" d="M106.9,36.8c2.1,0.9,3.9,2.2,5.3,3.9c1.5,1.7,2.6,3.7,3.4,6.1c0.8,2.4,1.2,5,1.2,8c0,2.9-0.4,5.5-1.2,7.9
				c-0.8,2.4-1.9,4.4-3.4,6.1c-1.5,1.7-3.2,3-5.3,4c-2.1,0.9-4.4,1.4-7,1.4h-0.1h-4.4v21H81.7V35.5h18.1h0.1
				C102.5,35.5,104.8,35.9,106.9,36.8z"/>
			<path class="st0" d="M165,80.2c-0.9,3-2.4,5.6-4.5,7.8c-2.2,2.4-4.7,4.1-7.5,5.4c-2.8,1.2-5.8,1.8-8.9,1.8H144
				c-3.1,0-6.1-0.6-8.9-1.8c-2.8-1.2-5.3-3-7.6-5.3c-2.1-2.2-3.6-4.8-4.4-7.6c-0.9-2.8-1.3-5.9-1.4-9.1V57.4c0-2.6,0.5-5.2,1.5-7.8
				c1-2.6,2.5-5,4.3-7c2.2-2.3,4.8-4.1,7.5-5.3c2.8-1.2,5.7-1.8,8.9-1.8h0.1c3.2,0,6.1,0.6,8.9,1.8c2.8,1.2,5.3,3,7.5,5.3
				c1.9,2,3.4,4.3,4.3,6.9c1,2.6,1.5,5.2,1.5,7.9v13.9C166.3,74.3,165.9,77.2,165,80.2z"/>
			<path class="st0" d="M192.1,95.1l-8-19.4h-0.2v19.4h-13.5V35.5h18.1h0.1c3.4,0,6.3,0.5,8.5,1.6c2.3,1,4.1,2.4,5.5,4.2
				c1.4,1.7,2.3,3.8,2.9,6.1c0.6,2.3,0.9,4.8,0.9,7.3c0,2.7-0.4,5-1.3,7.1c-0.9,2.1-1.9,3.8-3.1,5.2c-1.2,1.4-2.4,2.5-3.6,3.2
				c-1.2,0.7-2.2,1.1-2.9,1.1l12.1,23.8H192.1z"/>
			<path class="st0" d="M252.1,48.9h-13.5v46.2h-13.5V48.9h-13.5V35.5h40.5V48.9z"/>
			<path class="st0" d="M270,48.9v9.6h17V72h-17v23.1h-13.5V35.5H293v13.5H270z"/>
			<path class="st0" d="M340,80.2c-0.9,3-2.4,5.6-4.5,7.8c-2.2,2.4-4.7,4.1-7.5,5.4c-2.8,1.2-5.8,1.8-8.9,1.8H319
				c-3.1,0-6-0.6-8.9-1.8c-2.8-1.2-5.3-3-7.6-5.3c-2.1-2.2-3.6-4.8-4.4-7.6c-0.9-2.8-1.3-5.9-1.4-9.1V57.4c0-2.6,0.5-5.2,1.5-7.8
				c1-2.6,2.5-5,4.3-7c2.2-2.3,4.8-4.1,7.5-5.3c2.8-1.2,5.7-1.8,8.9-1.8h0.1c3.2,0,6.1,0.6,8.9,1.8c2.8,1.2,5.3,3,7.5,5.3
				c1.9,2,3.4,4.3,4.3,6.9s1.5,5.2,1.5,7.9v13.9C341.4,74.3,340.9,77.2,340,80.2z"/>
			<path class="st0" d="M374.9,81.6v13.5h-29.4V35.5h13.5v46.2H374.9z"/>
			<path class="st0" d="M393.4,95.1H380V35.5h13.5V95.1z"/>
			<path class="st0" d="M442.5,80.2c-0.9,3-2.4,5.6-4.5,7.8c-2.2,2.4-4.7,4.1-7.5,5.4c-2.8,1.2-5.8,1.8-8.9,1.8h-0.1
				c-3.1,0-6-0.6-8.9-1.8c-2.8-1.2-5.3-3-7.6-5.3c-2.1-2.2-3.6-4.8-4.4-7.6c-0.9-2.8-1.3-5.9-1.4-9.1V57.4c0-2.6,0.5-5.2,1.5-7.8
				c1-2.6,2.5-5,4.3-7c2.2-2.3,4.8-4.1,7.5-5.3c2.8-1.2,5.7-1.8,8.9-1.8h0.1c3.2,0,6.1,0.6,8.9,1.8c2.8,1.2,5.3,3,7.5,5.3
				c1.9,2,3.4,4.3,4.3,6.9s1.5,5.2,1.5,7.9v13.9C443.8,74.3,443.3,77.2,442.5,80.2z"/>
		</g>
	</g>
</g>
<g id="Layer_2">
</g>
</svg>
