<?xml version="1.0" encoding="utf-8"?>
<!-- Generator: Adobe Illustrator 19.2.0, SVG Export Plug-In . SVG Version: 6.00 Build 0)  -->
<svg version="1.1" xmlns="http://www.w3.org/2000/svg" xmlns:xlink="http://www.w3.org/1999/xlink" x="0px" y="0px"
	 viewBox="0 0 500 130" style="enable-background:new 0 0 500 130;" xml:space="preserve">
<style type="text/css">
	.st0{fill:#F9F9F9;}
	.st1{font-family:'Blackout-Midnight';}
	.st2{font-size:106.0998px;}
</style>
<g id="Layer_1">
	<g>
		<path d="M473.3,37.9H29.5c0,0,0-25,0-25c66.8,3.2,109.7,4.5,176.6,4c66.1-0.5,132.3-0.6,198.4,0.1c29.7,0.3,40.6-2,68.4-3.6
			c4.4-0.3,8.2,3.3,8.2,7.7v9.2C481,34.5,477.6,37.9,473.3,37.9z"/>
		<path d="M488.4,52.7H22.1c0,0,0-25,0-25c67.1,3.2,117.8,4.5,185,3.9c67.2-0.5,134.3-0.1,201.5,0.2c30.5,0.1,49.4-2.5,79.9-4.1
			V52.7z"/>
		<path d="M488.4,74.9H16.9l1.5-25c67.1,3.2,121.5,4.5,188.6,3.9c67.2-0.5,134.3-0.1,201.5,0.2c30.5,0.1,52.4-2.5,82.9-4.1
			L488.4,74.9z"/>
		<path d="M482.6,93.4H28c-3.2,0-5.9-2.6-5.9-5.9c0-3.9,0-9,0-13c0-3.4,2.8-6,6.2-5.9c65.5,3,113.7,4.2,178.8,3.7
			c67.2-0.5,134.3-0.1,201.5,0.2c28.5,0.1,45.3-2.2,73.7-3.8c3.4-0.2,6.2,2.5,6.2,5.9v12.9C488.4,90.7,485.8,93.4,482.6,93.4z"/>
		<path d="M37.2,93.5H481c0,0,0,21.3,0,21.3c-66.8-3.2-121.3-0.8-188.1-0.3c-66.1,0.5-132.3,0.6-198.4-0.1c-29.7-0.3-29,2-56.9,3.6
			c-4.4,0.3-8.2-3.3-8.2-7.7v-9.2C29.5,96.9,33,93.5,37.2,93.5z"/>
	</g>
	<text transform="matrix(1 0 0 1 41.3477 106.1211)" class="st0 st1 st2">Theories</text>
</g>
<g id="Layer_2">
</g>
</svg>
