<?xml version="1.0" encoding="utf-8"?>
<!-- Generator: Adobe Illustrator 19.2.0, SVG Export Plug-In . SVG Version: 6.00 Build 0)  -->
<svg version="1.1" id="Layer_1" xmlns="http://www.w3.org/2000/svg" xmlns:xlink="http://www.w3.org/1999/xlink" x="0px" y="0px"
	 viewBox="0 0 1000 700" style="enable-background:new 0 0 1000 700;" xml:space="preserve">
<style type="text/css">
	.st0{fill:#FFFFFF;stroke:#000000;stroke-width:2;stroke-miterlimit:10;}
	.st1{fill:#46514B;stroke:#000000;stroke-miterlimit:10;}
	.st2{fill:#252B28;stroke:#000000;stroke-miterlimit:10;}
	.st3{fill:#FFFFF7;stroke:#000000;stroke-miterlimit:10;}
</style>
<path class="st0" d="M47.2,410.7c0,0,70.8-39,122.6-51.8c51.8-12.7,171.8-59.1,233.6-157.2c0,0,12.2-1.8,19,3.5
	c6.8,5.3,6.8,5.3,6.8,5.3l6.8-0.7l13.5,1.5l15,7.2l12,8.7h14.7l13.9-5.6l15-5.9l11.3,5.4h15l15.8-0.5l33.8,8.9
	c0,0,33.1,4.4,51.1,18.7s18,14.4,18,14.4l11.3,4.6h14.3l18.8,7.5c0,0,24.8,11.2,24.8,11.2c51.5,34,105.6,66,161.9,91.3
	c32.8,14.7,68.3,22.5,89,54.5c21,32.3-217.2,160.1-544.1,122.5C114.2,516.3,47.2,410.7,47.2,410.7z"/>
<path class="st1" d="M100.2,407.3c0,0,62.8-34.6,108.8-45.9S361.4,309,416.2,221.9c0,0,10.8-1.6,16.8,3.1c6,4.7,6,4.7,6,4.7l6-0.7
	l12,1.3l13.3,5.9l10.7,7.3h13l12.3-4.5l13.3-5.2l10,4.8H543l14-0.2l30,8c0,0,29.3,4,45.3,16.7c16,12.7,16,12.6,16,12.6l10,3.9H671
	l16.7,6.8c0,0,22,10,22,10c45.7,30.1,93.7,58.6,143.7,81c29.1,13,60.6,20,79,48.3c18.7,28.7-192.7,142-482.7,108.7
	C159.7,501,100.2,407.3,100.2,407.3z"/>
<path class="st2" d="M582,336.5l-0.3-8.2l-2.7-14l-12.7-9.3l-22-8l-2.7-12.7l-14-19.3l-4-6.7l12-2.7l7.3,3.3l11.3,7.3l12.7,4l10,2
	l11.3,8.7l6.7,6l22,4.7l18,5.3l15.3,6l22,3.2l16.7,1.2h17l15.8-3.3c-4.1-2.6-8.1-5.3-12.1-7.9l-22-10l-16.7-6.8h-12.7l-10-3.9
	c0,0,0,0.1-16-12.6c-16-12.7-45.3-16.7-45.3-16.7l-30-8l-14,0.2h-13.3l-10-4.8l-13.3,5.2l-12.3,4.5h-13l-10.7-7.3l-13.3-5.9l-12-1.3
	l-6,0.7c0,0,0,0-6-4.7c-5.4-4.2-14.6-3.3-16.5-3.1l0,0c0,0-4.7,20.4,1.3,47.8l5.9,8.7l1.3,8.7l4.6,6.7l4,10.7l2.7,13.3l10,8l18.7,12
	l15.3,13.3l14,14.7l14.7,4.7c0,0-2-25.3-4.7-27.3c-2.7-2-7.3-22-7.3-22l0.7-4.7l6-8.7l-9.3-22.7l6-10l11.3,10l4,11.3l8.7,14.7
	l9.3,8.7l19.3,14.1l13.3,2.8H582z"/>
<polygon class="st2" points="436,342.4 428.5,363.7 428.5,374 428.3,389 439.7,413 443,427 444.3,438.3 453.7,468.2 463.7,477.5 
	476,477.5 480.5,475 480.5,456 483,427.7 475,408.3 464.3,378.3 451.6,365.7 447.5,354.3 447.5,342 440.3,337.7 "/>
<polygon class="st2" points="713.6,370 743.6,376.5 757,389.1 771.7,399.7 791,416.4 815.7,455.7 817,460.3 811,461 797,458.3 
	780.3,437.3 750.3,421.5 738,421.5 710.3,417.7 694.9,407 687.5,393 687.5,386 696.3,392.2 702.3,393.5 714,393.5 721,393.7 
	723.7,386.3 716.3,377.7 "/>
<path class="st2" d="M526.5,539.9l-17.5-5.6l-18-10.7l-21.3-10l-20-14.7L431,484.3L413.7,463l-15.3-14.7l-7.3-10l-4.7-12.7l0.2-7.7
	v-5.7l-0.8-14l-6,5.3l-2,14l-4.7,13.8h-8.7l-14.7-1.2l-12-0.6l-18.7-8l-27-2.2h-11.7l-3.3,10.4l12.7,15.1l17.3,1.3l25.3,16.7
	l8.7,5.3l4.7,4L363,501l12.7,16l18.4,9.8c17.5,2.8,36,5.3,55.6,7.5C476,537.4,501.6,539.2,526.5,539.9z"/>
<polygon class="st3" points="391.7,272.1 386.3,284.9 373,292.3 361.8,300.3 348.5,309 348.5,314 352.3,319.5 372,319.5 385,319.7 
	387,313 392.3,307.7 398.4,299.7 404.5,282.3 404.5,269 403.7,259.7 395.7,262.3 "/>
<polygon class="st3" points="324,325.5 334,325.5 340.5,326.3 340.5,331 335,334.5 322,334.5 "/>
<polygon class="st3" points="268,347.5 281,347.5 291,342.5 301,342.5 312.3,342.5 324,342.5 336.3,341 344.3,338.3 350.8,335 
	362.5,334.3 362.5,342 351,349.5 333,349.5 315.7,349.5 302,349.5 289.7,352.3 275,354.3 267,353 "/>
<polygon class="st3" points="379,329.5 389,329.5 391.5,335.7 391.5,350 383,356.3 367.7,364.3 349,371.7 331,371 323.7,367.6 
	331.7,361.5 340,361.5 347,361 352.3,357.7 363,348.3 375,343 "/>
<polygon class="st3" points="511.6,300.4 526.3,323.7 539.6,334.4 550.3,340.3 569.7,357.5 585,357.5 599,365.7 624.3,381 
	628.3,393.7 623,399.7 606.3,401 579,396.3 571,377.7 557,375 541.7,356.3 532.3,350.3 521,344.3 510.2,336.3 505.5,330.3 
	505.5,320 505.7,311.7 506.3,299.7 "/>
<path class="st3" d="M692.5,521.7l-1.8-13.3l-1.1-8.7L670.3,479L645,459l-18-28.7l-14-12l-14.7-9.4l-15.5-0.8l-1.8,8.2l9.3,8
	L611,449l12.7,17.3l10.7,12l13.3,1.3l14.7,20l17.3,22l7.1,9.1c1.9-0.3,3.8-0.6,5.7-0.9V521.7z"/>
</svg>
