<?xml version="1.0" encoding="utf-8"?>
<!-- Generator: Adobe Illustrator 19.2.0, SVG Export Plug-In . SVG Version: 6.00 Build 0)  -->
<svg version="1.1" id="Layer_1" xmlns="http://www.w3.org/2000/svg" xmlns:xlink="http://www.w3.org/1999/xlink" x="0px" y="0px"
	 viewBox="0 0 669 130" style="enable-background:new 0 0 669 130;" xml:space="preserve">
<style type="text/css">
	.st0{fill:#22224C;}
</style>
<g id="Layer_2">
</g>
<g id="Shape_34">
	<path class="st0" d="M149,82.7c-0.7,2.1-0.6,4.4-1.1,6.5c-0.5,2.1-2.3,4.3-4.5,4.2c-3.2-2.7-4.1-7.7-2-11.4c1.6-2.8-4.4-5-3.7-8.1
		c0.4-1.6,2.4-2.2,3.9-2.8c5.9-2.4,8.5-9.1,10.4-15.2c3.1-9.7,6.3-19.5,9.4-29.2c0.7-2,1.5-4.3,3.4-5.3c4.3,11.9,8.5,23.9,12.8,35.8
		c1.3,3.7,3.1,7.8,6.9,8.9c2,0.6,4.2,0.1,6.2,0.6s4,2.7,3,4.5c-1.5,2.7-5.7,0-8.7,0.9c-2.1,0.6-3.2,3.2-2.9,5.4
		c0.2,2.2,1.4,4.2,2.4,6.2c3.4,6.9,4.7,14.8,3.8,22.4c-1.2,1.2-3-0.7-3.5-2.3c-2.6-7.4-5.2-14.9-7.8-22.3c-0.8-2.2-1.6-4.6-3.5-6.1
		c-2.9-2.3-7-1.8-10.7-1.1C157.3,75.6,150.9,77.4,149,82.7 M164.3,41c-2.4,6-4.8,12.1-7.2,18.1c-0.6,1.6-1.3,3.4-1.1,5.1
		s1.5,3.5,3.3,3.5c3.5,0,7.5-0.2,9.7-2.9c-2.3-2.8-4.8-6.6-2.8-9.7C169,50.8,168.1,44.5,164.3,41z"/>
	<path class="st0" d="M79.6,45.6C76.1,61.9,67,77,65.9,93.6c-0.1,2.2-0.2,4.5-1.4,6.3c-1.2,1.8-4.2,2.6-5.6,1
		c-0.4-0.4-0.6-0.9-0.8-1.5C54,89.3,49.8,79.2,45.6,69c-4.1,5.4-7.2,11.6-9,18.2c-1.8,6.8-3.5,15.2-10.2,17.2
		c-1.7-0.3-2.5-2.2-2.5-3.9c0-1.7,0.6-3.3,0.6-5c0-1.3-0.4-2.6-0.8-3.8c-4.8-15.1-9.1-30.5-12.8-45.9c-0.6-2.5-0.3-6.2,2.3-6.2
		c1.3,0,2.3,1.2,3.1,2.2c7.6,10.9,11.6,24.3,11,37.6c-0.1,3-0.1,6.8,2.5,8.2c2.8-12.5,7.5-24.5,13.9-35.6c0.5-0.9,1.2-1.9,2.2-2.3
		c1-0.4,2.4,0.4,2.2,1.5c-1.5,7.3,6.4,13,8.5,20.2c1,3.5,1.4,8.4,5,9.1c1.9-6.1,3.3-12.3,4.3-18.5c1.2-8.1,4.9-15.5,8.6-22.7
		c0.9-1.8,3.9-1.3,5,0.4S80,43.7,79.6,45.6z"/>
	<path class="st0" d="M338.1,82.3c0.5-5.5,1.6-11,3.3-16.4c-7.2-2-15.6,3-17.2,10.3c-0.7,3.3-0.3,6.7-0.8,10
		c-0.5,3.3-2.6,6.8-5.9,7.3c-0.3-8.4-0.1-16.7,0.7-25.1c0.3-3.6-7.7-3.1-7.4-6.7c0.3-3.9,9-0.7,9.7-4.6c1.4-7.8,2.9-15.6,4.3-23.4
		c0.3-1.7,0.7-3.6,1.9-4.9c1.2-1.3,3.5-1.8,4.7-0.4c0.7,0.8,0.8,1.9,0.9,3c0.3,7.1-0.6,14.3-2.8,21.1c-0.5,1.4-1,2.9-0.5,4.3
		c0.7,2.2,3.3,3.2,5.5,2.9c5.9-0.6,9.4-7,10.5-12.9s0.9-12.2,4.1-17.2c3.9,2.1,4,7.7,2.9,12c-1.1,4.3-2.9,8.9-1.1,13
		c0.9,2.1,2.7,4.7,1.1,6.4c-6.6,6.9-6.7,17.6-6.4,27.1c0.1,2.6-4,3.4-5.9,1.6S337.8,84.9,338.1,82.3z"/>
	<path class="st0" d="M92,88.2c0.8-2.9,1.6-6,1.1-8.9c-0.5-3-2.7-5.9-5.7-6.2c-1.9-0.2-2.3-3.2-0.9-4.6c1.4-1.4,3.5-1.6,5.4-2.1
		s4-1.6,4.3-3.5c1.1-7.3,2.1-14.5,3.2-21.8c0.4-2.5,2.4-5.7,4.4-4.3c0.7,0.5,1,1.5,1.2,2.3c1,5.2,0.8,10.6-0.7,15.7
		c-0.7,2.6-1.2,6.3,1.4,7.1c0.7,0.2,1.5,0.1,2.2-0.1c4.2-0.8,8.6-1.7,12.3-3.9c3.7-2.2,6.9-5.9,7.1-10.2c0.2-2.8-0.9-5.7-0.4-8.5
		c0.4-2.8,3.6-5.6,6-4c1.8,1.2,1.7,3.7,1.5,5.8c-2.2,18.1-6.6,36-11,53.7c-0.4,1.6-1.8,3.7-3.2,2.9c-2.6-5.6-1.1-12.2,0.3-18.2
		c1.3-5.1,2.5-10.2,3.8-15.3c-5.8,1.5-11.4,3.4-17,5.7c-2.1,0.9-4.3,1.9-5.7,3.7c-1.1,1.3-1.6,3-2,4.6c-1.4,5.1-2.3,10.3-2.8,15.6
		c-0.2,2-3.5,2.1-4.6,0.5C91,92.4,91.4,90.1,92,88.2z"/>
	<path class="st0" d="M526.9,42.9c-1.2-2.1,1.6-4.2,3.9-4.9c8.5-2.7,17.6-3.7,26.5-3c-1.2,6-8,10.3-14,8.7c-2.6-0.7-5.4,1.2-6.6,3.7
		c-1.2,2.4-1.2,5.3-1.2,8c0,2.9,3.7,4.3,6.5,3.6s5-2.8,7.7-3.8c2.7-1,6.4-0.4,7.3,2.3c0.6,1.9-0.6,3.9-2.3,5
		c-1.7,1.1-3.7,1.4-5.6,1.7c-4,0.7-8.2,1.6-11.5,4c-3.3,2.4-5.5,6.8-4.2,10.7c0.6,1.7,2.9,1.8,4.7,1.6c5-0.7,10-1.3,14.9-2
		c2.3-0.3,3.5,3.2,2,5.1c-1.4,1.9-4,2.3-6.3,2.6c-4.4,0.6-8.7,1.2-13.1,1.7c-2.5,0.3-5.2,0.6-7.5-0.4c-2.3-1-4.1-3.9-3-6.1
		c2.5-5.2,3.3-11.3,2.2-17c-0.7-3.9,1.5-7.6,2.7-11.3C531.1,49.3,530.6,44.1,526.9,42.9z"/>
	<path class="st0" d="M585.4,84.1c-4.4,0.5-8.8,0.5-13.2,0.2c-2.2-0.2-4.6-0.5-6.4-1.9c-1.7-1.4-2.4-4.4-0.7-5.9
		c2.7-2.5,3.7-6.3,4.5-9.9c2-8.5,4-16.9,6-25.4c0.4-1.8,0.9-3.7,0.4-5.5c-0.5-2.1,1.4-4.2,3.5-4.7c2.1-0.6,4.3,0,6.4,0.5
		c5,1.3,10.2,2.7,13.9,6.2c5.2,5,6.2,12.9,6.1,20.1c-0.1,8.6-2.1,18.2-9.3,22.8C593.4,83,589.3,83.7,585.4,84.1 M574.4,77.5
		c6.2,4,15,2.5,20.4-2.5s7.5-12.9,6.5-20.2c-0.8-6.4-4.3-12.8-10.2-15.3c-3.2-1.4-7.9-0.8-8.8,2.6C579.5,53.8,576.8,65.6,574.4,77.5
		z"/>
	<path class="st0" d="M490.7,41.1c1.3-2.1,4.8-1.2,6.2,0.8c1.4,2,1.4,4.6,1.9,7.1c1,5.7,4.8,11.1,10.2,13.1c1-6.9,2-13.8,3-20.7
		c0.2-1.6,0.7-3.5,2.2-4.1c4.7,5.9,3.3,14.4,1.6,21.7c-1.7,7.6-3.4,15.3-5.1,22.9c-0.2,1-0.5,2-1.2,2.6c-1.2,1-3.1,0.6-4.2-0.6
		c-1.1-1.1-1.5-2.7-1.9-4.2c-1-3.9-2.1-7.8-3.1-11.8c-0.8-2.9-2.1-6.4-5.1-7c-0.7,5.6-1.4,11.2-2.1,16.8c-0.2,1.4-0.4,2.8-1.2,3.8
		s-2.6,1.6-3.6,0.7c-1.1-13-0.5-26.2,1.7-39.1C490.2,42.5,490.3,41.7,490.7,41.1 M508.2,70.4c1.6-1.9-0.5-5.5-3-4.9
		c-1,2.7-0.4,5.9,1.5,8.1c0.6-1,1.1-2,1.7-3.1 M496,59.1c1.2-1.6,0.2-4.2-1.7-4.6c-0.4,1.2-0.9,2.4-1.3,3.5c0.4,1.1,1.9,1.6,2.8,1
		L496,59.1z"/>
	<path class="st0" d="M452.7,57.7c1.6-2.7,0.9-6.2,0.1-9.2s-1.5-6.4-0.1-9.3c1.4-2.8,6.1-4,7.6-1.2c0.8,1.4,2.8,1.2,4.3,0.9
		c4.8-1,9.7-2.1,14.5-3.1c2.4,1.8,1.4,6-1.1,7.7c-2.5,1.7-5.7,1.8-8.7,2c-3,0.3-6.3,1-8,3.5c-0.5,0.7-0.9,1.6-0.7,2.5
		c0.3,2.1,3,2.9,5,2.5c2.1-0.4,4-1.5,6-1.6s4.5,1.6,4,3.6c-2.3,2.7-5.6,4.1-8.7,5.6c-3.2,1.5-6.4,3.1-8.4,6c-2,2.9-2.2,7.3,0.5,9.5
		c3,2.5,7.5,1.1,11.3,0.1c3.8-1,9-0.7,10.2,3c-6.7,4-14.7,5.2-22.5,6.2c-1.7,0.2-3.6,0.4-5.1-0.5c-2.8-1.8-2-6.1-1-9.3
		c1-3.2,1-7.9-2.3-8.8c-2.1-0.6-2.2-3.6-1.1-5.4C449.7,60.8,451.6,59.6,452.7,57.7 M456.8,44c-0.2,0.8-0.1,1.8,0.4,2.5
		c1.3,0.1,2.6-1.2,2.6-2.5C459,43.3,457.6,43.2,456.8,44L456.8,44z"/>
	<path class="st0" d="M231.9,31.1c-0.1,3.2-1.5,6.4-3.8,8.6c2.7,1.5,5.7-0.8,8.4-2.3c2.7-1.5,7.3-1.2,7.3,1.9c0,1.7-1.7,2.9-3.3,3.3
		c-1.6,0.4-3.3,0.3-4.9,0.7c-6.1,1.6-7.3,9.5-7.5,15.8c-0.5,14.3-2.3,28.5-5.2,42.5c-3.2-1.4-3.4-5.8-3.1-9.3c1.1-13,2.2-26,3.3-39
		c0.2-2.1-0.9-5.3-2.9-4.5c-5.9,2.5-12.8,5-18.4,2c-2-1.1-3.5-4.5-1.4-5.4C210.9,40.5,221.4,35.8,231.9,31.1 M225,42.9
		c-0.1-1.8-2.8-1.7-4.4-1c0.6,1.6,3,2.1,4.2,0.9L225,42.9z"/>
	<path class="st0" d="M361.8,89.5c-5.2-2.9-6.1-9.9-6.4-15.9c-0.1-1.7-0.2-3.5,0.4-5.2c0.4-1.3,1.3-2.5,2.1-3.7
		c5.1-7.6,8.3-16.4,9.2-25.5c0.2-1.6,0.3-3.4,1.5-4.6c1.2-1.2,3.7-1,4,0.6c1.6,8.3,4.4,16.3,8.3,23.8c1.5,2.9,3.1,6.3,1.7,9.2
		c-1.5,3-0.1,6.7,0.9,9.9s1.5,7.4-1.1,9.5c-5.6-3.6-2.6-14.7-8.9-17.1c-4-1.5-8.1,2.4-9.3,6.5C362.9,81.1,363.3,85.5,361.8,89.5
		 M372.6,56.9c1.1-2.8,0-6.2-2.5-7.8c-2.3,4.6-3.1,9.9-2.2,15c1.7,0.9,4.1,0.3,5.2-1.3c1.1-1.6,0.8-4-0.7-5.3L372.6,56.9z"/>
	<path class="st0" d="M409.9,41.8c-0.2,6.7-1.8,14.1-7.3,17.8c-2.5,1.7-5.9,2.7-7.3,5.4c-1.4,2.9,0,6.2,0.5,9.4
		c0.5,3.2-1.1,7.4-4.2,7.1c-2.6-9.6-3.9-19.6-3.6-29.6c0.2-6.2,1.1-12.9,5.5-17.2c4.4-4.3,13.3-4.2,15.7,1.5
		C409.9,37.9,409.9,39.9,409.9,41.8 M404.4,37.6c-2.6-1.2-5.8,0.6-7.2,3.2s-1.3,5.6-1.2,8.5c0.1,2.2,0.1,4.5,0.2,6.7
		c2.5,2,5.7-1.5,7-4.5C405.1,47,406.9,41.7,404.4,37.6z"/>
	<path class="st0" d="M416.4,49.6c1.1-5.3-0.3-12.3,4.4-15.1c1.2-0.7,2.5-0.9,3.9-1.1c7.1-0.8,15.5,1.5,18.2,8
		c2.2,5.2-0.1,11.5-4.2,15.4c-4.1,3.9-9.8,5.7-15.3,6.8c-2,0.4-3.1,2.7-3.1,4.7c0,2,0.8,4,1.1,6c0.3,2-0.2,4.4-2,5.4
		c-1.8,1-4.7-0.6-4-2.6c2.3-6.5-2.3-13.6-1.2-20.3C414.7,54.5,415.9,52.1,416.4,49.6 M436.8,52.1c2.9-3.9,1.3-10.2-3-12.3
		c-4.3-2.1-10.3,0.6-11.5,5.3c-1,3.9,0.8,8.6-1.5,11.9c2.5,2.5,6.7,1,9.9-0.6C432.9,55.3,435.3,54.1,436.8,52.1z"/>
	<path class="st0" d="M633.1,83.2c-2,0-3.7-2.4-3-4.3c0.7-1.9,3.6-2.5,5-1c1.3,1.5,0.3,4.4-1.7,4.7L633.1,83.2z"/>
	<path class="st0" d="M626.4,64.4c-0.1-5.4,5.5-8.8,10-11.9c3.6-2.5,6.8-5.5,9.5-8.8c2.1-2.6,4-5.9,3.2-9.1
		c-0.8-3.5-4.8-5.7-8.4-5.5c-3.6,0.2-6.9,2.3-9.5,4.8c-1.2,1.1-2.4,2.4-4,2.9c-1.6,0.5-3.7,0-4.1-1.6c-0.4-1.5,0.6-2.9,1.7-4
		c3.8-4,8.9-7.1,14.4-7.5c5.5-0.4,11.5,2.5,13.6,7.6c2.9,7-2,14.9-7.6,20.1s-12.5,9.7-15.1,16.8C628.2,68.8,626.4,66.4,626.4,64.4z"
		/>
</g>
</svg>
