<?xml version="1.0" encoding="utf-8"?>
<!-- Generator: Adobe Illustrator 18.1.1, SVG Export Plug-In . SVG Version: 6.00 Build 0)  -->
<!DOCTYPE svg PUBLIC "-//W3C//DTD SVG 1.1//EN" "http://www.w3.org/Graphics/SVG/1.1/DTD/svg11.dtd">
<svg version="1.1" id="Layer_1" xmlns="http://www.w3.org/2000/svg" xmlns:xlink="http://www.w3.org/1999/xlink" x="0px" y="0px"
	 viewBox="0 0 187 53.5" enable-background="new 0 0 187 53.5" xml:space="preserve">
<g>
	<path fill="#18335C" stroke="#18335C" d="M9.7,30.4c-1.8,0-4.2-0.3-5.6-0.8c-0.7-0.3-0.9-0.6-0.8-1.2l0.3-1.2
		c0.1-0.6,0.3-0.6,0.9-0.5c1.6,0.3,3.9,0.4,5.1,0.4c2.3,0,3.2-0.6,3.2-2c0-1.6-0.6-2-2.9-2.3c-3.5-0.5-6.6-1.2-6.6-5.2
		c0-3.6,2.7-5.4,6.7-5.4c1.5,0,3.9,0.2,5.5,0.8c0.6,0.3,0.9,0.5,0.8,1.1l-0.3,1.3c-0.1,0.5-0.3,0.6-1,0.5c-1.6-0.2-3.6-0.4-4.9-0.4
		c-2.3,0-2.8,0.6-2.8,2c0,1.4,0.9,1.6,3,1.9c3.4,0.5,6.5,1.2,6.5,5.5C16.9,29,13.4,30.4,9.7,30.4"/>
	<path fill="#18335C" stroke="#18335C" d="M34.7,30.1h-2.5c-0.5,0-0.7-0.2-0.7-0.7c0-3.5,0-6.9,0-10.3c0-2-0.4-3.3-2.6-3.3
		c-1.4,0-3.9,1.2-4.9,1.6v12.1c0,0.4-0.2,0.7-0.7,0.7h-2.5c-0.5,0-0.6-0.2-0.6-0.7V5.5c0-0.5,0.2-0.7,0.6-0.7h2.5
		c0.5,0,0.7,0.3,0.7,0.7v8.7c1.3-0.8,3.7-2,5.9-2c4.9,0,5.5,3.2,5.5,6.8v10.4C35.4,29.8,35.3,30.1,34.7,30.1"/>
	<path fill="#18335C" stroke="#18335C" d="M56.5,30.4c-1.2,0-2.8-0.2-4.5-0.8l0,0v6.3c0,0.4-0.1,0.7-0.7,0.7h-2.5
		c-0.6,0-0.7-0.3-0.7-0.7V13.2c0-0.5,0.2-0.7,0.7-0.7h2.5c0.5,0,0.6,0.3,0.6,0.7v1.1l0.1,0.1c1.3-0.9,3.6-2.2,5.6-2.2
		c4.7,0,5.9,3.6,5.9,8.9C63.6,27,62.1,30.4,56.5,30.4 M56.8,15.8c-1.5,0-3.7,1-4.8,1.6v8.9c1.6,0.5,2.9,0.6,4.1,0.6
		c2.6,0,3.5-1.3,3.5-5.8C59.5,16.6,58.7,15.8,56.8,15.8"/>
	<path fill="#18335C" stroke="#18335C" d="M75.1,30.4c-1.2,0-2.8-0.2-4.5-0.8l0,0v6.3c0,0.4-0.1,0.7-0.7,0.7h-2.5
		c-0.6,0-0.7-0.3-0.7-0.7V13.2c0-0.5,0.2-0.7,0.7-0.7H70c0.5,0,0.6,0.3,0.6,0.7v1.1l0.1,0.1c1.3-0.9,3.6-2.2,5.6-2.2
		c4.7,0,5.9,3.6,5.9,8.9C82.3,27,80.8,30.4,75.1,30.4 M75.4,15.8c-1.5,0-3.7,1-4.8,1.6v8.9c1.6,0.5,2.9,0.6,4.1,0.6
		c2.6,0,3.5-1.3,3.5-5.8C78.2,16.6,77.3,15.8,75.4,15.8"/>
	<path fill="#18335C" stroke="#18335C" d="M89.8,29.4c0,0.4-0.2,0.7-0.6,0.7h-2.5c-0.5,0-0.7-0.2-0.7-0.7V13.2
		c0-0.5,0.2-0.7,0.7-0.7h2.5c0.5,0,0.6,0.3,0.6,0.7V29.4z"/>
	<path fill="#18335C" stroke="#18335C" d="M43.6,29.4c0,0.4-0.2,0.7-0.6,0.7h-2.5c-0.5,0-0.7-0.2-0.7-0.7V13.2
		c0-0.5,0.2-0.7,0.7-0.7H43c0.5,0,0.6,0.3,0.6,0.7V29.4z"/>
	<path fill="#18335C" stroke="#18335C" d="M108.7,30.1h-2.6c-0.5,0-0.7-0.2-0.7-0.7l0-10.1c0-2.1-0.5-3.5-2.6-3.5
		c-1.4,0-3.9,1.1-4.9,1.6v12c0,0.4-0.2,0.7-0.7,0.7h-2.5c-0.5,0-0.7-0.2-0.7-0.7V13.2c0-0.5,0.2-0.7,0.7-0.7h2.5
		c0.5,0,0.7,0.3,0.7,0.7v1.1c0,0,0.1,0,0.1,0c1.3-0.9,3.8-2.2,6-2.2c4.8,0,5.3,3.2,5.3,6.8v10.4C109.4,29.8,109.3,30.1,108.7,30.1"
		/>
	<path fill="#18335C" stroke="#18335C" d="M127.5,13.1c0.9,0.3,1,1,1,1.6v15.2c0,4.1-0.7,7.2-7.5,7.2c-1.9,0-4.3-0.2-5.8-0.8
		c-0.8-0.3-0.8-0.6-0.7-1l0.3-1.3c0.1-0.6,0.3-0.6,1-0.5c1.6,0.3,3.6,0.3,4.9,0.3c3,0,3.8-0.9,3.8-3.1v-1.2
		c-1.8,0.6-3.3,0.9-4.4,0.9c-5.8,0-7.2-3.6-7.2-8.9c0-5.6,1.7-9.2,7.8-9.2C123,12.1,125.8,12.5,127.5,13.1 M120.4,26.8
		c1,0,2.5-0.2,4.1-0.6V16c-1.1-0.2-2.4-0.3-3.6-0.3c-2.2,0-3.9,0.6-3.9,5.4C117,25.4,117.9,26.8,120.4,26.8"/>
	<path fill="#18335C" stroke="#18335C" d="M145.8,30.1h-1.5c-0.4,0-0.6-0.2-0.6-0.6l0-10.9c0-3-0.7-3.8-2.9-3.8c-1.7,0-4.9,1.5-6,2
		v12.7c0,0.5-0.2,0.6-0.6,0.6h-1.4c-0.4,0-0.6-0.2-0.6-0.6v-24c0-0.5,0.2-0.6,0.6-0.6h1.5c0.4,0,0.6,0.2,0.6,0.6v9.1l0,0
		c1.1-0.8,3.8-2.3,6.4-2.3c4.7,0,5.2,2.8,5.2,6.6v10.6C146.5,29.9,146.2,30.1,145.8,30.1"/>
	<path fill="#18335C" stroke="#18335C" d="M164.3,30.1h-1.5c-0.4,0-0.6-0.2-0.6-0.6v-1.2l-0.1-0.1c-1.2,0.8-3.8,2.3-6.3,2.3
		c-4.7,0-5.3-2.8-5.3-6.6V13.2c0-0.5,0.2-0.6,0.6-0.6h1.6c0.4,0,0.6,0.2,0.6,0.6v10.6c0,3.3,0.7,4.1,3,4.1c1.7,0,4.9-1.5,6-2.1V13.2
		c0-0.5,0.2-0.6,0.6-0.6h1.5c0.4,0,0.6,0.2,0.6,0.6v16.2C164.9,29.9,164.7,30.1,164.3,30.1"/>
	<path fill="#18335C" stroke="#18335C" d="M176.2,30.4c-2.2,0-5-0.3-6.6-0.9c-0.8-0.3-0.9-0.9-0.9-1.4V5.5c0-0.5,0.2-0.6,0.6-0.6
		h1.5c0.5,0,0.6,0.2,0.6,0.6v7.8l0,0.1c2.1-0.8,3.8-1.1,5.1-1.1c5.6,0,6.9,3.5,6.9,8.9C183.5,27.1,181.9,30.4,176.2,30.4
		 M176.7,14.7c-1.5,0-3.4,0.3-5.2,0.8v11.9c1.4,0.2,3.1,0.3,4.6,0.3c2.8,0,4.6-0.8,4.6-6.2C180.6,16.5,179.7,14.7,176.7,14.7"/>
	<path fill="#BD2830" d="M44.1,7.7c0,1.2-1,2.2-2.2,2.2c-1.2,0-2.2-1-2.2-2.2c0-1.2,1-2.2,2.2-2.2C43.1,5.5,44.1,6.5,44.1,7.7"/>
	<path fill="#BD2830" d="M90.2,7.7c0,1.2-1,2.2-2.2,2.2c-1.2,0-2.2-1-2.2-2.2c0-1.2,1-2.2,2.2-2.2C89.2,5.5,90.2,6.5,90.2,7.7"/>
</g>
<rect x="40.1" y="41" fill="none" width="106.7" height="13"/>
<text transform="matrix(1.1 0 0 1 42.3657 46.5069)" fill="#18335C" font-family="'ArialRoundedMTBold'" font-size="7.5758" letter-spacing="11.8">GLOBAL</text>
</svg>
