<?xml version="1.0" encoding="utf-8"?>
<!-- Generator: Adobe Illustrator 18.1.1, SVG Export Plug-In . SVG Version: 6.00 Build 0)  -->
<!DOCTYPE svg PUBLIC "-//W3C//DTD SVG 1.1//EN" "http://www.w3.org/Graphics/SVG/1.1/DTD/svg11.dtd">
<svg version="1.1" id="Layer_1" xmlns="http://www.w3.org/2000/svg" xmlns:xlink="http://www.w3.org/1999/xlink" x="0px" y="0px"
	 viewBox="0 1232 1728 544" enable-background="new 0 1232 1728 544" xml:space="preserve">
<g>
	<path fill="#18335C" stroke="#18335C" d="M89.5,1520.2c-16.6,0-38.7-2.8-51.8-7.3c-6.6-2.8-8.3-5.5-7.3-11.1l2.8-11.1
		c1-5.5,2.8-5.5,8.3-4.5c14.9,2.8,35.9,3.8,47,3.8c21.1,0,29.7-5.5,29.7-18.3c0-14.9-5.5-18.3-27-21.1c-32.5-4.5-60.8-11.1-60.8-48
		c0-33.2,24.9-49.8,61.9-49.8c13.8,0,35.9,1.7,50.8,7.3c5.5,2.8,8.3,4.5,7.3,10l-2.8,12.1c-1,4.5-2.8,5.5-9.3,4.5
		c-14.9-1.7-33.2-3.8-45.3-3.8c-21.1,0-25.9,5.5-25.9,18.3c0,12.8,8.3,14.9,27.6,17.6c31.4,4.5,60.1,11.1,60.1,50.8
		C156.2,1507.1,123.7,1520.2,89.5,1520.2"/>
	<path fill="#18335C" stroke="#18335C" d="M320.7,1517.5h-23.2c-4.5,0-6.6-1.7-6.6-6.6c0-32.5,0-63.6,0-95
		c0-18.3-3.8-30.4-24.2-30.4c-12.8,0-35.9,11.1-45.3,14.9v112c0,3.8-1.7,6.6-6.6,6.6h-23.2c-4.5,0-5.5-1.7-5.5-6.6v-221.9
		c0-4.5,1.7-6.6,5.5-6.6H215c4.5,0,6.6,2.8,6.6,6.6v80.5c12.1-7.3,34.2-18.3,54.6-18.3c45.3,0,50.8,29.7,50.8,62.9v96.1
		C327.3,1514.7,326.2,1517.5,320.7,1517.5"/>
	<path fill="#18335C" stroke="#18335C" d="M522.2,1520.2c-11.1,0-25.9-1.7-41.5-7.3l0,0v58.1c0,3.8-1,6.6-6.6,6.6H451
		c-5.5,0-6.6-2.8-6.6-6.6v-209.8c0-4.5,1.7-6.6,6.6-6.6h23.2c4.5,0,5.5,2.8,5.5,6.6v10l1,1c12.1-8.3,33.2-20.4,51.8-20.4
		c43.5,0,54.6,33.2,54.6,82.3C587.9,1488.8,573.7,1520.2,522.2,1520.2 M525,1385.1c-13.8,0-34.2,9.3-44.2,14.9v82.3
		c14.9,4.5,27,5.5,38,5.5c24.2,0,32.5-12.1,32.5-53.6C549.8,1392.7,542.6,1385.1,525,1385.1"/>
	<path fill="#18335C" stroke="#18335C" d="M694,1520.2c-11.1,0-25.9-1.7-41.5-7.3l0,0v58.1c0,3.8-1,6.6-6.6,6.6h-23.2
		c-5.5,0-6.6-2.8-6.6-6.6v-209.8c0-4.5,1.7-6.6,6.6-6.6H647c4.5,0,5.5,2.8,5.5,6.6v10l1,1c12.1-8.3,33.2-20.4,51.8-20.4
		c43.5,0,54.6,33.2,54.6,82.3C760.7,1488.8,746.5,1520.2,694,1520.2 M696.7,1385.1c-13.8,0-34.2,9.3-44.2,14.9v82.3
		c14.9,4.5,27,5.5,38,5.5c24.2,0,32.5-12.1,32.5-53.6C723,1392.7,714.4,1385.1,696.7,1385.1"/>
	<path fill="#18335C" stroke="#18335C" d="M829.8,1510.9c0,3.8-1.7,6.6-5.5,6.6h-23.2c-4.5,0-6.6-1.7-6.6-6.6v-149.6
		c0-4.5,1.7-6.6,6.6-6.6h23.2c4.5,0,5.5,2.8,5.5,6.6V1510.9z"/>
	<path fill="#18335C" stroke="#18335C" d="M403,1510.9c0,3.8-1.7,6.6-5.5,6.6h-23.2c-4.5,0-6.6-1.7-6.6-6.6v-149.6
		c0-4.5,1.7-6.6,6.6-6.6h23.2c4.5,0,5.5,2.8,5.5,6.6V1510.9z"/>
	<path fill="#18335C" stroke="#18335C" d="M1004.3,1517.5h-24.2c-4.5,0-6.6-1.7-6.6-6.6v-93.3c0-19.4-4.5-32.5-24.2-32.5
		c-12.8,0-35.9,10-45.3,14.9v110.9c0,3.8-1.7,6.6-6.6,6.6h-23.2c-4.5,0-6.6-1.7-6.6-6.6v-149.6c0-4.5,1.7-6.6,6.6-6.6h23.2
		c4.5,0,6.6,2.8,6.6,6.6v10h1c12.1-8.3,35.3-20.4,55.3-20.4c44.2,0,49.1,29.7,49.1,62.9v96.1
		C1010.9,1514.7,1009.8,1517.5,1004.3,1517.5"/>
	<path fill="#18335C" stroke="#18335C" d="M1178.2,1360.2c8.3,2.8,9.3,9.3,9.3,14.9v140.3c0,38-6.6,66.7-69.5,66.7
		c-17.6,0-39.7-1.7-53.6-7.3c-7.3-2.8-7.3-5.5-6.6-9.3l2.8-12.1c1-5.5,2.8-5.5,9.3-4.5c14.9,2.8,33.2,2.8,45.3,2.8
		c27.6,0,35.3-8.3,35.3-28.7v-11.1c-16.6,5.5-30.4,8.3-40.8,8.3c-53.6,0-66.7-33.2-66.7-82.3c0-51.8,15.6-85,72.2-85
		C1136.7,1350.9,1162.6,1354.7,1178.2,1360.2 M1112.5,1486.7c9.3,0,23.2-1.7,38-5.5v-94.3c-10-1.7-22.1-2.8-33.2-2.8
		c-20.4,0-35.9,5.5-35.9,49.8C1081,1473.9,1089.3,1486.7,1112.5,1486.7"/>
	<path fill="#18335C" stroke="#18335C" d="M1347.1,1517.5h-13.8c-3.8,0-5.5-1.7-5.5-5.5v-100.6c0-27.6-6.6-35.3-27-35.3
		c-15.6,0-45.3,13.8-55.3,18.3v117.5c0,4.5-1.7,5.5-5.5,5.5h-12.8c-3.8,0-5.5-1.7-5.5-5.5v-221.9c0-4.5,1.7-5.5,5.5-5.5h13.8
		c3.8,0,5.5,1.7,5.5,5.5v84l0,0c10-7.3,35.3-21.1,59.1-21.1c43.5,0,48,25.9,48,60.8v97.8C1353.7,1515.4,1351,1517.5,1347.1,1517.5"
		/>
	<path fill="#18335C" stroke="#18335C" d="M1518.2,1517.5h-13.8c-3.8,0-5.5-1.7-5.5-5.5v-11.1l-1-1c-11.1,7.3-35.3,21.1-58.1,21.1
		c-43.5,0-49.1-25.9-49.1-60.8v-98.8c0-4.5,1.7-5.5,5.5-5.5h14.9c3.8,0,5.5,1.7,5.5,5.5v97.8c0,30.4,6.6,38,27.6,38
		c15.6,0,45.3-13.8,55.3-19.4v-116.5c0-4.5,1.7-5.5,5.5-5.5h13.8c3.8,0,5.5,1.7,5.5,5.5v149.6
		C1523.8,1515.4,1522,1517.5,1518.2,1517.5"/>
	<path fill="#18335C" stroke="#18335C" d="M1628.1,1520.2c-20.4,0-46.3-2.8-60.8-8.3c-7.3-2.8-8.3-8.3-8.3-12.8v-208.7
		c0-4.5,1.7-5.5,5.5-5.5h13.8c4.5,0,5.5,1.7,5.5,5.5v71.5v1c19.4-7.3,35.3-10,47-10c51.8,0,63.6,32.5,63.6,82.3
		C1695.5,1489.5,1681,1520.2,1628.1,1520.2 M1633,1375.1c-13.8,0-31.4,2.8-48,7.3v109.9c12.8,1.7,28.7,2.8,42.5,2.8
		c25.9,0,42.5-7.3,42.5-57.4C1668.9,1391.7,1660.6,1375.1,1633,1375.1"/>
	<path fill="#BD2830" d="M407.5,1310.5c0,11.1-9.3,20.4-20.4,20.4c-11.1,0-20.4-9.3-20.4-20.4s9.3-20.4,20.4-20.4
		C398.1,1290.1,407.5,1299.4,407.5,1310.5"/>
	<path fill="#BD2830" d="M833.6,1310.5c0,11.1-9.3,20.4-20.4,20.4s-20.4-9.3-20.4-20.4s9.3-20.4,20.4-20.4
		C824.3,1290.1,833.6,1299.4,833.6,1310.5"/>
</g>
<rect x="370.5" y="1618" fill="none" width="986" height="120.3"/>
<g enable-background="new    ">
	<path fill="#18335C" d="M447.9,1648.5v9.7c0,1.4,0,2.4-0.3,3.1c-0.3,0.7-0.7,1.4-1.4,2.1c-0.7,0.7-1.7,1-2.8,1.7
		c-3.5,1.7-6.6,2.8-9.7,3.5c-3.1,0.7-6.6,1-10,1c-4.1,0-7.9-0.7-11.8-1.7s-6.6-2.8-9-5.2s-4.5-4.8-5.5-8.3
		c-1.4-3.1-2.1-6.9-2.1-10.7c0-3.8,0.7-7.6,2.1-10.7c1.4-3.1,3.1-5.9,5.5-8.3c2.4-2.4,5.5-4.1,9-5.2c3.5-1,7.6-1.7,12.1-1.7
		c3.8,0,6.9,0.3,10,1.4c2.8,1,5.2,2.1,6.9,3.5c1.7,1.4,3.1,2.8,4.1,4.5c1,1.4,1.4,2.8,1.4,4.1c0,1.4-0.7,2.4-1.7,3.1
		c-1,1-2.4,1.4-3.8,1.4c-0.7,0-1.7,0-2.4-0.3s-1.4-0.7-1.7-1.4c-1.4-2.1-2.4-3.5-3.5-4.5s-2.1-1.7-3.8-2.4c-1.7-0.7-3.8-1-6.2-1
		c-2.4,0-4.8,0.3-6.9,1.4c-2.1,0.7-3.8,2.1-5.2,3.5c-1.4,1.4-2.4,3.5-3.5,5.5c-0.7,2.1-1,4.8-1,7.3c0,5.9,1.4,10.4,4.5,13.5
		c3.1,3.1,7.3,4.8,12.4,4.8c2.4,0,4.8-0.3,7.3-1s4.5-1.4,6.9-2.8v-8.3h-8.6c-2.1,0-3.8-0.3-4.8-0.7c-1-0.7-1.7-1.4-1.7-2.8
		c0-1,0.3-2.1,1.4-2.8s2.1-1,3.5-1h12.8c1.4,0,2.8,0,3.8,0.3c1,0.3,2.1,0.7,2.8,1.7C447.6,1645.7,447.9,1646.7,447.9,1648.5z"/>
	<path fill="#18335C" d="M589.2,1624.3v36.6h22.5c1.7,0,3.1,0.3,4.1,1c1,0.7,1.4,1.7,1.4,3.1c0,1.4-0.3,2.1-1.4,3.1
		c-1,0.7-2.4,1-4.1,1h-27c-2.4,0-4.1-0.3-5.2-1.4s-1.7-2.4-1.7-4.8v-38.7c0-2.1,0.3-3.5,1.4-4.5c1-1,2.4-1.4,4.1-1.4
		c1.7,0,3.1,0.3,4.1,1.4C588.9,1620.5,589.2,1622.2,589.2,1624.3z"/>
	<path fill="#18335C" d="M765.2,1618c5.9,0,10.7,1,14.9,3.1c4.1,2.1,7.3,5.2,9.3,9c2.1,3.8,3.1,8.3,3.1,13.8c0,3.8-0.7,7.3-1.7,10.7
		c-1,3.1-2.8,5.9-5.2,8.3c-2.4,2.4-5.2,4.1-8.6,5.2c-3.5,1.4-7.3,1.7-11.4,1.7s-8.3-0.7-11.8-1.7c-3.5-1.4-6.2-3.1-8.6-5.2
		c-2.4-2.4-4.1-5.2-5.2-8.3c-1-3.1-1.7-6.6-1.7-10.4s0.7-7.3,1.7-10.7c1.4-3.1,3.1-5.9,5.2-8.3c2.4-2.4,5.2-4.1,8.3-5.2
		C757.2,1618.7,761,1618,765.2,1618z M781.1,1643.6c0-3.8-0.7-6.9-2.1-9.7c-1.4-2.8-3.1-4.8-5.5-6.2c-2.4-1.4-5.2-2.1-8.3-2.1
		c-2.1,0-4.1,0.3-6.2,1c-1.7,0.7-3.5,1.7-4.8,3.5c-1.4,1.4-2.4,3.5-3.1,5.5s-1,4.8-1,7.6c0,2.8,0.3,5.5,1,7.6s2.1,4.1,3.5,5.9
		c1.4,1.4,3.1,2.8,4.8,3.5c1.7,0.7,3.8,1,6.2,1c2.8,0,5.5-0.7,7.9-2.1c2.4-1.4,4.1-3.5,5.9-5.9
		C780.4,1651.2,781.1,1647.8,781.1,1643.6z"/>
	<path fill="#18335C" d="M945.2,1668.8h-16.9c-2.4,0-4.1-0.3-5.2-1.4s-1.7-2.4-1.7-4.8V1625c0-2.1,0.7-3.8,1.7-4.8s2.8-1.4,5.2-1.4
		h18c2.8,0,4.8,0,6.9,0.3c2.1,0.3,3.8,1,5.2,1.7c1.4,0.7,2.4,1.7,3.5,2.8c1,1,1.7,2.4,2.4,3.5s0.7,2.8,0.7,4.1
		c0,5.2-2.8,8.6-8.3,11.1c7.3,2.1,10.7,6.2,10.7,12.1c0,2.8-0.7,5.2-2.4,7.6c-1.7,2.4-3.8,3.8-6.2,4.8c-1.7,0.7-3.5,1-5.9,1.4
		C950.7,1668.8,948.3,1668.8,945.2,1668.8z M932.8,1626.3v12.8h10.4c2.8,0,4.8-0.3,6.6-0.7c1.4-0.3,2.8-1.4,3.5-2.8
		c0.7-1,1-2.1,1-3.1c0-2.4-1-4.1-3.1-5.2c-2.1-0.7-4.8-1.4-9-1.4L932.8,1626.3L932.8,1626.3z M944.5,1646.7h-11.8v14.5h12.1
		c7.6,0,11.4-2.4,11.4-7.3c0-2.4-1-4.5-2.8-5.5C951.4,1647.4,948.3,1646.7,944.5,1646.7z"/>
	<path fill="#18335C" d="M1129.4,1663.3l-2.8-6.2h-22.5l-2.8,6.6c-1,2.4-2.1,4.1-2.8,5.2c-0.7,1-2.1,1.4-3.5,1.4
		c-1.4,0-2.8-0.3-3.8-1.4c-1-1-1.7-2.1-1.7-3.1c0-0.7,0-1.4,0.3-2.1c0.3-0.7,0.7-1.7,1.4-3.1l14.2-32.5c0.3-1,1-2.1,1.4-3.5
		c0.7-1.4,1-2.4,1.7-3.1c0.7-1,1.4-1.7,2.4-2.1c1-0.7,2.4-0.7,3.8-0.7s2.8,0.3,3.8,0.7c1,0.7,1.7,1.4,2.4,2.1c0.7,0.7,1,1.7,1.7,2.8
		s1,2.4,1.7,3.8l14.5,32.5c1,2.4,1.7,4.1,1.7,5.5c0,1-0.7,2.1-1.7,3.1c-1,1-2.4,1.4-3.8,1.4c-1,0-1.7,0-2.4-0.3
		c-0.7-0.3-1-0.7-1.7-1c-0.3-0.3-1-1.4-1.4-2.4C1130.1,1665,1129.8,1664,1129.4,1663.3z M1107.3,1649.5h16.6l-8.3-20.7
		L1107.3,1649.5z"/>
	<path fill="#18335C" d="M1280.4,1624.3v36.6h22.5c1.7,0,3.1,0.3,4.1,1c1,0.7,1.4,1.7,1.4,3.1c0,1.4-0.3,2.1-1.4,3.1
		c-1,1-2.4,1-4.1,1h-27c-2.4,0-4.1-0.3-5.2-1.4s-1.7-2.4-1.7-4.8v-38.7c0-2.1,0.3-3.5,1.4-4.5s2.4-1.4,4.1-1.4s3.1,0.3,4.1,1.4
		C1279.8,1620.5,1280.4,1622.2,1280.4,1624.3z"/>
</g>
</svg>
