<?xml version="1.0" encoding="utf-8"?>
<!-- Generator: Adobe Illustrator 18.1.1, SVG Export Plug-In . SVG Version: 6.00 Build 0)  -->
<!DOCTYPE svg PUBLIC "-//W3C//DTD SVG 1.1//EN" "http://www.w3.org/Graphics/SVG/1.1/DTD/svg11.dtd">
<svg version="1.1" id="Layer_1" xmlns="http://www.w3.org/2000/svg" xmlns:xlink="http://www.w3.org/1999/xlink" x="0px" y="0px"
	 viewBox="0 180 500 134" enable-background="new 0 180 500 134" xml:space="preserve">
<g>
	<path fill="#18335C" stroke="#18335C" d="M25.9,259.8c-4.8,0-11.2-0.8-15-2.1c-1.9-0.8-2.4-1.6-2.1-3.2l0.8-3.2
		c0.3-1.6,0.8-1.6,2.4-1.3c4.3,0.8,10.4,1.1,13.6,1.1c6.1,0,8.6-1.6,8.6-5.3c0-4.3-1.6-5.3-7.8-6.1c-9.4-1.3-17.6-3.2-17.6-13.9
		c0-9.6,7.2-14.4,17.9-14.4c4,0,10.4,0.5,14.7,2.1c1.6,0.8,2.4,1.3,2.1,2.9l-0.8,3.5c-0.3,1.3-0.8,1.6-2.7,1.3
		c-4.3-0.5-9.6-1.1-13.1-1.1c-6.1,0-7.5,1.6-7.5,5.3s2.4,4.3,8,5.1c9.1,1.3,17.4,3.2,17.4,14.7C45.2,256,35.8,259.8,25.9,259.8"/>
	<path fill="#18335C" stroke="#18335C" d="M92.8,259h-6.7c-1.3,0-1.9-0.5-1.9-1.9c0-9.4,0-18.4,0-27.5c0-5.3-1.1-8.8-7-8.8
		c-3.7,0-10.4,3.2-13.1,4.3v32.4c0,1.1-0.5,1.9-1.9,1.9h-6.7c-1.3,0-1.6-0.5-1.6-1.9v-64.2c0-1.3,0.5-1.9,1.6-1.9h6.7
		c1.3,0,1.9,0.8,1.9,1.9v23.3c3.5-2.1,9.9-5.3,15.8-5.3c13.1,0,14.7,8.6,14.7,18.2v27.8C94.7,258.2,94.4,259,92.8,259"/>
	<path fill="#18335C" stroke="#18335C" d="M151.1,259.8c-3.2,0-7.5-0.5-12-2.1l0,0v16.8c0,1.1-0.3,1.9-1.9,1.9h-6.7
		c-1.6,0-1.9-0.8-1.9-1.9v-60.7c0-1.3,0.5-1.9,1.9-1.9h6.7c1.3,0,1.6,0.8,1.6,1.9v2.9l0.3,0.3c3.5-2.4,9.6-5.9,15-5.9
		c12.6,0,15.8,9.6,15.8,23.8C170.1,250.7,166,259.8,151.1,259.8 M151.9,220.7c-4,0-9.9,2.7-12.8,4.3v23.8c4.3,1.3,7.8,1.6,11,1.6
		c7,0,9.4-3.5,9.4-15.5C159.1,222.9,157,220.7,151.9,220.7"/>
	<path fill="#18335C" stroke="#18335C" d="M200.8,259.8c-3.2,0-7.5-0.5-12-2.1l0,0v16.8c0,1.1-0.3,1.9-1.9,1.9h-6.7
		c-1.6,0-1.9-0.8-1.9-1.9v-60.7c0-1.3,0.5-1.9,1.9-1.9h7c1.3,0,1.6,0.8,1.6,1.9v2.9l0.3,0.3c3.5-2.4,9.6-5.9,15-5.9
		c12.6,0,15.8,9.6,15.8,23.8C220.1,250.7,216,259.8,200.8,259.8 M201.6,220.7c-4,0-9.9,2.7-12.8,4.3v23.8c4.3,1.3,7.8,1.6,11,1.6
		c7,0,9.4-3.5,9.4-15.5S206.7,220.7,201.6,220.7"/>
	<path fill="#18335C" stroke="#18335C" d="M240.1,257.1c0,1.1-0.5,1.9-1.6,1.9h-6.7c-1.3,0-1.9-0.5-1.9-1.9v-43.3
		c0-1.3,0.5-1.9,1.9-1.9h6.7c1.3,0,1.6,0.8,1.6,1.9V257.1z"/>
	<path fill="#18335C" stroke="#18335C" d="M116.6,257.1c0,1.1-0.5,1.9-1.6,1.9h-6.7c-1.3,0-1.9-0.5-1.9-1.9v-43.3
		c0-1.3,0.5-1.9,1.9-1.9h6.7c1.3,0,1.6,0.8,1.6,1.9V257.1z"/>
	<path fill="#18335C" stroke="#18335C" d="M290.6,259h-7c-1.3,0-1.9-0.5-1.9-1.9v-27c0-5.6-1.3-9.4-7-9.4c-3.7,0-10.4,2.9-13.1,4.3
		v32.1c0,1.1-0.5,1.9-1.9,1.9H253c-1.3,0-1.9-0.5-1.9-1.9v-43.3c0-1.3,0.5-1.9,1.9-1.9h6.7c1.3,0,1.9,0.8,1.9,1.9v2.9h0.3
		c3.5-2.4,10.2-5.9,16-5.9c12.8,0,14.2,8.6,14.2,18.2v27.8C292.5,258.2,292.2,259,290.6,259"/>
	<path fill="#18335C" stroke="#18335C" d="M340.9,213.5c2.4,0.8,2.7,2.7,2.7,4.3v40.6c0,11-1.9,19.3-20.1,19.3
		c-5.1,0-11.5-0.5-15.5-2.1c-2.1-0.8-2.1-1.6-1.9-2.7l0.8-3.5c0.3-1.6,0.8-1.6,2.7-1.3c4.3,0.8,9.6,0.8,13.1,0.8
		c8,0,10.2-2.4,10.2-8.3v-3.2c-4.8,1.6-8.8,2.4-11.8,2.4c-15.5,0-19.3-9.6-19.3-23.8c0-15,4.5-24.6,20.9-24.6
		C328.9,210.8,336.4,211.9,340.9,213.5 M321.9,250.1c2.7,0,6.7-0.5,11-1.6v-27.3c-2.9-0.5-6.4-0.8-9.6-0.8
		c-5.9,0-10.4,1.6-10.4,14.4C312.8,246.4,315.2,250.1,321.9,250.1"/>
	<path fill="#18335C" stroke="#18335C" d="M389.8,259h-4c-1.1,0-1.6-0.5-1.6-1.6v-29.1c0-8-1.9-10.2-7.8-10.2c-4.5,0-13.1,4-16,5.3
		v34c0,1.3-0.5,1.6-1.6,1.6h-3.7c-1.1,0-1.6-0.5-1.6-1.6v-64.2c0-1.3,0.5-1.6,1.6-1.6h4c1.1,0,1.6,0.5,1.6,1.6v24.3l0,0
		c2.9-2.1,10.2-6.1,17.1-6.1c12.6,0,13.9,7.5,13.9,17.6v28.3C391.7,258.4,390.9,259,389.8,259"/>
	<path fill="#18335C" stroke="#18335C" d="M439.3,259h-4c-1.1,0-1.6-0.5-1.6-1.6v-3.2l-0.3-0.3c-3.2,2.1-10.2,6.1-16.8,6.1
		c-12.6,0-14.2-7.5-14.2-17.6v-28.6c0-1.3,0.5-1.6,1.6-1.6h4.3c1.1,0,1.6,0.5,1.6,1.6v28.3c0,8.8,1.9,11,8,11c4.5,0,13.1-4,16-5.6
		v-33.7c0-1.3,0.5-1.6,1.6-1.6h4c1.1,0,1.6,0.5,1.6,1.6v43.3C440.9,258.4,440.4,259,439.3,259"/>
	<path fill="#18335C" stroke="#18335C" d="M471.1,259.8c-5.9,0-13.4-0.8-17.6-2.4c-2.1-0.8-2.4-2.4-2.4-3.7v-60.4
		c0-1.3,0.5-1.6,1.6-1.6h4c1.3,0,1.6,0.5,1.6,1.6V214v0.3c5.6-2.1,10.2-2.9,13.6-2.9c15,0,18.4,9.4,18.4,23.8
		C490.6,250.9,486.4,259.8,471.1,259.8 M472.5,217.8c-4,0-9.1,0.8-13.9,2.1v31.8c3.7,0.5,8.3,0.8,12.3,0.8c7.5,0,12.3-2.1,12.3-16.6
		C482.9,222.6,480.5,217.8,472.5,217.8"/>
	<path fill="#BD2830" d="M117.9,199.1c0,3.2-2.7,5.9-5.9,5.9s-5.9-2.7-5.9-5.9s2.7-5.9,5.9-5.9S117.9,195.9,117.9,199.1"/>
	<path fill="#BD2830" d="M241.2,199.1c0,3.2-2.7,5.9-5.9,5.9s-5.9-2.7-5.9-5.9s2.7-5.9,5.9-5.9C238.5,193.2,241.2,195.9,241.2,199.1
		"/>
</g>
<rect x="107.2" y="288.1" fill="none" width="285.3" height="34.8"/>
<g enable-background="new    ">
	<path fill="#18335C" d="M129.6,296.9v2.8c0,0.4,0,0.7-0.1,0.9c-0.1,0.2-0.2,0.4-0.4,0.6s-0.5,0.3-0.8,0.5c-1,0.5-1.9,0.8-2.8,1
		s-1.9,0.3-2.9,0.3c-1.2,0-2.3-0.2-3.4-0.5s-1.9-0.8-2.6-1.5s-1.3-1.4-1.6-2.4c-0.4-0.9-0.6-2-0.6-3.1s0.2-2.2,0.6-3.1
		s0.9-1.7,1.6-2.4c0.7-0.7,1.6-1.2,2.6-1.5s2.2-0.5,3.5-0.5c1.1,0,2,0.1,2.9,0.4c0.8,0.3,1.5,0.6,2,1c0.5,0.4,0.9,0.8,1.2,1.3
		c0.3,0.4,0.4,0.8,0.4,1.2c0,0.4-0.2,0.7-0.5,0.9c-0.3,0.3-0.7,0.4-1.1,0.4c-0.2,0-0.5,0-0.7-0.1s-0.4-0.2-0.5-0.4
		c-0.4-0.6-0.7-1-1-1.3s-0.6-0.5-1.1-0.7s-1.1-0.3-1.8-0.3c-0.7,0-1.4,0.1-2,0.4c-0.6,0.2-1.1,0.6-1.5,1s-0.7,1-1,1.6
		c-0.2,0.6-0.3,1.4-0.3,2.1c0,1.7,0.4,3,1.3,3.9s2.1,1.4,3.6,1.4c0.7,0,1.4-0.1,2.1-0.3c0.7-0.2,1.3-0.4,2-0.8v-2.4h-2.5
		c-0.6,0-1.1-0.1-1.4-0.2c-0.3-0.2-0.5-0.4-0.5-0.8c0-0.3,0.1-0.6,0.4-0.8c0.3-0.2,0.6-0.3,1-0.3h3.7c0.4,0,0.8,0,1.1,0.1
		s0.6,0.2,0.8,0.5S129.6,296.4,129.6,296.9z"/>
	<path fill="#18335C" d="M170.5,289.9v10.6h6.5c0.5,0,0.9,0.1,1.2,0.3c0.3,0.2,0.4,0.5,0.4,0.9s-0.1,0.6-0.4,0.9
		c-0.3,0.2-0.7,0.3-1.2,0.3h-7.8c-0.7,0-1.2-0.1-1.5-0.4s-0.5-0.7-0.5-1.4v-11.2c0-0.6,0.1-1,0.4-1.3c0.3-0.3,0.7-0.4,1.2-0.4
		s0.9,0.1,1.2,0.4C170.4,288.8,170.5,289.3,170.5,289.9z"/>
	<path fill="#18335C" d="M221.4,288.1c1.7,0,3.1,0.3,4.3,0.9s2.1,1.5,2.7,2.6c0.6,1.1,0.9,2.4,0.9,4c0,1.1-0.2,2.1-0.5,3.1
		c-0.3,0.9-0.8,1.7-1.5,2.4c-0.7,0.7-1.5,1.2-2.5,1.5c-1,0.4-2.1,0.5-3.3,0.5s-2.4-0.2-3.4-0.5c-1-0.4-1.8-0.9-2.5-1.5
		c-0.7-0.7-1.2-1.5-1.5-2.4s-0.5-1.9-0.5-3s0.2-2.1,0.5-3.1c0.4-0.9,0.9-1.7,1.5-2.4c0.7-0.7,1.5-1.2,2.4-1.5
		C219.1,288.3,220.2,288.1,221.4,288.1z M226,295.5c0-1.1-0.2-2-0.6-2.8s-0.9-1.4-1.6-1.8c-0.7-0.4-1.5-0.6-2.4-0.6
		c-0.6,0-1.2,0.1-1.8,0.3c-0.5,0.2-1,0.5-1.4,1c-0.4,0.4-0.7,1-0.9,1.6s-0.3,1.4-0.3,2.2c0,0.8,0.1,1.6,0.3,2.2s0.6,1.2,1,1.7
		c0.4,0.4,0.9,0.8,1.4,1s1.1,0.3,1.8,0.3c0.8,0,1.6-0.2,2.3-0.6s1.2-1,1.7-1.7C225.8,297.7,226,296.7,226,295.5z"/>
	<path fill="#18335C" d="M273.5,302.8h-4.9c-0.7,0-1.2-0.1-1.5-0.4s-0.5-0.7-0.5-1.4v-10.9c0-0.6,0.2-1.1,0.5-1.4s0.8-0.4,1.5-0.4
		h5.2c0.8,0,1.4,0,2,0.1s1.1,0.3,1.5,0.5s0.7,0.5,1,0.8s0.5,0.7,0.7,1s0.2,0.8,0.2,1.2c0,1.5-0.8,2.5-2.4,3.2
		c2.1,0.6,3.1,1.8,3.1,3.5c0,0.8-0.2,1.5-0.7,2.2s-1.1,1.1-1.8,1.4c-0.5,0.2-1,0.3-1.7,0.4C275.1,302.8,274.4,302.8,273.5,302.8z
		 M269.9,290.5v3.7h3c0.8,0,1.4-0.1,1.9-0.2c0.4-0.1,0.8-0.4,1-0.8c0.2-0.3,0.3-0.6,0.3-0.9c0-0.7-0.3-1.2-0.9-1.5
		c-0.6-0.2-1.4-0.4-2.6-0.4L269.9,290.5L269.9,290.5z M273.3,296.4h-3.4v4.2h3.5c2.2,0,3.3-0.7,3.3-2.1c0-0.7-0.3-1.3-0.8-1.6
		C275.3,296.6,274.4,296.4,273.3,296.4z"/>
	<path fill="#18335C" d="M326.8,301.2l-0.8-1.8h-6.5l-0.8,1.9c-0.3,0.7-0.6,1.2-0.8,1.5s-0.6,0.4-1,0.4s-0.8-0.1-1.1-0.4
		c-0.3-0.3-0.5-0.6-0.5-0.9c0-0.2,0-0.4,0.1-0.6s0.2-0.5,0.4-0.9l4.1-9.4c0.1-0.3,0.3-0.6,0.4-1c0.2-0.4,0.3-0.7,0.5-0.9
		c0.2-0.3,0.4-0.5,0.7-0.6c0.3-0.2,0.7-0.2,1.1-0.2s0.8,0.1,1.1,0.2c0.3,0.2,0.5,0.4,0.7,0.6s0.3,0.5,0.5,0.8s0.3,0.7,0.5,1.1
		l4.2,9.4c0.3,0.7,0.5,1.2,0.5,1.6c0,0.3-0.2,0.6-0.5,0.9s-0.7,0.4-1.1,0.4c-0.3,0-0.5,0-0.7-0.1s-0.3-0.2-0.5-0.3
		c-0.1-0.1-0.3-0.4-0.4-0.7C327,301.7,326.9,301.4,326.8,301.2z M320.4,297.2h4.8l-2.4-6L320.4,297.2z"/>
	<path fill="#18335C" d="M370.5,289.9v10.6h6.5c0.5,0,0.9,0.1,1.2,0.3c0.3,0.2,0.4,0.5,0.4,0.9s-0.1,0.6-0.4,0.9s-0.7,0.3-1.2,0.3
		h-7.8c-0.7,0-1.2-0.1-1.5-0.4s-0.5-0.7-0.5-1.4v-11.2c0-0.6,0.1-1,0.4-1.3s0.7-0.4,1.2-0.4s0.9,0.1,1.2,0.4
		C370.3,288.8,370.5,289.3,370.5,289.9z"/>
</g>
</svg>
