<?xml version="1.0" encoding="utf-8"?>
<!-- Generator: Adobe Illustrator 18.1.1, SVG Export Plug-In . SVG Version: 6.00 Build 0)  -->
<!DOCTYPE svg PUBLIC "-//W3C//DTD SVG 1.1//EN" "http://www.w3.org/Graphics/SVG/1.1/DTD/svg11.dtd">
<svg version="1.1" id="Layer_1" xmlns="http://www.w3.org/2000/svg" xmlns:xlink="http://www.w3.org/1999/xlink" x="0px" y="0px"
	 viewBox="0 0 40 40" style="enable-background:new 0 0 40 40;" xml:space="preserve">
<style type="text/css">
	.st0{fill:#547BBC;
    -webkit-transition:fill .2s ease-out,color .2s ease-out;
    -moz-transition:fill .2s ease-out,color .2s ease-out;
    -ms-transition:fill .2s ease-out,color .2s ease-out;
    -o-transition:fill .2s ease-out,color .2s ease-out;
    transition:fill .2s ease-out,color .2s ease-out}
    
	.st1{fill:#FFFFFF;pointer-events: none;}
    
    .st0:hover{fill:#3d64a4;
    -webkit-transition:fill .3s ease-in,color .3s ease-in;
    -moz-transition:fill .3s ease-in,color .3s ease-in;
    -ms-transition:fill .3s ease-in,color .3s ease-in;
    -o-transition:fill .3s ease-in,color .3s ease-in;
    transition:fill .3s ease-in,color .3s ease-in}
</style>
<g id="Layer_1_1_">
</g>
<g id="Capa_1">
	<path class="st0" d="M19.6,36.4c9.4,0,17-7.6,17-17s-7.6-17-17-17s-17,7.6-17,17C2.6,28.8,10.2,36.4,19.6,36.4"/>
	<path class="st1" d="M15.5,16.5h1.8v-1.7c0-0.8,0-1.9,0.6-2.6c0.6-0.8,1.4-1.3,2.7-1.3c2.2,0,3.2,0.3,3.2,0.3l-0.4,2.6
		c0,0-0.7-0.2-1.4-0.2c-0.7,0-1.3,0.2-1.3,0.9v2h2.8L23.2,19h-2.6v8.8h-3.3V19h-1.8C15.5,19,15.5,16.5,15.5,16.5z"/>
</g>
</svg>
