<?xml version="1.0" encoding="utf-8"?>
<!-- Generator: Adobe Illustrator 18.1.1, SVG Export Plug-In . SVG Version: 6.00 Build 0)  -->
<!DOCTYPE svg PUBLIC "-//W3C//DTD SVG 1.1//EN" "http://www.w3.org/Graphics/SVG/1.1/DTD/svg11.dtd">
<svg version="1.1" id="Layer_1" xmlns="http://www.w3.org/2000/svg" xmlns:xlink="http://www.w3.org/1999/xlink" x="0px" y="0px"
	 viewBox="0 0 300 300" enable-background="new 0 0 300 300" xml:space="preserve">
<polyline fill="#FFFFFF" points="81.7,41.5 27.1,90.9 9.3,157.6 68.7,160 107.1,227.1 188,232.1 219.4,278.3 270.5,230.7 291,161.4 
	271.2,90.2 219.6,38.7 149.8,20.5 81.7,41.5 81.7,41.5 "/>
<g>
	<polygon fill="#FBB219" points="81.7,41.5 29.7,90.5 107.4,90.9 	"/>
	<polygon fill="#9A79B5" points="111.7,92.2 184.8,93.9 148.7,157.6 	"/>
	<polygon fill="#F48980" points="269.5,94.4 231.7,158 288.9,160.6 	"/>
	<polygon fill="#C7DB65" points="153,162.7 226.5,162.3 187.8,225.9 	"/>
	<polygon fill="#9FCC4D" points="71.7,161.1 148.3,161 107.1,227.1 	"/>
	<path fill="#18335C" stroke="#18335C" stroke-width="3.4038" d="M291.1,160.9C291.1,160.8,291.1,160.8,291.1,160.9
		c0-0.1,0-0.2,0-0.2c0-0.1,0-0.2,0-0.3s0-0.1,0-0.2l-19.9-67.4c0.2-0.2,0.3-0.4,0.4-0.6s0.1-0.5,0.1-0.7l0,0v-0.1
		c0-0.2,0-0.4-0.1-0.6s-0.2-0.4-0.3-0.5c0,0,0-0.1-0.1-0.1l0,0l0,0l-50.8-51.1c0,0-0.1,0-0.1-0.1c-0.1-0.1-0.1-0.1-0.2-0.1l-0.1-0.1
		h-0.1c-0.1,0-0.1-0.1-0.2-0.1h-0.1l-68.9-18.2c-0.3-0.1-0.6-0.1-0.9,0c-0.1,0-0.2,0-0.3,0h-0.1L80.3,38.6h-0.1
		c-0.1,0-0.1,0.1-0.2,0.1h-0.1l-0.1,0.1c-0.1,0-0.1,0.1-0.2,0.1c0,0-0.1,0-0.1,0.1L29,89.6c-0.1,0-0.3,0-0.4,0s-0.3,0.1-0.4,0.1
		s-0.2,0-0.3,0.1c-0.1,0.1-0.1,0.1-0.2,0.2s-0.2,0.2-0.3,0.3c-0.2,0.2-0.3,0.4-0.3,0.6L8.6,160.1c0,0.1,0,0.2,0,0.2
		c0,0.1,0,0.2,0,0.2c0,0.1,0,0.1,0,0.1c0,0.1,0,0.2,0.1,0.4c0,0.1,0.1,0.2,0.1,0.3s0.1,0.2,0.2,0.3c0.1,0.1,0.1,0.2,0.2,0.3
		c0.1,0.1,0.2,0.1,0.3,0.2c0.1,0.1,0.2,0.1,0.3,0.2c0,0,0.1,0,0.1,0.1c0.1,0,0.3,0.1,0.4,0.1l0,0l57.4,0.3l39.5,68.4l0.1,0.1
		l0.1,0.1c0.1,0.2,0.3,0.3,0.5,0.4l0,0l0,0c0.1,0.1,0.3,0.1,0.4,0.2c0.2,0,0.3,0.1,0.5,0.1l0,0H188l29.4,50.3
		c0.1,0.1,0.2,0.3,0.3,0.4l0,0c0.2,0.1,0.3,0.2,0.5,0.3c0.1,0,0.1,0,0.1,0.1c0.2,0.1,0.4,0.1,0.6,0.1l0,0c0.2,0,0.4,0,0.6-0.1
		c0.1,0,0.1,0,0.2-0.1c0,0,0.1,0,0.1-0.1c0.1-0.1,0.1-0.1,0.2-0.2c0.1,0,0.1-0.1,0.2-0.1L269,232c0.1,0,0.1,0,0.2,0s0.1-0.1,0.2-0.1
		s0.2-0.1,0.2-0.1s0,0,0.1-0.1s0.3-0.2,0.4-0.3l0.1-0.1c0.1-0.2,0.2-0.3,0.3-0.6l0,0l20.5-69.3c0-0.1,0-0.1,0-0.2
		C291.1,161,291.1,161,291.1,160.9 M219.4,278.3L192,231.4h72.4L219.4,278.3z M72,162.6h74.5l-37.8,63.8L72,162.6z M188.8,95.3
		l36.8,63.6H153L188.8,95.3z M149.7,157.1L112,93.4h73.5L149.7,157.1z M192,93.4h73.5L228.7,157L192,93.4z M113,89.7L149.8,26
		l36.8,63.7H113z M108.8,95.3l37.7,63.7H72L108.8,95.3z M68.8,157.1L32,93.3h73.5L68.8,157.1z M225.5,162.6l-36.8,63.6l-35.9-63.7
		L225.5,162.6z M228.8,164.6l36.5,63.1h-72.9L228.8,164.6z M268.2,96.3l18.6,62.7H232L268.2,96.3z M192.9,89.7l26.5-46.3l46,46.3
		C265.3,89.7,192.9,89.7,192.9,89.7z M189.8,87.8L153.5,25l62.6,16.6L189.8,87.8z M109.8,87.8L83.6,41.6l62.3-16.5L109.8,87.8z
		 M80.4,43.4l26.2,46.3H34.2L80.4,43.4z M29.4,96.4L65.5,159l-52.8-0.2L29.4,96.4z M149.7,164.5l35.9,63.7H112L149.7,164.5z
		 M268.2,225.5l-36.3-62.8h54.8L268.2,225.5z"/>
	<path fill="#18335C" stroke="#18335C" stroke-width="3.4038" d="M28.6,95.9c-3.3,0-6.1-2.7-6.1-6.1s2.7-6.1,6.1-6.1
		s6.1,2.7,6.1,6.1S31.9,95.9,28.6,95.9"/>
	<path fill="#18335C" stroke="#18335C" stroke-width="3.4038" d="M188.8,95.9c-0.4,0-0.8,0-1.1-0.1c-0.9-0.2-1.7-0.5-2.4-1.1
		c-0.9-0.7-1.6-1.5-2-2.6c-0.3-0.7-0.5-1.5-0.5-2.3v-0.3c0.1-1.6,0.9-3.2,2.1-4.3c0.7-0.6,1.5-1,2.4-1.2c0.5-0.1,1-0.2,1.5-0.2
		c1,0,2,0.3,2.9,0.7c0.8,0.4,1.5,1.1,2,1.8c0.7,0.9,1,2,1.1,3.1v0.3c0,0.8-0.2,1.6-0.5,2.3c-0.4,0.9-1,1.7-1.8,2.4
		c-0.7,0.6-1.5,1-2.4,1.2C189.7,95.8,189.2,95.9,188.8,95.9"/>
	<path fill="#395487" stroke="#395487" stroke-width="3.4038" d="M108.8,95.9c-0.4,0-0.9,0-1.3-0.1c-0.9-0.2-1.7-0.6-2.4-1.1
		c-0.8-0.6-1.5-1.5-1.9-2.4c-0.3-0.7-0.5-1.5-0.5-2.3v-0.3c0.1-1.6,0.8-3.1,2.1-4.2c0.7-0.6,1.5-1,2.3-1.3c0.5-0.1,1.1-0.2,1.6-0.2
		c1,0,1.9,0.2,2.8,0.7c0.8,0.4,1.5,1,2.1,1.8c0.7,0.9,1.1,2.1,1.2,3.2V90c0,0.8-0.2,1.6-0.5,2.3c-0.4,0.9-1,1.8-1.8,2.4
		c-0.7,0.6-1.5,1-2.4,1.2C109.7,95.8,109.2,95.9,108.8,95.9"/>
	<path fill="#929ECF" stroke="#929ECF" stroke-width="3.4038" d="M81.2,47.3c-1.4,0-2.8-0.5-3.9-1.5c-0.7-0.6-1.2-1.3-1.6-2.2
		c-0.3-0.8-0.5-1.6-0.5-2.4c0-3.3,2.7-6.1,6.1-6.1c1.9,0,3.7,0.9,4.8,2.4c0.6,0.7,0.9,1.6,1.1,2.5c0.1,0.4,0.1,0.8,0.1,1.2
		c0,1.7-0.7,3.2-1.9,4.4c-0.6,0.6-1.4,1.1-2.3,1.4C82.5,47.2,81.8,47.3,81.2,47.3"/>
	<path fill="#18335C" stroke="#18335C" stroke-width="3.4038" d="M149.8,28.5c-0.7,0-1.4-0.1-2-0.3c-0.8-0.3-1.6-0.8-2.3-1.4
		c-0.5-0.6-1-1.2-1.3-1.9c-0.3-0.7-0.5-1.5-0.5-2.4v-0.3c0.1-3.2,2.8-5.8,6.1-5.8c3.2,0,5.9,2.5,6.1,5.7c0,0.1,0,0.3,0,0.4
		c0,0.8-0.1,1.5-0.4,2.3c-0.3,0.7-0.7,1.4-1.3,2s-1.4,1.1-2.2,1.4C151.2,28.3,150.5,28.5,149.8,28.5"/>
	<path fill="#697DBB" stroke="#697DBB" stroke-width="3.4038" d="M219.6,47.3c-0.8,0-1.7-0.2-2.4-0.5c-0.8-0.4-1.6-0.9-2.1-1.6
		c-0.9-1.1-1.5-2.5-1.5-3.9c0-0.4,0-0.7,0.1-1c0.2-0.9,0.5-1.7,1-2.5c1.1-1.6,3-2.5,4.9-2.5c3.3,0,6.1,2.7,6.1,6.1
		c0,1-0.2,1.9-0.7,2.8c-0.4,0.8-1,1.5-1.7,2C222.2,46.9,220.9,47.3,219.6,47.3"/>
	<path fill="#929ECF" stroke="#929ECF" stroke-width="3.4038" d="M269.5,95.9c-0.5,0-1-0.1-1.5-0.2c-0.9-0.2-1.7-0.6-2.4-1.2
		c-0.8-0.6-1.4-1.4-1.7-2.3c-0.3-0.7-0.5-1.5-0.5-2.3v-0.3c0-0.9,0.3-1.8,0.8-2.6c0.4-0.8,1.1-1.5,1.8-2c1-0.7,2.2-1.1,3.5-1.1
		c3.3,0,6.1,2.7,6.1,6.1c0,2.3-1.3,4.3-3.3,5.5C271.4,95.6,270.5,95.9,269.5,95.9L269.5,95.9z"/>
	<path fill="#BD2830" d="M149.8,169.4c-0.8,0-1.7-0.1-2.5-0.3c-1.3-0.4-2.6-1-3.7-1.9c-1.3-1.1-2.3-2.6-2.9-4.3
		c-0.3-1-0.4-1.9-0.4-2.9c0-0.4,0-0.9,0.1-1.3c0.3-2,1.2-3.9,2.6-5.4c1-1,2.2-1.8,3.5-2.3c1-0.4,2.1-0.6,3.3-0.6
		c1.1,0,2.1,0.2,3.1,0.5c1.3,0.5,2.5,1.2,3.5,2.2c1.5,1.5,2.4,3.4,2.7,5.5c0.1,0.4,0.1,0.9,0.1,1.3c0,1-0.2,2-0.4,2.9
		c-0.5,1.7-1.6,3.2-2.9,4.4c-1.1,0.9-2.3,1.6-3.7,1.9C151.4,169.3,150.6,169.4,149.8,169.4"/>
	<path fill="#BD2830" stroke="#BD2830" stroke-width="3.4038" d="M149.8,166c-0.5,0-1.1-0.1-1.6-0.2c-0.9-0.2-1.7-0.7-2.3-1.2
		c-0.9-0.7-1.5-1.7-1.8-2.8c-0.2-0.6-0.3-1.2-0.3-1.8c0-0.3,0-0.6,0.1-0.8c0.2-1.3,0.7-2.5,1.7-3.4c0.6-0.6,1.4-1.1,2.2-1.5
		c0.7-0.2,1.4-0.4,2.1-0.4c0.7,0,1.4,0.1,2,0.3c0.8,0.3,1.6,0.8,2.3,1.4c0.9,0.9,1.6,2.2,1.7,3.5c0,0.3,0,0.5,0,0.8
		c0,0.6-0.1,1.3-0.3,1.8c-0.4,1.1-1,2.1-1.9,2.8c-0.7,0.6-1.5,1-2.4,1.2C150.8,165.9,150.3,166,149.8,166"/>
	<path fill="#395487" stroke="#395487" stroke-width="3.4038" d="M229.1,166c-0.5,0-1-0.1-1.6-0.2c-0.9-0.2-1.7-0.6-2.4-1.2
		c-0.9-0.7-1.5-1.7-1.8-2.7c-0.2-0.6-0.3-1.2-0.3-1.9c0-0.3,0-0.5,0-0.8c0.2-1.3,0.8-2.5,1.7-3.4c0.6-0.6,1.4-1.1,2.2-1.4
		c0.7-0.3,1.4-0.4,2.1-0.4c0.7,0,1.4,0.1,2,0.3c0.8,0.3,1.6,0.8,2.3,1.4c0.9,0.9,1.5,2.1,1.7,3.4c0,0.3,0.1,0.5,0.1,0.8
		c0,0.6-0.1,1.2-0.3,1.8c-0.3,1.1-1,2.1-1.9,2.8c-0.7,0.6-1.5,1-2.4,1.2C230.1,165.9,229.6,166,229.1,166"/>
	<path fill="#18335C" stroke="#18335C" stroke-width="3.4038" d="M288.4,166c-0.2,0-0.3,0-0.5,0c-0.9-0.1-1.7-0.3-2.4-0.7
		c-1.3-0.8-2.4-2-2.8-3.4c-0.2-0.6-0.3-1.2-0.3-1.8c0-0.3,0-0.6,0-0.8c0.2-1.7,1.2-3.3,2.7-4.3c0.7-0.5,1.5-0.8,2.4-0.9
		c0.3,0,0.6-0.1,0.9-0.1c3.3,0,6.1,2.7,6.1,6.1C294.4,163.2,291.7,166,288.4,166"/>
	<path fill="#B1B9DD" stroke="#B1B9DD" stroke-width="3.4038" d="M12,166c-3.3,0-6.1-2.7-6.1-6.1c0-3.3,2.7-6.1,6.1-6.1h0.2
		c0.9,0,1.7,0.2,2.5,0.6c1.7,0.9,3,2.5,3.3,4.4c0.1,0.3,0.1,0.6,0.1,0.9c0,0.6-0.1,1.2-0.2,1.7C17,164.2,14.6,166,12,166"/>
	<path fill="#697DBB" stroke="#697DBB" stroke-width="3.4038" d="M68.8,166c-2.6,0-4.9-1.7-5.9-4.2c-0.2-0.6-0.3-1.2-0.3-1.9
		c0-0.3,0-0.5,0.1-0.8c0.2-1.3,0.7-2.4,1.6-3.4c0.6-0.6,1.4-1.2,2.2-1.5c0.7-0.3,1.4-0.4,2.1-0.4s1.3,0.1,2,0.3
		c0.8,0.3,1.6,0.8,2.3,1.4c0.9,0.9,1.6,2.2,1.7,3.5c0,0.3,0.1,0.5,0.1,0.8c0,0.6-0.1,1.2-0.3,1.8c-0.4,1.1-1,2.1-1.9,2.8
		c-0.7,0.6-1.5,1-2.4,1.2C69.8,165.9,69.3,166,68.8,166"/>
	<path fill="#18335C" stroke="#18335C" stroke-width="3.4038" d="M108.8,234.7c-3.3,0-6.1-2.7-6.1-6.1c0-1.5,0.5-2.9,1.5-4
		c0.6-0.7,1.4-1.2,2.2-1.6c0.7-0.3,1.5-0.5,2.3-0.5s1.6,0.2,2.4,0.5s1.6,0.9,2.2,1.6c0.9,1,1.4,2.4,1.5,3.7v0.3
		c0,0.8-0.2,1.6-0.5,2.4C113.3,233.2,111.2,234.7,108.8,234.7"/>
	<path fill="#697DBB" stroke="#697DBB" stroke-width="3.4038" d="M188.8,234.7c-2.4,0-4.6-1.4-5.6-3.6c-0.3-0.8-0.5-1.6-0.5-2.4
		v-0.3c0.1-1.5,0.7-2.9,1.7-3.9c0.6-0.6,1.4-1.2,2.2-1.5c0.7-0.3,1.4-0.4,2.1-0.4c0.8,0,1.7,0.2,2.4,0.5c0.8,0.4,1.6,0.9,2.2,1.6
		c0.8,0.9,1.3,2.1,1.4,3.3c0,0.2,0,0.4,0,0.6c0,0.7-0.1,1.4-0.3,2c-0.4,1-1,1.8-1.8,2.5c-0.7,0.6-1.5,1-2.3,1.3
		C189.8,234.6,189.3,234.7,188.8,234.7"/>
	<path fill="#697DBB" stroke="#697DBB" stroke-width="3.4038" d="M269.5,234.7c-1,0-2-0.2-2.8-0.7c-0.8-0.4-1.5-1-2-1.7
		c-0.4-0.5-0.6-1-0.8-1.6c-0.2-0.7-0.4-1.4-0.4-2c0-0.2,0-0.4,0-0.6c0.1-1.2,0.6-2.3,1.4-3.2c0.6-0.7,1.3-1.3,2.1-1.6
		c0.8-0.3,1.6-0.5,2.5-0.5c0.3,0,0.6,0,0.8,0.1c0.9,0.1,1.9,0.5,2.6,1.1c1.6,1.1,2.6,3,2.6,4.9C275.5,231.9,272.8,234.7,269.5,234.7
		"/>
</g>
</svg>
