<?xml version="1.0" encoding="utf-8"?>
<!-- Generator: Adobe Illustrator 18.1.1, SVG Export Plug-In . SVG Version: 6.00 Build 0)  -->
<!DOCTYPE svg PUBLIC "-//W3C//DTD SVG 1.1//EN" "http://www.w3.org/Graphics/SVG/1.1/DTD/svg11.dtd">
<svg version="1.1" id="Layer_1" xmlns="http://www.w3.org/2000/svg" xmlns:xlink="http://www.w3.org/1999/xlink" x="0px" y="0px"
	 viewBox="0 0 255 61.8" enable-background="new 0 0 255 61.8" xml:space="preserve">
<g>
	<g>
		<g>
			<g>
				<path fill="#9E373A" d="M6.5,48.5c-0.1,0-0.2,0-0.2,0C6.7,48.6,6.5,48.5,6.5,48.5z"/>
				<polygon fill="#9E373A" points="10.5,48.6 10.4,48.6 11,48.6 				"/>
				<path fill="#9E373A" d="M14.1,48.7c-0.3-0.1-1.3,0-2,0l-0.1,0l-0.3,0C12.5,48.7,13.6,48.6,14.1,48.7z"/>
				<path fill="#9E373A" d="M16.1,48.9c-0.1,0,0.4,0-0.5,0c0,0,0.1,0,0.1,0C15.8,48.9,15.9,48.9,16.1,48.9z"/>
				<path fill="#9E373A" d="M15.7,48.9C15.3,48.9,16,48.9,15.7,48.9L15.7,48.9z"/>
				<path fill="#9E373A" d="M17.5,48.9l-0.5,0c0.1,0,0.6,0,0.4,0.1C17.9,49,17.8,49,17.5,48.9z"/>
				<path fill="#9E373A" d="M18,48.9l-0.3,0C17.8,48.9,17.8,48.9,18,48.9z"/>
				<path fill="#9E373A" d="M17.2,48.9l0.6,0c-0.1,0-0.1,0-0.3,0C17.5,48.8,17.4,48.9,17.2,48.9z"/>
				<path fill="#9E373A" d="M16.8,48.8c-0.3,0-0.7,0-0.1-0.1C15.7,48.8,15.9,48.8,16.8,48.8z"/>
				<path fill="#9E373A" d="M14.3,48.6l-0.4,0l-0.3,0C13.8,48.6,14.3,48.6,14.3,48.6z"/>
				<path fill="#9E373A" d="M20.7,49.1c0,0-0.2-0.1-0.2-0.1l-0.4,0C20.3,49,20.7,49,20.7,49.1z"/>
				<path fill="#9E373A" d="M20.5,49l0.6,0C20.5,48.9,20.4,48.9,20.5,49z"/>
				<polygon fill="#9E373A" points="18.1,48.7 17.2,48.8 18.3,48.7 				"/>
				<polygon fill="#9E373A" points="22.8,49.2 22.5,49.2 23.1,49.1 				"/>
				<path fill="#9E373A" d="M24.3,49.2c-0.2,0.1,0.3,0.1,0.1,0.1c0.4,0,0.7,0,1-0.1C25,49.3,24.7,49.3,24.3,49.2z"/>
				<path fill="#9E373A" d="M25.9,49.2c-0.2,0-0.3,0-0.5,0.1C25.5,49.3,25.7,49.2,25.9,49.2z"/>
				<path fill="#9E373A" d="M22,49c0,0,0.1,0.1,0.4,0.1L22.2,49C22.2,49,22.1,49,22,49z"/>
				<path fill="#9E373A" d="M22.2,49L22.2,49c0.2,0,0.4,0,0.5,0C22.6,49,22.5,49,22.2,49z"/>
				<path fill="#9E373A" d="M21.9,49C22,49,22,49,21.9,49C22,49,22,49,21.9,49z"/>
				<path fill="#9E373A" d="M19.6,48.8c0.3,0,1-0.1,0.4-0.1C19.7,48.7,20.1,48.8,19.6,48.8z"/>
				<path fill="#9E373A" d="M21.7,48.9l-0.6,0c0,0,0.1,0.1,0,0.1L21.7,48.9z"/>
				<polygon fill="#9E373A" points="22,48.9 21.7,48.9 21.9,48.9 				"/>
				<path fill="#9E373A" d="M24.8,49.1c0.3,0,0.5,0,0.9,0c-0.3,0-0.7,0-1-0.1C24.6,49,24.5,49.1,24.8,49.1z"/>
				<path fill="#9E373A" d="M23.6,49L23.6,49C23.6,49,23.6,49,23.6,49z"/>
				<polygon fill="#9E373A" points="28.8,49.2 28.8,49.1 28.8,49.2 				"/>
				<path fill="#9E373A" d="M24.6,49c-0.3,0-0.4,0-0.6,0C24.2,49,24.4,49,24.6,49C24.7,49,24.7,49,24.6,49z"/>
				<path fill="#9E373A" d="M26.7,49.2c-0.1,0-0.3,0-0.4-0.1C26.4,49.2,26.7,49.2,26.7,49.2z"/>
				<path fill="#9E373A" d="M23.7,49.1L23.7,49.1C23.8,49.1,23.7,49.1,23.7,49.1z"/>
				<path fill="#9E373A" d="M23.7,49.1c0.1,0,0.2,0,0.3,0C23.9,49,23.8,49,23.7,49.1C23.7,49,23.7,49,23.7,49.1z"/>
				<path fill="#9E373A" d="M29.8,48.4c0,0.1-0.7,0.2-1.3,0.1c-0.6,0.1-0.2,0.4,0.3,0.6c0,0,0-0.1,0.6-0.1c-0.2-0.1-1.3-0.2-0.8-0.2
					c0.8,0,0.6,0,1,0.1c-0.3-0.1,1-0.2,0.8-0.4l-0.7,0.1C29.7,48.5,30,48.5,29.8,48.4z"/>
				<path fill="#9E373A" d="M27.7,49.1l-0.2,0c0.3,0,0.5,0.1,0.8,0.2c0.4,0,0.5-0.1,0.5-0.1L27.7,49.1L27.7,49.1z"/>
				<path fill="#9E373A" d="M26.3,49.1c0.2-0.1,0.8-0.1,0.4-0.2c-0.7,0-0.5,0.1-0.9,0.1C27,48.9,25.5,49,26.3,49.1
					c-0.2,0-0.4,0-0.6,0C25.9,49.1,26.1,49.1,26.3,49.1L26.3,49.1L26.3,49.1L26.3,49.1C26.2,49.1,26.2,49.1,26.3,49.1
					C26.3,49.1,26.3,49.1,26.3,49.1C26.3,49.1,26.3,49.1,26.3,49.1C26.7,49.1,26.4,49.1,26.3,49.1C26.3,49.1,26.3,49.1,26.3,49.1
					L26.3,49.1l1.1,0C27.2,49.1,26.9,49.1,26.3,49.1z"/>
				<path fill="#9E373A" d="M20.5,48.6C20.6,48.6,20.6,48.6,20.5,48.6C20.6,48.6,20.7,48.6,20.5,48.6z"/>
				<path fill="#9E373A" d="M21,48.6c-0.1,0-0.2,0-0.4,0c-0.2,0,0,0,0-0.1c-0.2,0-0.6,0-0.1,0.1l0.1,0c0.5,0,1.1,0.1,1,0.1
					C21.4,48.7,21.3,48.7,21,48.6z"/>
				<path fill="#9E373A" d="M23.7,48.8l1,0l-0.5-0.1l0,0C23.7,48.7,23.8,48.8,23.7,48.8z"/>
				<polygon fill="#9E373A" points="29,49.2 28.8,49.3 29.4,49.2 				"/>
				<polygon fill="#9E373A" points="30.2,49.2 30.2,49.3 30.5,49.3 				"/>
				<path fill="#9E373A" d="M100.8,46l0.3-0.1C100.9,45.9,100.8,45.9,100.8,46z"/>
				<path fill="#9E373A" d="M98.7,46l-0.1,0.2C98.8,46.1,98.8,46,98.7,46z"/>
				<path fill="#9E373A" d="M60.9,50.1c0.4,0.2,0.9,0.6,0.8,0.3l-0.1-0.3C61.3,50.2,61.1,50.2,60.9,50.1z"/>
				<path fill="#9E373A" d="M82,48.5l-0.1-0.1c-0.1,0.1-0.2,0.2-0.3,0.4C81.7,48.6,81.8,48.5,82,48.5z"/>
				<path fill="#9E373A" d="M82.3,46.9l0.5,0.2C82.7,47,82.5,47,82.3,46.9z"/>
				<path fill="#9E373A" d="M112,45.1l0.3-0.5C111.8,44.6,112,44.8,112,45.1z"/>
				<path fill="#9E373A" d="M43,49.5c0.4,0.1,0.6,0.1,0.9,0.1C43.5,49.6,43.1,49.4,43,49.5z"/>
				<path fill="#9E373A" d="M100,50.9c0.2-0.1,0.2-0.2,0.2-0.3C100,50.7,99.9,50.8,100,50.9z"/>
				<path fill="#9E373A" d="M44.9,49.7c-0.1,0-0.1,0-0.2-0.1c-0.3,0-0.5,0-0.8,0C44.2,49.8,44.6,49.8,44.9,49.7z"/>
				<path fill="#9E373A" d="M152.5,44.4C152.6,44.4,152.6,44.4,152.5,44.4C152.6,44.4,152.6,44.4,152.5,44.4z"/>
				<path fill="#9E373A" d="M164.3,52c-0.1,0-0.3,0-0.5,0C163.9,52.1,164.1,52.1,164.3,52z"/>
				<path fill="#9E373A" d="M35.2,49.4C35,49.4,35.2,49.5,35.2,49.4L35.2,49.4z"/>
				<path fill="#9E373A" d="M34,48.9c0.1,0,0.1,0,0.1-0.1C34,48.8,34,48.8,34,48.9z"/>
				<path fill="#9E373A" d="M47.6,48.5L47.6,48.5C47.5,48.5,47.5,48.5,47.6,48.5z"/>
				<path fill="#9E373A" d="M34.8,49.4c0.1,0,0.2,0,0.3,0.1C35.1,49.4,35,49.4,34.8,49.4z"/>
				<path fill="#9E373A" d="M34.9,49.4c-0.1,0-0.2,0-0.2,0C34.6,49.4,34.7,49.5,34.9,49.4z"/>
				<path fill="#9E373A" d="M35.6,49.4c-0.2,0-0.3,0-0.4,0c0.1,0,0.1,0,0.1,0C35.3,49.4,35.4,49.4,35.6,49.4z"/>
				<path fill="#9E373A" d="M130.8,46.7C130.8,46.7,130.8,46.7,130.8,46.7C131.1,46.5,131,46.5,130.8,46.7z"/>
				<path fill="#9E373A" d="M67.8,47.1C67.8,47.1,67.8,47.1,67.8,47.1C67.8,47.1,67.8,47.1,67.8,47.1L67.8,47.1z"/>
				<path fill="#9E373A" d="M68.8,46.9c-0.4,0.4-0.6,0.4-0.9,0.3l0.3,0.9L68.8,46.9z"/>
				<path fill="#9E373A" d="M105.7,45.7l-0.7-0.4c0.8-0.8,1.4-0.5,0.8-1.1c-0.1,1.6-2.6,0.3-2.7,1.8l-0.4-0.3c0.1,0,0.1-0.1,0.3-0.1
					c-0.9-0.7-0.6,1.1-1.7,0.9c-0.4-0.1-0.7-0.3-0.4-0.5l-0.9,0.4c-0.2,0-0.2-0.3,0.1-0.3l-1.3,0.1l0,0c-0.2,0.2-0.6,0.6-0.8,0.7
					c-0.3-0.2,0.2-0.2,0.1-0.3L97.2,47c-0.3-0.4,0.3-0.7,0.8-0.7c-0.7-1.4-0.6,0.4-2.1-0.4l0.7-0.2c-0.4-0.8-1-0.5-1.7-0.9
					c0.2,0.2,1.5,1.2,0.8,1.6c-0.2-0.1-0.5-0.1-0.9,0.1c0-0.5-0.4-0.4-0.9-0.3l0-0.6c-0.6,0.2-0.5,0.5-0.8,0.8
					c-0.6,0-0.8-0.5-0.9-0.9c-1-0.1,0.7,0.8-0.5,0.9c-0.8-0.2-1.4,0.1-2.4,0.4c-0.6-0.2,0.1-0.4-0.1-0.5l-0.5,0.5
					c-0.1,0-0.1-0.2-0.1-0.2c-0.4,0.2,0,0.6-0.7,0.8c-0.2,0.7-1.4-0.9-2.3-0.2c-0.2-0.2,0.1-0.4,0-0.6c-1.2,0.5-1,0.4-1.9,1
					l-0.8-0.4c0.6,0.4-0.2,0.9-0.8,1.3c0.2,0.2,0.4,0.4,0.5,0.5l-1.1,0.3c-0.1-0.1,0-0.3,0.2-0.5c-0.1,0-0.1,0.1-0.2,0.1
					c-0.4-0.2-0.2-0.5,0.1-0.8c0.1,0.1,0.3,0.2,0.4,0.3c0.3-0.3,0.5-0.7,0.5-1c-0.1,0.1-0.2,0.1-0.3,0.2c0.1-0.1,0.1-0.2,0.1-0.2
					c0-0.1-0.1,0.1-0.3,0.2l-0.2-0.6l-0.1,0.2L80,46.7c-1,0.6-1.9,1.5-3.4,1.8c0.4-0.4,0.1-0.7,0.1-1.2c0.4,0.5,1.2-0.2,2-0.2
					c-0.4,0-0.3-0.3-0.2-0.4L77,47.3c0-0.4-0.3-0.3-0.7-0.5c0.3,0.8-1.1,0.6-1.7,0.8c0-0.3,0.1-0.5,0.8-0.5c-0.8-0.6-1,0.9-1.8,0.5
					c0.2,0,0.3,0,0.3-0.1c-0.4,0.2-1.4,0.1-1.2-0.2l0.2,0c-1.2-0.1-3.6,0.1-3.8,0.7c0-0.1,0.2-0.7,0.2-0.9c0,0-0.5,0.5-1.1,1
					c-0.5,0.5-1.1,1-1.1,1c0.2-0.5-0.5-1.7,0.5-2c-0.3-0.1-0.6-0.1-1.2,0.1c0.2,0.1,0.5,0.7,0.2,0.8c-0.7-0.6-0.5-0.3-1.4-0.8
					c0.3,0.1,0,0.9-0.5,0.9c0.1-0.1,0-0.8,0.1-0.8L63.9,48c0.3-0.1,0-0.6-0.2-0.8c0.1,0.1-1,0-1.3,0.1l0.5,0.2c-1.3-0.1-1.3,1-2.5,1
					c0.2-0.1,0.4-0.9-0.3-1c-0.3,0.4-1.3,1.7-2.4,1.9l-0.2-0.2l-0.9,0.2c0.5-0.5,2-1.6,2.9-2c-0.5-0.1-0.1-0.2-0.8-0.2
					c-0.3-0.2,0.4-0.3,0.6-0.3l-1.7-0.1c0.1,0.4-1.3,0.4-1.2,0.8l1.8-0.5c0.1,0.4-1,1.2-2.2,1.1c-0.3-0.1,0.2-0.7,0.2-0.8
					c-0.2,0.1-1.1,0.3-1.2,0.2l0.5-0.2c-0.7-0.1-1.1,0.5-1.9,0.2c-0.3,0-0.8-0.4-0.9-0.2c0.4,0.4,0.5,1.7,0.2,2
					c-0.1,0-1.4-0.4-1.7-0.6c-0.4-0.3,0.7-0.7,0.3-1c0,0.1-0.3,0.2-0.4,0.3c-0.3-0.1,0.1-0.3-0.5-0.2c-0.1,0.3-1.3,0-0.3,0.3
					c-0.6,0.1-0.6-0.1-1.4,0c0.2,0.2-0.6,0.7-1.2,0.8c0-0.1-0.1-0.2-0.2-0.2c-1.2,0-1.9-0.2-3.1-0.2c-0.1-0.1-0.7-0.2-0.4-0.3
					c-0.2,0.1-0.3,0.2-0.7,0.2c-0.7-0.2,0.8,0,0.3-0.3c0,0.2-0.9,0.2-1.4,0.4c0.2,0.3,1.2,0,1.7-0.1c0,0.4-0.9,0.7-2.1,0.9
					c-1,0.1-0.4-0.2-0.6-0.2c-1.8-0.1-1.5,0.5-3,0.3c-0.6-0.2,0-0.4-0.2-0.5c0.8-0.1,1.2,0.1,1.7,0.1l-0.7-0.1
					c0.2-0.1,0.8-0.1,1.1-0.1c-0.5-0.2-3.1,0-4.5-0.2c-0.2,0.1-0.7,0.1-0.5,0.2l0.4,0c0.4,0.1-0.8,0.2-0.3,0.3
					c-0.6,0.1-1.3,0.2-2.1,0.1l-0.2-0.2c0,0.1,0.5,0.1,0.8,0.1c-0.3,0.1-1.3-0.3-1.7,0l0.6,0.1c-0.6,0.1-1.3,0.3-2.1,0.2
					c0.3,0.2,0.2,0,0.7,0.2c-0.5-0.3,1.9,0.1,1.2-0.2c0.5,0.3,0.9,0.1,1.6,0.4c0-0.1-0.2-0.1,0.4-0.1c0,0,0.1,0,0.1-0.1c0,0,0,0,0,0
					l0,0c0,0,0,0,0,0c-0.1,0-0.3-0.1-0.3-0.1c0.3-0.1,1.3-0.1,1.6-0.2c0.4,0-0.2,0.1,0,0.2l0.5-0.1c0,0.2,1,0.3,0.1,0.4l0.8,0
					c0.5,0.1,1.1,0.2,1.5,0.1c0.4,0,0.9-0.2,0.6,0l1.2-0.1l0,0c1.2,0.1,2.5-0.3,3.9,0.1c0.4,0,0.8-0.1,1.5,0l0.1,0.2
					c0.5,0,1.6,0.2,1.8,0c0.6,0.5,2.5,0.2,3.5,0.3l0-0.3c0.6,0,1.2,0,2-0.1l0-0.2c0.7-0.2,1.7,0.2,2.8,0.2c-0.1,0.1-0.3,0.1-0.5,0
					c1.3,0.6,2.7-0.4,3.9,0.1c0.3-0.1,0.5-0.1,0.7,0c0,0-0.1,0-0.1,0c0,0,0.1,0,0.1,0c0.1,0.1,0.3,0.1,0.4,0.2
					c-0.1-0.1-0.2-0.1-0.3-0.2c0.2,0,0.6,0,0.9-0.1l0.1,0.3c0,0,0,0,0.1,0c0.3,0.1,0.3-0.1,0.1-0.4c0.2,0,0.3-0.1,0.4-0.2
					c0.3,0.5,0.9-0.2,1.2,0.4c0.2-0.3,1.7-0.2,1.8-0.7c0,0.1,0.1,0.1-0.1,0.1c0.4,0.1,0.7,0.1,1.1,0l0.2,0.4l0.8-0.6
					c0.5,0.3,0.7,0.4,0.2,0.7c1.2-0.5,1-0.2,2-0.7l0,0.3c0.4,0,0.9-0.4,1.1-0.1c0.8,0.6,4,0.1,6,0.7c-0.4-1,1,0.4,1-0.3
					c0.1,0.2,0.4,0.4,0.1,0.6c1-0.2,1.6,0.4,2.3-0.2c0.1,0.2-0.2,0.3-0.1,0.5c0.1,0,0.3-0.2,0.4-0.1c0.1,0.1-0.2,0.2-0.3,0.3
					c1.1,0,1.2-0.7,1.3-1.4c0.5,0.3,0.8,0.3,1.2-0.2c0.2,0.2,0.5,0.5-0.2,0.5c0.4,0,2.3,0.4,2.3-0.2c0.1,0.1,0.5,0.1,0.6,0
					c0.8,0,0.9,0.1,1.7,0.1l-0.2-0.1c0.3-0.7,0.7-0.2,1.3-0.2l0,0.1c1.5,0.5,0.7-0.2,2.2,0.4l-0.1-0.5c0.1-1,1.3,0.6,2.2,0.2
					L92,49.4c0.5-0.3,1.3,1.4,1.8,1.6c0.1,0.1-0.2,0.1-0.3,0.2c1.3,0.7,0.2-0.6,1.1-0.8c0.2,0.3-0.2,0.9,0.4,1
					c0.3,0.3,1.8-1.1,2.7-0.4c-0.2-0.3-0.4-0.6,0.1-0.8c0.7-0.1,1.8,1.1,2.4,0.2c0.1,0.1,0.1,0.2,0.1,0.2c0.5-0.2,1.6-0.3,2-0.8
					c0.5,1.9,3.2-0.9,3.1,0.9l1.6-0.1l0,0.2c1,0.1,1.4-0.3,1.7-0.7c0.2,0.1,0.1,0.3,0,0.4c1.5,0.4,1.6,0.3,2.8-0.6l0.1,0.6
					c0.3-0.4,2.1,1,3.5,0.3c0,0.1,0,0.2-0.2,0.3c1.6-0.7,3.9,1.9,4.4-0.5l1.1-0.6c-1.4-0.2,0.2-1-0.4-1.4c0.5-0.1,1.4,0.7,0.7,0.8
					l-0.1-0.1c-0.2,1.2,1.7,0.5,1.7,1.3c2.7,0,5.3,0.8,7.9,0.9l-0.3-1l0.9,0.1c0.2,0.2,0.3,0.8-0.3,0.8c0.3,0.6,1.1-0.5,1.1-0.7
					c1.2,0.5-0.5,1.2-0.1,1.3l0.5-0.1l-0.1-0.1c0.4-0.4,0.5-0.9,1.2-0.8c0.5,0.2,0.2,0.7,0.4,0.7c0,0.1,0.1,0.1,0.3,0l1.1,0.1
					l-0.4-0.9c0.5-0.4,1,0.1,0.5-0.9c0.8,1.5,4.2,0.6,4.6,1.1c0.7-0.6,1.4-0.6,2.2-0.5c-0.2-0.2-0.3-1.2,0.4-1.1
					c-0.3,2.1,1.3,0.9,1.9,2.5c-0.5-1,2.1-0.2,1.2-1.7c0.6,0.2,0,0.8,0.5,1.3c1.4-0.8,3.2,0.6,5,0.4c0-0.3-0.3-0.7,0.1-1.2l0.9,1.5
					c0.4-0.1,0.3-1.7,1-0.7c-0.1-0.3-0.2-0.6,0-0.7c1.8,0.8,3.5,0.5,5.3,0.4c1.8-0.1,3.6-0.1,5.4,1.4c-0.5-0.6-0.2-0.7,0.2-0.7
					c-0.2-0.2,0-0.8,0-1.2l1.5,1.2c0.3-1.2,1.6,0,1.8-1.2l-0.5,0.2c0.6-1.4-0.9-3.1-0.8-4.8c-0.7,1.6-1.9-2.3-3,0
					c-0.3-0.3,0.2-0.6,0.1-1c-0.3,0.7-0.6,0.9-1.3,0.6l0.1-0.2c-1.8,0.2-2.6-0.5-4.7-0.9l0.2,0.8c-0.4-0.1-0.5-0.4-0.7-0.6
					c-0.5,1.2,1.2,0,0.8,1.4c-0.6-1.7-3.1,0-3.5-1.8c-0.7,0,0.2,0.9-0.5,0.9L153,45l-0.2,0.6c-0.4-0.1-0.7-0.7-0.7-1.1
					c0.1,0,0.3-0.1,0.4-0.2c-0.6-0.6-1.6,0.2-1.8,0.1l0.7,0.3c-1.9,0.5-4.1-0.1-5.9,0.9l0.1,0.4c-1.4,0.7-1.1-0.4-2.6,0l0.1-0.1
					c-0.3,0.4-0.7,0.5-1.1,0.5c0.4-0.4-0.7-0.8-0.2-1.2c-1.5,0.7-0.7,0.6-1.7,1.9l-0.2-0.6c-0.3,0.5-0.4,0.8-1.1,0.9
					c0.6-0.5-0.5-0.9,0.2-1.5c-1.6-1.2-2.3,1.3-3.1-0.5c-0.7,1.5,1.4,0.8,1,1.2c0.3,0.5-0.6,1.2-1.1,1c-0.5,0-0.9-1.9-2.1-1.9
					c0.1,0,0.1-0.1,0.3-0.1c-0.5-0.4-0.9,0.5-1.5-0.1c-0.3,0.9-0.8,0-0.9,1.1l1.2-0.3c-0.7,0.3-1.3,1.6-2.4,1
					c0.1-0.2,0.4-0.5,0.6-0.7c-0.3-0.3-0.6,0.2-0.9-0.1c0.1-1.1,1.4-0.3,2.1-1.2c-0.3-0.5-1.3,0.9-1-0.4c-0.5,1.6-1.3-0.2-2.1,1
					l0.1-0.7c-0.1,0.1-0.4,0.4-0.7,0.4l0.5-0.9c-0.7,0.8-1.3-0.6-2-0.2c1.4-0.1,0.3,0.8,0.9,1.3c-1.7,0.9-1-1.7-2.9-1.3
					c0.3-0.1,1,0.4,0.6,0.7c-0.4-0.1-0.9-0.4-1.1-0.7c-1.3,0.2,0.2,0.7-0.3,1.1c-0.4-0.8-0.6,0.3-1.2,0.6l0-0.6
					c-1.5-0.4-0.4,1.3-1.7,0.9l0.6-0.9l-0.7,0.2l0.1-0.7c-0.7,0.6-1,0.4-1.7,0.2c0.2,0.4-0.1,1.1-0.7,1.2c-0.4-0.4,0.2-0.6-0.7-0.5
					c0.2-0.4,0.4-0.9,0.8-0.3c0-0.2,0.2-0.4,0.2-0.6c-0.5-0.4-1.2-0.1-1.5,0c0.1,0,0.3,0,0.4,0.1l-1.3,0.9c-0.2-0.2,0-0.4,0.1-0.6
					c-0.3,0.1-0.5,0.4-0.9,0.4c0.1-0.5,0.1-1,0.6-1.3l-1.3,0.6c-0.1-0.2-0.6-0.6-0.5-0.7c-0.7-0.3-1.7,1-2.6,0.7
					c0,0.1-0.1,0.2-0.3,0.3c-0.9-0.1-1.6-0.6-2.7,0l-0.6-0.8c-0.8,0.2,0.8,1-0.6,1.4c-1,0.3-0.4-0.7-0.7-0.9
					c-0.5,0.4-1.3,1.3-2.2,0.6C105.2,45.6,105.4,45.7,105.7,45.7z M95.7,46.3c0.2-0.1,0.6-0.4,0.7-0.2C96.2,46.7,96,46.4,95.7,46.3z
					 M80.5,47.7c0.1-0.1,0.4-0.1,0.6,0.1C80.9,47.8,80.7,47.8,80.5,47.7z M38.1,49.4L38.1,49.4C38.6,49.5,38.4,49.4,38.1,49.4z
					 M37.3,49.3C37.2,49.3,37.2,49.3,37.3,49.3c0,0,0.2,0,0.4,0C37.6,49.3,37.5,49.3,37.3,49.3z M133.6,51.4l-0.2-0.2
					C133.8,51,133.7,51.2,133.6,51.4z"/>
				<path fill="#9E373A" d="M82.2,47.1c0.1,0.1,0.1,0.1,0.1,0.2C82.4,47.2,82.4,47.1,82.2,47.1z"/>
				<path fill="#9E373A" d="M111.9,45.2C111.9,45.2,111.9,45.2,111.9,45.2c0,0,0.1-0.1,0.1-0.1L111.9,45.2z"/>
				<path fill="#9E373A" d="M51.2,47.5c0.2,0,0.3,0.1,0.4,0.1C51.5,47.6,51.4,47.5,51.2,47.5z"/>
				<path fill="#9E373A" d="M32.5,49.4l0.6,0C32.8,49.4,32.7,49.4,32.5,49.4C32.6,49.4,32.7,49.4,32.5,49.4z"/>
				<path fill="#9E373A" d="M27.5,48.5c-0.1,0-0.2,0-0.3,0l0,0.1C27.6,48.6,27.9,48.6,27.5,48.5z"/>
				<path fill="#9E373A" d="M32,48.9c0-0.1-0.4-0.1-0.8-0.1l0.1,0C31.1,49,31.5,49,32,48.9z"/>
				<path fill="#9E373A" d="M31.1,48.9c-0.1,0-0.3,0-0.4,0C30.6,48.9,30.8,48.9,31.1,48.9z"/>
				<path fill="#9E373A" d="M36.1,49.4c-0.2,0-0.1,0.2-0.2,0.1C35.7,49.6,37.2,49.3,36.1,49.4z"/>
				<polygon fill="#9E373A" points="31.6,48.5 31.8,48.7 32,48.6 				"/>
				<path fill="#9E373A" d="M34.8,48.7l-0.6,0c0,0-0.1,0-0.2,0.1C34.4,48.7,34.8,48.7,34.8,48.7z"/>
				<path fill="#9E373A" d="M34,48.7c-0.2,0-0.4,0-0.5,0C33.6,48.7,33.8,48.7,34,48.7z"/>
				<polygon fill="#9E373A" points="32.5,48.5 32.7,48.5 33.2,48.5 				"/>
				<path fill="#9E373A" d="M41.7,48.7l0.7-0.1c0.1-0.1-0.1-0.1-0.4-0.1C41.9,48.6,41.6,48.7,41.7,48.7z"/>
				<path fill="#9E373A" d="M39.6,48.2c0.2,0,0.2,0.1,0.3,0.1l0-0.2L39.6,48.2z"/>
				<path fill="#9E373A" d="M41.7,48.1c0.1-0.1,1-0.2,0.1-0.2C41.7,48,41,48.1,41.7,48.1z"/>
				<polygon fill="#9E373A" points="52.2,48.4 52.1,48.4 52.1,48.9 				"/>
				<path fill="#9E373A" d="M61.6,46.8c-0.8-0.1-0.2,0.4-0.9,0.2c-0.2,0.2,0.6,0.1,0.4,0.3C61.5,47.2,61.8,47.2,61.6,46.8z"/>
				<path fill="#9E373A" d="M61,47.3c-0.1,0-0.2,0.1-0.3,0.1C60.9,47.4,61,47.4,61,47.3z"/>
				<polygon fill="#9E373A" points="166.3,53 166.8,53.4 166.5,52.8 				"/>
				<path fill="#9E373A" d="M167.3,51.7l0.1,1.2l0.3-1.1C167.7,51.8,167.4,51.9,167.3,51.7z"/>
				<path fill="#9E373A" d="M94.2,45l0,0.2c0.1,0.2,0.2,0.2,0.5,0.2L94.2,45z"/>
				<polygon fill="#9E373A" points="101.5,45.2 101.3,45.2 101.6,45.9 				"/>
				<path fill="#9E373A" d="M107.6,44.2c-0.2,0-0.5,0.1-0.8,0.1C107.3,44.1,107.6,45,107.6,44.2z"/>
			</g>
		</g>
	</g>
</g>
<g>
	<path fill="#FFFFFF" d="M79,12.3c-0.5,2.9-2,6.8-4.4,11.5c-0.7,1.4-1.3,2.5-1.8,3.6c-0.5,1-1,1.9-1.5,2.6c-0.5,0.7-1,1.2-1.4,1.6
		c-0.5,0.3-1,0.5-1.6,0.5c-0.4,0-0.7-0.1-1-0.3c-0.3-0.2-0.5-0.6-0.7-1.1c-0.2-0.6-0.4-1.3-0.5-2.4c-0.1-1-0.3-2.3-0.4-4l-3.6,5.3
		c-0.3,0.5-0.6,0.9-0.9,1.2c-0.3,0.3-0.6,0.6-0.8,0.8c-0.3,0.2-0.6,0.3-0.9,0.4c-0.3,0.1-0.6,0.1-0.9,0.1c-0.5,0-0.9-0.1-1.2-0.4
		c-0.3-0.3-0.5-0.7-0.5-1.2c0-0.8,0-1.6,0-2.6c0-0.9,0-2,0.1-3.1c0-1.1,0.1-2.4,0.2-3.8c0.1-1.4,0.2-2.9,0.4-4.6
		c-0.4,0.4-0.7,0.8-1,1c-0.3,0.2-0.5,0.3-0.6,0.3c-0.1,0-0.2-0.1-0.3-0.2c-0.1-0.1-0.1-0.3-0.1-0.5c0-0.4,0.1-0.8,0.3-1.4
		c0.2-0.6,0.5-1.1,0.8-1.8c0.3-0.6,0.8-1.3,1.3-1.9c0.5-0.6,1.1-1.2,1.8-1.7c0.1-0.1,0.3-0.1,0.4-0.1c0.2,0,0.4,0.1,0.6,0.2
		c0.2,0.1,0.3,0.3,0.5,0.6c0.1,0.2,0.2,0.5,0.3,0.8c0.1,0.3,0.1,0.6,0.1,0.8c0,0.3,0,0.5,0,0.7c-0.1,0.2-0.1,0.5-0.2,0.6
		c0,0.2-0.1,0.4-0.2,0.7c-0.1,0.3-0.1,0.6-0.2,1c-0.1,0.4-0.1,1-0.2,1.7c-0.1,0.9-0.2,1.8-0.3,2.7c-0.1,0.9-0.1,1.8-0.2,2.7
		c0,0.9-0.1,1.8-0.1,2.8c0,0.9-0.1,1.9-0.1,2.8c0.2-0.3,0.5-0.7,0.8-1.1c0.3-0.5,0.6-1,1-1.5c0.3-0.5,0.7-1,1-1.6
		c0.3-0.5,0.6-1,0.9-1.4c0.3-0.4,0.5-0.8,0.6-1l0.2-0.4c0.4-1,0.8-2,1.2-3c0.4-1,0.8-2,1.2-3c0.4-1,0.8-1.7,1.2-2.2
		c0.4-0.5,0.9-0.8,1.4-0.8c0.4,0,0.7,0.1,1,0.2c0.3,0.1,0.4,0.3,0.4,0.6c0,0.4-0.1,0.8-0.3,1.3c-0.2,0.5-0.4,1.1-0.7,1.7
		c-0.3,0.6-0.5,1.2-0.7,1.8c-0.2,0.6-0.4,1.2-0.5,1.8c-0.1,0.9-0.1,1.8-0.1,2.4c0,0.7,0,1.3,0,1.8c0,0.7,0,1.4,0,2.2
		c0,0.8,0.1,1.5,0.1,2.2c0.4-0.6,0.9-1.3,1.4-2.1s0.9-1.5,1.4-2.3c0.5-0.8,0.9-1.6,1.4-2.4c0.4-0.8,0.8-1.6,1.2-2.5
		c0.4-0.8,0.7-1.6,1-2.4c0.3-0.8,0.5-1.5,0.6-2.3l0.2-1.2c0,0,0-0.1,0-0.1c0,0,0-0.1,0-0.1c0.1-0.3,0.1-0.6,0.2-0.9
		c0.1-0.3,0.2-0.5,0.3-0.7c0.1-0.2,0.3-0.3,0.5-0.4c0.2-0.1,0.4-0.1,0.7-0.1c0.5,0,0.8,0,1,0.1c0.2,0.1,0.3,0.3,0.3,0.7
		c0,0.1,0,0.2,0,0.3C79,12,79,12.1,79,12.3z"/>
	<path fill="#FFFFFF" d="M83.3,19.9c0.4,0,0.9,0.1,1.3,0.2c0.5,0.1,0.9,0.3,1.3,0.6c0.4,0.3,0.7,0.6,1,1c0.3,0.4,0.4,1,0.4,1.6
		c0,0.3,0,0.7-0.1,1.1c-0.1,0.4-0.2,0.9-0.4,1.3c0.1,0.1,0.2,0.2,0.4,0.3c0.1,0.1,0.3,0.1,0.5,0.1c0.2,0,0.5-0.1,0.8-0.2
		c0.3-0.1,0.6-0.3,0.9-0.5c0.3-0.2,0.6-0.4,0.9-0.7c0.3-0.3,0.6-0.5,0.8-0.8c0.3-0.3,0.5-0.5,0.7-0.7c0.2-0.2,0.4-0.4,0.5-0.6
		c0.1-0.1,0.2-0.1,0.3-0.1c0.2,0,0.3,0.1,0.4,0.2c0.1,0.2,0.2,0.4,0.2,0.7c0,0.3-0.1,0.6-0.3,1c-0.2,0.4-0.5,0.8-0.9,1.2
		c-0.3,0.3-0.6,0.6-0.9,1c-0.3,0.4-0.7,0.7-1.1,1c-0.4,0.3-0.8,0.6-1.2,0.8c-0.4,0.2-0.8,0.3-1.2,0.3c-0.3,0-0.6,0-0.8-0.1
		c-0.3-0.1-0.5-0.2-0.8-0.4c-0.4,0.6-0.8,1.2-1.3,1.7c-0.5,0.5-1.1,0.9-1.7,1.3c-0.6,0.4-1.3,0.6-2,0.8c-0.7,0.2-1.5,0.3-2.3,0.3
		c-0.3,0-0.7-0.1-1.1-0.2c-0.4-0.1-0.8-0.3-1.2-0.6c-0.4-0.3-0.7-0.6-0.9-1.1c-0.3-0.4-0.4-1-0.4-1.6c0-0.4,0.1-1,0.2-1.6
		c0.1-0.6,0.4-1.2,0.6-1.9c0.3-0.6,0.7-1.3,1.1-1.9c0.4-0.6,1-1.2,1.6-1.7c0.6-0.5,1.3-0.9,2.1-1.2C81.5,20,82.4,19.9,83.3,19.9z
		 M82.5,22.7c-0.5,0-1,0.1-1.5,0.4c-0.5,0.3-0.9,0.6-1.3,1c-0.4,0.4-0.7,0.9-0.9,1.4c-0.2,0.5-0.3,1.1-0.3,1.6c0,0.2,0,0.4,0,0.7
		c0,0.2,0.1,0.5,0.2,0.7c0.1,0.2,0.3,0.4,0.4,0.5c0.2,0.1,0.5,0.2,0.8,0.2c0.5,0,1-0.1,1.5-0.4c0.5-0.3,0.9-0.6,1.3-1
		c0.4-0.4,0.7-0.9,0.9-1.5c0.2-0.5,0.3-1.1,0.3-1.7c0-0.2,0-0.4,0-0.7c0-0.2-0.1-0.4-0.2-0.6c-0.1-0.2-0.3-0.4-0.4-0.5
		C83.1,22.8,82.8,22.7,82.5,22.7z"/>
	<path fill="#FFFFFF" d="M95.8,22.2c0.4-0.3,0.9-0.5,1.3-0.7c0.5-0.2,0.9-0.4,1.3-0.6c0.4-0.2,0.8-0.3,1.2-0.4
		c0.4-0.1,0.7-0.1,1-0.1c0.5,0,0.9,0.1,1.1,0.4c0.3,0.2,0.4,0.6,0.4,1.2c0,0.1,0,0.2,0,0.4c0,0.1,0,0.3-0.1,0.4
		c-0.1,0.3-0.2,0.6-0.5,1c-0.3,0.4-0.6,0.8-1,1.2c-0.4,0.4-0.8,0.8-1.2,1.3c-0.4,0.4-0.8,0.8-1.2,1.2c-0.4,0.4-0.6,0.7-0.9,0.9
		c-0.2,0.3-0.4,0.4-0.4,0.5c0,0.1,0,0.1,0,0.2c0,0,0.1,0,0.1,0c0.6-0.3,1.2-0.6,2-0.9c0.7-0.4,1.4-0.7,2.2-1.1
		c0.7-0.4,1.4-0.7,2-1.1c0.6-0.4,1.2-0.7,1.6-0.9c0.1-0.1,0.2-0.1,0.3-0.1c0.1,0,0.2-0.1,0.3-0.1c0.2,0,0.4,0.1,0.5,0.2
		c0.1,0.1,0.2,0.3,0.2,0.5c0,0.3-0.1,0.5-0.3,0.9c-0.2,0.3-0.6,0.7-1.1,1c-0.4,0.2-0.8,0.5-1.3,0.8c-0.5,0.3-1,0.6-1.5,0.9
		c-0.5,0.3-1,0.6-1.6,0.9c-0.5,0.3-1,0.6-1.5,0.8c-0.5,0.2-1,0.4-1.4,0.6c-0.4,0.1-0.8,0.2-1.1,0.2c-0.8,0-1.3-0.2-1.7-0.5
		s-0.6-0.8-0.6-1.4c0-0.1,0-0.2,0-0.2c0.1-0.5,0.2-0.9,0.4-1.4c0.2-0.4,0.4-0.9,0.7-1.3c0.3-0.4,0.5-0.8,0.8-1.2
		c0.3-0.4,0.5-0.7,0.8-1c0.2-0.3,0.4-0.6,0.6-0.9c0.2-0.3,0.2-0.5,0.2-0.8c0-0.1,0-0.1,0-0.2c0-0.1-0.1-0.1-0.1-0.1
		c-0.1,0-0.3,0-0.6,0.1c-0.3,0.1-0.6,0.2-1,0.4c-0.3,0.2-0.7,0.4-1,0.6c-0.3,0.2-0.5,0.4-0.7,0.7c-0.2,0.3-0.4,0.7-0.6,1.2
		c-0.2,0.5-0.5,1-0.7,1.5c-0.2,0.5-0.5,1-0.7,1.5c-0.2,0.5-0.4,0.9-0.6,1.3c-0.1,0.3-0.3,0.6-0.5,0.8c-0.2,0.3-0.4,0.5-0.7,0.6
		c-0.3,0.2-0.5,0.3-0.8,0.4c-0.3,0.1-0.5,0.1-0.7,0.1c-0.3,0-0.4-0.1-0.6-0.2c-0.1-0.1-0.2-0.3-0.2-0.6c0-0.1,0-0.3,0.1-0.4
		c0-0.2,0.1-0.4,0.2-0.6c0.2-0.4,0.4-0.8,0.6-1.2c0.2-0.4,0.4-0.9,0.7-1.5c0.3-0.6,0.6-1.2,0.9-1.9c0.3-0.7,0.7-1.6,1.2-2.5
		c-0.2-0.1-0.3-0.3-0.4-0.5c-0.1-0.2-0.2-0.4-0.2-0.7c0-0.3,0.1-0.5,0.2-0.7c0.1-0.2,0.3-0.3,0.4-0.5c0.2-0.1,0.4-0.2,0.6-0.3
		c0.2-0.1,0.5-0.1,0.8-0.1c0.3,0,0.6,0,0.8,0.1c0.3,0,0.5,0.1,0.8,0.2c0.2,0.1,0.4,0.2,0.5,0.4c0.1,0.1,0.2,0.3,0.2,0.5
		c0,0,0,0.1,0,0.1c0,0.1,0,0.1-0.1,0.2c0,0.1-0.1,0.1-0.1,0.2C95.7,22.1,95.7,22.2,95.8,22.2C95.7,22.2,95.7,22.2,95.8,22.2
		L95.8,22.2L95.8,22.2z"/>
	<path fill="#FFFFFF" d="M106.6,27c-0.1,0.3-0.2,0.5-0.4,0.9c-0.1,0.3-0.2,0.6-0.2,0.9c0,0.2,0,0.3,0.1,0.4c0.1,0.1,0.2,0.1,0.4,0.1
		c0.2,0,0.5-0.1,0.9-0.2c0.3-0.1,0.7-0.3,1.1-0.5c0.4-0.2,0.8-0.5,1.2-0.8c0.4-0.3,0.9-0.6,1.3-0.9c0.4-0.3,0.8-0.6,1.2-0.9
		c0.4-0.3,0.7-0.6,1-0.9c0.1-0.1,0.2-0.1,0.3-0.2c0.1,0,0.2,0,0.3,0c0.2,0,0.4,0.1,0.5,0.2c0.1,0.2,0.2,0.4,0.2,0.6
		c0,0.2-0.1,0.5-0.2,0.8c-0.2,0.3-0.4,0.6-0.8,0.8c-0.7,0.6-1.4,1.3-2.1,1.8c-0.7,0.6-1.4,1.1-2.1,1.5s-1.4,0.8-2.1,1.1
		c-0.7,0.3-1.4,0.4-2,0.4c-0.4,0-0.8-0.1-1.1-0.2c-0.3-0.1-0.5-0.3-0.7-0.5c-0.2-0.2-0.3-0.5-0.4-0.7c-0.1-0.3-0.1-0.6-0.1-0.9
		c0-0.5,0.1-1.1,0.2-1.6c0.2-0.6,0.3-1.1,0.6-1.5c0.4-0.8,0.8-1.7,1.2-2.5c0.4-0.8,0.8-1.6,1.1-2.3l5-10.5c0.2-0.4,0.5-0.7,0.8-0.9
		c0.3-0.2,0.7-0.3,1-0.3c0.3,0,0.6,0.1,0.9,0.3c0.3,0.2,0.4,0.5,0.4,0.9c0,0.2,0,0.4-0.1,0.6c-0.1,0.2-0.2,0.5-0.4,0.7
		c-0.3,0.5-0.6,1.1-1,1.9c-0.4,0.7-0.8,1.5-1.2,2.4c-0.4,0.9-0.9,1.8-1.3,2.7c-0.5,0.9-0.9,1.9-1.3,2.8c-0.4,0.9-0.8,1.7-1.2,2.5
		C107.2,25.7,106.9,26.4,106.6,27z"/>
	<path fill="#FFFFFF" d="M122.5,28.4C122.5,28.5,122.4,28.5,122.5,28.4c0,0.1,0,0.1,0,0.2c0,0.2,0,0.4,0.1,0.6
		c0.1,0.2,0.3,0.3,0.5,0.3c0.1,0,0.2,0,0.2,0c0.6-0.2,1.3-0.5,1.9-0.9c0.6-0.4,1.3-0.8,1.8-1.3c0.6-0.5,1.1-1,1.6-1.5
		c0.5-0.5,0.9-0.9,1.2-1.3c0.2-0.2,0.3-0.3,0.5-0.3c0.2,0,0.3,0.1,0.4,0.2c0.1,0.2,0.2,0.4,0.2,0.6c0,0.2-0.1,0.5-0.2,0.7
		c-0.1,0.3-0.3,0.6-0.6,0.9c-0.6,0.7-1.3,1.4-2,2c-0.7,0.7-1.4,1.2-2,1.7c-0.7,0.5-1.4,0.9-2.1,1.2c-0.7,0.3-1.3,0.5-2,0.5
		c-0.8,0-1.4-0.2-1.9-0.7c-0.5-0.5-0.7-1.1-0.7-2c0-0.1,0-0.1,0-0.2c0-0.1,0-0.1,0-0.2c-0.3,0.5-0.6,0.9-1,1.3
		c-0.4,0.4-0.8,0.7-1.3,1c-0.5,0.3-1,0.5-1.5,0.6c-0.5,0.1-1,0.2-1.5,0.2c-0.4,0-0.8-0.1-1.1-0.2c-0.3-0.1-0.6-0.3-0.9-0.5
		c-0.2-0.2-0.4-0.5-0.6-0.9c-0.1-0.4-0.2-0.8-0.2-1.3c0-0.9,0.1-1.8,0.4-2.6c0.3-0.8,0.7-1.6,1.1-2.3c0.5-0.7,1-1.3,1.6-1.9
		c0.6-0.6,1.2-1,1.9-1.4c0.6-0.4,1.3-0.7,1.9-0.9c0.6-0.2,1.2-0.3,1.8-0.3c0.6,0,1.2,0.1,1.6,0.3c0.2,0.1,0.4,0.3,0.6,0.4
		c0-0.1,0.1-0.2,0.1-0.3c0.1-0.3,0.2-0.5,0.3-0.7c0.1-0.2,0.1-0.3,0.2-0.4c0-0.1,0.1-0.3,0.3-0.7c0.2-0.4,0.3-0.8,0.5-1.3
		c0.2-0.5,0.4-1,0.7-1.6c0.2-0.6,0.4-1.1,0.6-1.6c0.2-0.5,0.4-0.9,0.5-1.3c0.1-0.4,0.2-0.6,0.3-0.7c0.1-0.3,0.2-0.5,0.3-0.8
		c0.1-0.3,0.3-0.5,0.5-0.7c0.2-0.2,0.4-0.3,0.6-0.5c0.2-0.1,0.5-0.2,0.8-0.2c0.4,0,0.8,0.1,1,0.3c0.3,0.2,0.4,0.5,0.4,1
		c0,0.2,0,0.4-0.1,0.6c-0.1,0.2-0.1,0.4-0.2,0.6c-0.1,0.2-0.1,0.4-0.2,0.6c-0.1,0.2-0.2,0.4-0.2,0.6c-0.5,1.1-1.1,2.3-1.7,3.6
		c-0.6,1.3-1.2,2.6-1.8,3.9c-0.6,1.3-1.1,2.6-1.7,3.8C123.3,26.3,122.9,27.4,122.5,28.4z M122,22c-0.7,0-1.3,0.2-2.1,0.4
		c-0.8,0.3-1.6,0.7-2.3,1.3c-0.7,0.6-1.3,1.3-1.7,2.1c-0.5,0.8-0.7,1.8-0.8,2.8c0,0.4,0.2,0.7,0.6,0.7c0.5,0,0.9-0.1,1.3-0.3
		c0.4-0.2,0.8-0.4,1.2-0.8c0.4-0.3,0.7-0.7,1.1-1.1c0.3-0.4,0.6-0.8,0.9-1.3c0.3-0.4,0.5-0.9,0.8-1.3c0.2-0.4,0.4-0.9,0.6-1.2
		c0.1-0.1,0.1-0.3,0.2-0.5C121.7,22.5,121.9,22.3,122,22z"/>
	<path fill="#FFFFFF" d="M161.3,12.3c-0.5,2.9-2,6.8-4.4,11.5c-0.7,1.4-1.3,2.5-1.8,3.6c-0.5,1-1,1.9-1.5,2.6
		c-0.5,0.7-1,1.2-1.4,1.6c-0.5,0.3-1,0.5-1.6,0.5c-0.4,0-0.7-0.1-1-0.3c-0.3-0.2-0.5-0.6-0.7-1.1c-0.2-0.6-0.4-1.3-0.5-2.4
		c-0.1-1-0.3-2.3-0.4-4l-3.6,5.3c-0.3,0.5-0.6,0.9-0.9,1.2c-0.3,0.3-0.6,0.6-0.8,0.8c-0.3,0.2-0.6,0.3-0.9,0.4
		c-0.3,0.1-0.6,0.1-0.9,0.1c-0.5,0-0.9-0.1-1.2-0.4c-0.3-0.3-0.5-0.7-0.5-1.2c0-0.8,0-1.6,0-2.6c0-0.9,0-2,0.1-3.1
		c0-1.1,0.1-2.4,0.2-3.8c0.1-1.4,0.2-2.9,0.4-4.6c-0.4,0.4-0.7,0.8-1,1c-0.3,0.2-0.5,0.3-0.6,0.3c-0.1,0-0.2-0.1-0.3-0.2
		c-0.1-0.1-0.1-0.3-0.1-0.5c0-0.4,0.1-0.8,0.3-1.4c0.2-0.6,0.5-1.1,0.8-1.8c0.3-0.6,0.8-1.3,1.3-1.9c0.5-0.6,1.1-1.2,1.8-1.7
		c0.1-0.1,0.3-0.1,0.4-0.1c0.2,0,0.4,0.1,0.6,0.2c0.2,0.1,0.3,0.3,0.5,0.6c0.1,0.2,0.2,0.5,0.3,0.8c0.1,0.3,0.1,0.6,0.1,0.8
		c0,0.3,0,0.5,0,0.7c-0.1,0.2-0.1,0.5-0.2,0.6c0,0.2-0.1,0.4-0.2,0.7c-0.1,0.3-0.1,0.6-0.2,1c-0.1,0.4-0.1,1-0.2,1.7
		c-0.1,0.9-0.2,1.8-0.3,2.7c-0.1,0.9-0.1,1.8-0.2,2.7c0,0.9-0.1,1.8-0.1,2.8c0,0.9-0.1,1.9-0.1,2.8c0.2-0.3,0.5-0.7,0.8-1.1
		c0.3-0.5,0.6-1,1-1.5c0.3-0.5,0.7-1,1-1.6c0.3-0.5,0.6-1,0.9-1.4c0.3-0.4,0.5-0.8,0.6-1l0.2-0.4c0.4-1,0.8-2,1.2-3
		c0.4-1,0.8-2,1.2-3c0.4-1,0.8-1.7,1.2-2.2c0.4-0.5,0.9-0.8,1.4-0.8c0.4,0,0.7,0.1,1,0.2c0.3,0.1,0.4,0.3,0.4,0.6
		c0,0.4-0.1,0.8-0.3,1.3c-0.2,0.5-0.4,1.1-0.7,1.7c-0.3,0.6-0.5,1.2-0.7,1.8c-0.2,0.6-0.4,1.2-0.5,1.8c-0.1,0.9-0.1,1.8-0.1,2.4
		c0,0.7,0,1.3,0,1.8c0,0.7,0,1.4,0,2.2c0,0.8,0.1,1.5,0.1,2.2c0.4-0.6,0.9-1.3,1.4-2.1c0.5-0.7,0.9-1.5,1.4-2.3
		c0.5-0.8,0.9-1.6,1.4-2.4c0.4-0.8,0.8-1.6,1.2-2.5c0.4-0.8,0.7-1.6,1-2.4c0.3-0.8,0.5-1.5,0.6-2.3l0.2-1.2c0,0,0-0.1,0-0.1
		c0,0,0-0.1,0-0.1c0.1-0.3,0.1-0.6,0.2-0.9c0.1-0.3,0.2-0.5,0.3-0.7c0.1-0.2,0.3-0.3,0.5-0.4c0.2-0.1,0.4-0.1,0.7-0.1
		c0.5,0,0.8,0,1,0.1c0.2,0.1,0.3,0.3,0.3,0.7c0,0.1,0,0.2,0,0.3C161.3,12,161.3,12.1,161.3,12.3z"/>
	<path fill="#FFFFFF" d="M176.4,27c-0.2,0.2-0.5,0.4-0.8,0.8c-0.3,0.3-0.7,0.7-1.1,1.1c-0.4,0.4-0.9,0.8-1.3,1.2
		c-0.5,0.4-1,0.7-1.5,1.1c-0.5,0.3-1,0.6-1.5,0.8c-0.5,0.2-0.9,0.3-1.4,0.3c-0.4,0-0.7-0.1-1-0.2c-0.3-0.2-0.5-0.4-0.7-0.6
		c-0.2-0.3-0.3-0.6-0.4-0.9c-0.1-0.3-0.1-0.7-0.1-1c0-0.2,0-0.5,0-0.7c0-0.2,0.1-0.4,0.2-0.6c-0.3,0.5-0.7,0.9-1.2,1.4
		c-0.4,0.5-0.9,0.9-1.4,1.3c-0.5,0.4-1,0.7-1.6,1c-0.5,0.3-1.1,0.4-1.6,0.4c-0.3,0-0.6-0.1-1-0.2c-0.4-0.1-0.7-0.3-1.1-0.6
		c-0.3-0.3-0.6-0.6-0.8-1c-0.2-0.4-0.3-0.9-0.3-1.5c0-0.4,0.1-1,0.2-1.6c0.1-0.6,0.3-1.3,0.6-1.9c0.3-0.7,0.6-1.3,1.1-2
		c0.4-0.7,0.9-1.2,1.5-1.8c0.6-0.5,1.3-0.9,2-1.3c0.8-0.3,1.6-0.5,2.5-0.5c0.5,0,0.9,0.1,1.3,0.2c0.4,0.1,0.7,0.3,0.9,0.4
		c0.3,0.2,0.5,0.4,0.8,0.6c0.2-0.1,0.4-0.2,0.6-0.3c0.2-0.1,0.3-0.1,0.5-0.2c0.2-0.1,0.3-0.1,0.5-0.1c0.4,0,0.8,0.1,1,0.3
		c0.3,0.2,0.4,0.5,0.4,0.8c0,0.1,0,0.1,0,0.2c-0.1,0.2-0.1,0.5-0.3,0.8c-0.1,0.3-0.2,0.7-0.4,1.1c-0.1,0.4-0.3,0.8-0.4,1.2
		c-0.1,0.4-0.3,0.8-0.4,1.2c-0.1,0.4-0.2,0.8-0.3,1.1c-0.1,0.4-0.1,0.7-0.1,0.9c0,0.3,0.1,0.6,0.2,0.8c0.1,0.2,0.3,0.3,0.6,0.3
		c0.2,0,0.4-0.1,0.6-0.2c0.2-0.1,0.5-0.2,0.7-0.4c0.3-0.2,0.5-0.4,0.8-0.6c0.3-0.2,0.5-0.4,0.8-0.7c0.6-0.5,1.3-1.2,1.9-1.9
		c0.2-0.1,0.3-0.2,0.5-0.2c0.2,0,0.4,0.1,0.5,0.3c0.1,0.2,0.2,0.4,0.2,0.7C176.7,26.6,176.6,26.8,176.4,27z M165,22.8
		c-0.5,0-1,0.1-1.5,0.4c-0.5,0.3-0.9,0.6-1.3,1c-0.4,0.4-0.7,0.9-0.9,1.4c-0.2,0.5-0.3,1.1-0.3,1.6c0,0.2,0,0.4,0,0.7
		c0,0.2,0.1,0.4,0.2,0.6c0.1,0.2,0.2,0.4,0.4,0.5c0.2,0.1,0.4,0.2,0.7,0.2c0.2,0,0.5-0.1,0.8-0.3c0.3-0.2,0.7-0.5,1-0.8
		c0.3-0.3,0.7-0.7,1-1.1c0.3-0.4,0.6-0.8,0.9-1.2c0.3-0.4,0.5-0.7,0.6-1c0.2-0.3,0.2-0.5,0.2-0.7c0-0.2-0.1-0.4-0.2-0.6
		c-0.1-0.2-0.3-0.3-0.5-0.4c-0.2-0.1-0.4-0.2-0.7-0.3C165.4,22.9,165.2,22.8,165,22.8z"/>
	<path fill="#FFFFFF" d="M180.4,22.2c0.4-0.3,0.9-0.5,1.3-0.7c0.5-0.2,0.9-0.4,1.3-0.6c0.4-0.2,0.8-0.3,1.2-0.4
		c0.4-0.1,0.7-0.1,1-0.1c0.5,0,0.9,0.1,1.1,0.4c0.3,0.2,0.4,0.6,0.4,1.2c0,0.1,0,0.2,0,0.4c0,0.1,0,0.3-0.1,0.4
		c-0.1,0.3-0.2,0.6-0.5,1c-0.3,0.4-0.6,0.8-1,1.2c-0.4,0.4-0.8,0.8-1.2,1.3c-0.4,0.4-0.8,0.8-1.2,1.2c-0.4,0.4-0.6,0.7-0.9,0.9
		c-0.2,0.3-0.4,0.4-0.4,0.5c0,0.1,0,0.1,0,0.2c0,0,0.1,0,0.1,0c0.6-0.3,1.2-0.6,2-0.9c0.7-0.4,1.4-0.7,2.2-1.1
		c0.7-0.4,1.4-0.7,2-1.1c0.6-0.4,1.2-0.7,1.6-0.9c0.1-0.1,0.2-0.1,0.3-0.1c0.1,0,0.2-0.1,0.3-0.1c0.2,0,0.4,0.1,0.5,0.2
		c0.1,0.1,0.2,0.3,0.2,0.5c0,0.3-0.1,0.5-0.3,0.9c-0.2,0.3-0.6,0.7-1.1,1c-0.4,0.2-0.8,0.5-1.3,0.8c-0.5,0.3-1,0.6-1.5,0.9
		c-0.5,0.3-1,0.6-1.6,0.9c-0.5,0.3-1,0.6-1.5,0.8c-0.5,0.2-1,0.4-1.4,0.6c-0.4,0.1-0.8,0.2-1.1,0.2c-0.8,0-1.3-0.2-1.7-0.5
		c-0.4-0.4-0.6-0.8-0.6-1.4c0-0.1,0-0.2,0-0.2c0.1-0.5,0.2-0.9,0.4-1.4c0.2-0.4,0.4-0.9,0.7-1.3c0.3-0.4,0.5-0.8,0.8-1.2
		c0.3-0.4,0.5-0.7,0.8-1c0.2-0.3,0.4-0.6,0.6-0.9c0.2-0.3,0.2-0.5,0.2-0.8c0-0.1,0-0.1,0-0.2c0-0.1-0.1-0.1-0.1-0.1
		c-0.1,0-0.3,0-0.6,0.1c-0.3,0.1-0.6,0.2-1,0.4c-0.3,0.2-0.7,0.4-1,0.6c-0.3,0.2-0.5,0.4-0.7,0.7c-0.2,0.3-0.4,0.7-0.6,1.2
		c-0.2,0.5-0.5,1-0.7,1.5c-0.2,0.5-0.5,1-0.7,1.5c-0.2,0.5-0.4,0.9-0.6,1.3c-0.1,0.3-0.3,0.6-0.5,0.8c-0.2,0.3-0.4,0.5-0.7,0.6
		c-0.3,0.2-0.5,0.3-0.8,0.4c-0.3,0.1-0.5,0.1-0.7,0.1c-0.3,0-0.4-0.1-0.6-0.2s-0.2-0.3-0.2-0.6c0-0.1,0-0.3,0.1-0.4
		c0-0.2,0.1-0.4,0.2-0.6c0.2-0.4,0.4-0.8,0.6-1.2c0.2-0.4,0.4-0.9,0.7-1.5c0.3-0.6,0.6-1.2,0.9-1.9c0.3-0.7,0.7-1.6,1.2-2.5
		c-0.2-0.1-0.3-0.3-0.4-0.5c-0.1-0.2-0.2-0.4-0.2-0.7c0-0.3,0.1-0.5,0.2-0.7c0.1-0.2,0.3-0.3,0.4-0.5c0.2-0.1,0.4-0.2,0.6-0.3
		c0.2-0.1,0.5-0.1,0.8-0.1c0.3,0,0.6,0,0.8,0.1c0.3,0,0.5,0.1,0.8,0.2c0.2,0.1,0.4,0.2,0.5,0.4c0.1,0.1,0.2,0.3,0.2,0.5
		c0,0,0,0.1,0,0.1c0,0.1,0,0.1-0.1,0.2c0,0.1-0.1,0.1-0.1,0.2C180.3,22.1,180.3,22.2,180.4,22.2C180.3,22.2,180.3,22.2,180.4,22.2
		L180.4,22.2L180.4,22.2z"/>
	<path fill="#FFFFFF" d="M198.4,24.2c0-1.6,0.2-3.1,0.7-4.5c0.5-1.4,1.1-2.7,1.9-3.9c0.8-1.2,1.7-2.3,2.8-3.2
		c1.1-0.9,2.2-1.8,3.3-2.4c1.1-0.7,2.3-1.2,3.5-1.5c1.2-0.4,2.3-0.5,3.4-0.5c0.9,0,1.8,0.1,2.7,0.3c0.9,0.2,1.6,0.6,2.3,1
		c0.7,0.4,1.2,1,1.7,1.7c0.4,0.7,0.7,1.5,0.9,2.4c0,0.1,0,0.1,0,0.1c0,0,0,0.1,0,0.1c0,0.4-0.1,0.7-0.4,1c-0.2,0.2-0.5,0.3-0.8,0.3
		c-0.3,0-0.6-0.2-0.9-0.5c-0.3-0.3-0.5-0.8-0.8-1.4c-0.4-0.8-1-1.3-1.7-1.7c-0.8-0.3-1.6-0.5-2.6-0.5c-0.8,0-1.7,0.2-2.6,0.5
		c-0.9,0.3-1.8,0.7-2.7,1.3c-0.9,0.6-1.8,1.2-2.6,2c-0.8,0.8-1.5,1.6-2.2,2.6c-0.6,0.9-1.1,2-1.5,3c-0.4,1.1-0.5,2.2-0.5,3.4
		c0,1,0.1,1.8,0.4,2.5c0.2,0.7,0.6,1.2,0.9,1.6c0.4,0.4,0.8,0.7,1.3,0.9c0.5,0.2,1,0.3,1.5,0.3c1.1,0,2.2-0.3,3.2-0.9
		c1-0.6,1.9-1.5,2.7-2.6c0.8-1.1,1.4-2.5,1.8-4.2c0.5-1.6,0.7-3.5,0.7-5.5c0-0.2,0-0.4,0-0.6c0-0.2,0-0.4,0-0.6
		c0-0.5,0.1-0.9,0.3-1.2c0.2-0.3,0.4-0.4,0.7-0.4c0.4,0,0.8,0.1,1,0.4c0.3,0.2,0.5,0.5,0.6,0.9c0.2,0.4,0.3,0.8,0.3,1.3
		c0.1,0.5,0.1,1,0.1,1.5c0,1.5-0.2,2.9-0.5,4.2c-0.3,1.3-0.8,2.5-1.3,3.6c-0.6,1.1-1.2,2.1-2,3c-0.8,0.9-1.6,1.6-2.5,2.3
		c-0.9,0.6-1.8,1.1-2.8,1.4c-1,0.3-2,0.5-3,0.5c-0.9,0-1.8-0.1-2.7-0.4c-0.9-0.3-1.7-0.7-2.4-1.3c-0.7-0.6-1.2-1.4-1.7-2.4
		C198.6,27,198.4,25.7,198.4,24.2z"/>
	<path fill="#FFFFFF" d="M220.8,21.8c0.2-0.5,0.5-0.8,0.8-1s0.6-0.3,1-0.3c0.3,0,0.5,0.1,0.7,0.3c0.2,0.2,0.3,0.5,0.3,0.8
		c0,0.1,0,0.3,0,0.5c0,0.2-0.1,0.3-0.2,0.5c0.2-0.3,0.6-0.6,1-0.9c0.4-0.3,0.9-0.6,1.5-0.9c0.5-0.3,1.1-0.5,1.7-0.6
		c0.6-0.2,1.1-0.2,1.6-0.2c0.6,0,1.1,0.1,1.4,0.4c0.4,0.3,0.6,0.7,0.6,1.4c0,0.4-0.1,0.8-0.2,1.2c-0.1,0.4-0.3,0.8-0.5,1.3
		c-0.2,0.4-0.4,0.8-0.6,1.3c-0.2,0.4-0.5,0.8-0.7,1.2c-0.2,0.4-0.4,0.7-0.6,1c-0.2,0.3-0.3,0.5-0.4,0.7c-0.1,0.2-0.2,0.4-0.2,0.6
		c0,0.1,0,0.2,0.1,0.2c0.1,0.1,0.1,0.1,0.3,0.1c0.1,0,0.2,0,0.3,0c0.1,0,0.2-0.1,0.4-0.2c0.6-0.2,1.2-0.5,1.8-0.8
		c0.6-0.3,1.2-0.7,1.8-1c0.6-0.4,1.1-0.7,1.6-1.1c0.5-0.4,0.9-0.7,1.2-1c0.1-0.1,0.2-0.1,0.3-0.2c0.1,0,0.2,0,0.2,0
		c0.2,0,0.3,0.1,0.4,0.2c0.1,0.1,0.2,0.3,0.2,0.5c0,0.3-0.1,0.7-0.3,1.1c-0.2,0.4-0.5,0.8-1,1.2c-0.6,0.4-1.2,0.9-1.7,1.2
		c-0.5,0.4-1,0.7-1.6,1c-0.5,0.3-1.1,0.6-1.7,0.9c-0.6,0.3-1.3,0.5-2.2,0.8c-0.3,0.1-0.5,0.2-0.8,0.2c-0.2,0-0.4,0.1-0.6,0.1
		c-0.6,0-1-0.2-1.3-0.5c-0.3-0.3-0.4-0.8-0.4-1.3c0-0.1,0-0.1,0-0.2c0-0.1,0-0.1,0-0.2c0-0.3,0.1-0.7,0.3-1.1
		c0.2-0.4,0.3-0.8,0.6-1.2c0.2-0.4,0.5-0.8,0.7-1.3c0.3-0.4,0.5-0.8,0.7-1.2c0.2-0.4,0.4-0.7,0.5-1c0.1-0.3,0.2-0.5,0.2-0.7
		c0-0.2,0-0.3-0.1-0.4c-0.1-0.1-0.2-0.2-0.4-0.2c-0.7,0-1.4,0.2-2,0.6c-0.6,0.4-1.2,0.9-1.8,1.5c-0.5,0.6-1,1.2-1.5,1.9
		c-0.5,0.7-0.9,1.3-1.2,1.8c-0.2,0.4-0.4,0.7-0.6,1.2c-0.2,0.4-0.4,0.8-0.6,1.1c-0.2,0.4-0.4,0.6-0.7,0.9c-0.2,0.2-0.6,0.4-0.9,0.4
		c-0.4,0-0.7-0.1-0.9-0.4c-0.2-0.2-0.3-0.5-0.3-0.9c0-0.2,0.1-0.5,0.2-0.9c0.2-0.4,0.3-0.9,0.6-1.4c0.2-0.5,0.5-1.1,0.8-1.8
		c0.3-0.6,0.6-1.2,0.9-1.9c0.3-0.6,0.6-1.2,0.9-1.7C220.4,22.7,220.6,22.2,220.8,21.8z"/>
	<path fill="#FFFFFF" d="M241.1,19.8c0.9,0,1.6,0.2,2,0.7c0.4,0.4,0.7,1,0.7,1.8c0,0.5-0.1,0.9-0.4,1.4c-0.2,0.5-0.7,1-1.2,1.5
		c-0.6,0.5-1.4,1-2.4,1.6c-1,0.5-2.2,1.1-3.7,1.6c0.1,0.3,0.2,0.6,0.5,0.7c0.3,0.2,0.7,0.3,1.1,0.3c0.5,0,1-0.1,1.6-0.2
		c0.6-0.1,1.1-0.3,1.7-0.6c0.6-0.2,1.1-0.5,1.6-0.7c0.5-0.3,1-0.5,1.4-0.8c0.4-0.2,0.8-0.4,1.1-0.6c0.3-0.2,0.5-0.3,0.6-0.3
		c0.1-0.1,0.2-0.1,0.3-0.1c0.1,0,0.2,0,0.2,0c0.1,0,0.2,0,0.3,0.1c0.1,0.1,0.2,0.1,0.2,0.2c0.1,0.1,0.1,0.2,0.1,0.3
		c0,0.1,0,0.2,0,0.2c0,0.1,0,0.2,0,0.4c0,0.1-0.1,0.3-0.2,0.5c-0.1,0.1-0.2,0.2-0.5,0.4c-0.3,0.2-0.7,0.5-1.2,0.8
		c-0.5,0.3-1.1,0.7-1.7,1c-0.6,0.4-1.3,0.7-2.1,1c-0.7,0.3-1.5,0.6-2.3,0.8c-0.8,0.2-1.6,0.3-2.3,0.3c-0.7,0-1.2-0.1-1.7-0.4
		c-0.5-0.3-0.9-0.6-1.3-1c-0.4-0.4-0.6-0.9-0.8-1.5c-0.2-0.6-0.3-1.1-0.3-1.7c0-0.5,0.1-1,0.3-1.5c0.2-0.6,0.5-1.1,0.8-1.7
		c0.3-0.6,0.8-1.1,1.3-1.7c0.5-0.5,1.1-1,1.7-1.4c0.6-0.4,1.3-0.7,2.1-1C239.4,20,240.2,19.8,241.1,19.8z M240.5,22.1
		c-0.1,0-0.1,0-0.1,0c0,0-0.1,0-0.1,0c-0.4,0-0.8,0.1-1.2,0.2c-0.4,0.2-0.7,0.4-1,0.6c-0.3,0.3-0.6,0.6-0.8,0.9
		c-0.2,0.3-0.4,0.7-0.6,1c-0.2,0.3-0.3,0.7-0.5,1c-0.1,0.3-0.2,0.6-0.3,0.8c0.4-0.2,0.8-0.4,1.2-0.7c0.4-0.3,0.8-0.5,1.2-0.7
		c0.4-0.2,0.7-0.4,0.9-0.6c0.3-0.2,0.5-0.3,0.6-0.4c0.5-0.3,0.8-0.6,1-0.9c0.2-0.3,0.3-0.5,0.3-0.7c0-0.2-0.1-0.3-0.2-0.4
		C240.7,22.2,240.6,22.1,240.5,22.1z"/>
</g>
<g>
	<path fill="#901A1D" d="M179.5,46.8c0.2,0,0.4,0.1,0.5,0.3c0.1,0.2,0.1,0.4,0.1,0.6c0,0.1,0,0.2,0,0.3c0,0.1-0.1,0.2-0.1,0.2
		c-0.1,0.1-0.2,0.1-0.3,0.2c-0.1,0.1-0.3,0.1-0.4,0.2c-0.4,0.2-0.7,0.4-1,0.6c-0.2,0.2-0.4,0.5-0.4,0.7c0,0.2,0.1,0.3,0.2,0.4
		c0.1,0.1,0.3,0.3,0.5,0.4c0.2,0.1,0.5,0.2,0.9,0.3c0.3,0.1,0.8,0.1,1.3,0.1c0.5,0,1-0.1,1.4-0.2c0.5-0.1,0.9-0.3,1.2-0.5
		c0.3-0.2,0.6-0.5,0.8-0.8c0.2-0.3,0.3-0.6,0.3-1c0-0.3-0.1-0.5-0.3-0.8c-0.2-0.3-0.6-0.6-1-0.9c-0.8-0.5-1.5-1-1.9-1.3
		c-0.4-0.3-0.7-0.5-0.8-0.6c-0.5-0.5-1-0.9-1.2-1.4c-0.3-0.4-0.4-0.9-0.4-1.4c0-0.4,0.1-0.9,0.3-1.3c0.2-0.4,0.5-0.8,0.9-1.2
		c0.4-0.4,0.8-0.7,1.3-1c0.5-0.3,1-0.6,1.5-0.8c0.5-0.2,1-0.4,1.6-0.5c0.5-0.1,1-0.2,1.5-0.2c0.4,0,0.7,0,1,0.1
		c0.3,0.1,0.6,0.2,0.8,0.4c0.2,0.2,0.4,0.4,0.5,0.7c0.1,0.3,0.2,0.6,0.2,1c0,0.5-0.2,1.1-0.5,1.6c-0.3,0.5-0.8,1-1.4,1.4
		c-0.3,0.2-0.5,0.3-0.8,0.3c-0.2,0-0.4-0.1-0.6-0.3c-0.1-0.2-0.2-0.4-0.2-0.6c0-0.2,0.1-0.4,0.2-0.6c0.1-0.2,0.3-0.4,0.6-0.5
		c0.2-0.1,0.4-0.3,0.6-0.4c0.2-0.2,0.2-0.4,0.2-0.5c0-0.2-0.1-0.3-0.2-0.3c-0.1-0.1-0.3-0.1-0.4-0.1c-0.3,0-0.6,0-1,0.1
		c-0.4,0.1-0.7,0.2-1.1,0.3c-0.4,0.1-0.7,0.3-1.1,0.5c-0.3,0.2-0.6,0.4-0.9,0.6c-0.3,0.2-0.5,0.4-0.6,0.7c-0.2,0.2-0.2,0.5-0.2,0.7
		c0,0.2,0,0.3,0.1,0.4c0.1,0.1,0.2,0.3,0.3,0.4c0.1,0.1,0.3,0.3,0.5,0.4c0.2,0.2,0.4,0.3,0.6,0.5l2.6,1.9c0.3,0.2,0.6,0.5,0.9,0.7
		c0.3,0.2,0.5,0.5,0.7,0.7c0.2,0.2,0.3,0.5,0.4,0.7c0.1,0.2,0.1,0.5,0.1,0.7c0,0.6-0.2,1.2-0.5,1.7c-0.3,0.6-0.7,1.1-1.3,1.5
		c-0.6,0.4-1.2,0.8-2,1.1c-0.8,0.3-1.7,0.4-2.6,0.4c-0.9,0-1.7-0.1-2.3-0.2c-0.6-0.1-1.1-0.3-1.5-0.6c-0.4-0.2-0.7-0.5-0.9-0.8
		c-0.2-0.3-0.3-0.7-0.3-1c0-0.4,0.1-0.7,0.3-1.1c0.2-0.4,0.4-0.7,0.8-1.1c0.3-0.3,0.7-0.6,1.2-0.9C178.4,47.1,178.9,46.9,179.5,46.8
		z"/>
	<path fill="#901A1D" d="M192.6,44.9c0.3,0,0.6,0,0.9,0.1c0.3,0.1,0.6,0.2,0.9,0.4c0.3,0.2,0.5,0.4,0.7,0.7c0.2,0.3,0.3,0.6,0.3,1.1
		c0,0.2,0,0.5-0.1,0.8c-0.1,0.3-0.1,0.6-0.3,0.9c0.1,0.1,0.2,0.1,0.3,0.2c0.1,0,0.2,0.1,0.3,0.1c0.2,0,0.3,0,0.5-0.1
		c0.2-0.1,0.4-0.2,0.6-0.3c0.2-0.1,0.4-0.3,0.6-0.5c0.2-0.2,0.4-0.4,0.6-0.5c0.2-0.2,0.3-0.3,0.5-0.5c0.1-0.2,0.3-0.3,0.4-0.4
		c0.1-0.1,0.1-0.1,0.2-0.1c0.1,0,0.2,0.1,0.3,0.2c0.1,0.1,0.1,0.3,0.1,0.4c0,0.2-0.1,0.4-0.2,0.7c-0.1,0.2-0.3,0.5-0.6,0.8
		c-0.2,0.2-0.4,0.4-0.6,0.7c-0.2,0.2-0.5,0.5-0.7,0.7c-0.3,0.2-0.5,0.4-0.8,0.6c-0.3,0.2-0.6,0.2-0.8,0.2c-0.2,0-0.4,0-0.6-0.1
		c-0.2-0.1-0.4-0.2-0.5-0.3c-0.3,0.4-0.6,0.8-0.9,1.1c-0.3,0.3-0.7,0.6-1.1,0.9c-0.4,0.2-0.9,0.4-1.3,0.6c-0.5,0.1-1,0.2-1.5,0.2
		c-0.2,0-0.4,0-0.7-0.1c-0.3-0.1-0.5-0.2-0.8-0.4c-0.2-0.2-0.5-0.4-0.6-0.7c-0.2-0.3-0.3-0.7-0.3-1.1c0-0.3,0-0.6,0.1-1.1
		c0.1-0.4,0.2-0.8,0.4-1.3c0.2-0.4,0.4-0.9,0.7-1.3c0.3-0.4,0.6-0.8,1.1-1.2c0.4-0.3,0.9-0.6,1.4-0.8S192,44.9,192.6,44.9z
		 M192.1,46.9c-0.3,0-0.7,0.1-1,0.3c-0.3,0.2-0.6,0.4-0.8,0.7c-0.2,0.3-0.4,0.6-0.6,1c-0.1,0.4-0.2,0.7-0.2,1.1c0,0.1,0,0.3,0,0.5
		c0,0.2,0.1,0.3,0.1,0.5c0.1,0.1,0.2,0.3,0.3,0.4c0.1,0.1,0.3,0.1,0.5,0.1c0.3,0,0.7-0.1,1-0.3c0.3-0.2,0.6-0.4,0.9-0.7
		c0.2-0.3,0.4-0.6,0.6-1c0.1-0.4,0.2-0.7,0.2-1.1c0-0.1,0-0.3,0-0.5c0-0.2-0.1-0.3-0.1-0.4c-0.1-0.1-0.2-0.2-0.3-0.3
		C192.5,46.9,192.3,46.9,192.1,46.9z"/>
	<path fill="#901A1D" d="M208.9,50.3c-0.3,0.4-0.7,0.7-1.1,1.1c-0.4,0.3-0.9,0.7-1.3,0.9c-0.5,0.3-0.9,0.5-1.3,0.7
		c-0.4,0.2-0.8,0.2-1.2,0.2c-0.4,0-0.6-0.1-0.9-0.3c-0.2-0.2-0.3-0.5-0.3-1c0-0.3,0.1-0.7,0.2-1.2c-0.2,0.3-0.4,0.6-0.7,0.9
		c-0.3,0.3-0.6,0.6-1,0.8c-0.4,0.2-0.8,0.4-1.2,0.6c-0.5,0.1-0.9,0.2-1.5,0.2c-0.2,0-0.5,0-0.7-0.1c-0.2-0.1-0.4-0.1-0.6-0.3
		c-0.2-0.1-0.3-0.3-0.4-0.5c-0.1-0.2-0.2-0.5-0.2-0.8c0,0,0-0.1,0-0.3c0-0.2,0.1-0.6,0.3-1c0.2-0.5,0.4-1.1,0.7-1.8
		c0.3-0.7,0.8-1.6,1.4-2.7c0.2-0.3,0.3-0.5,0.5-0.6c0.2-0.1,0.4-0.2,0.7-0.2c0.1,0,0.2,0,0.3,0c0.1,0,0.2,0.1,0.3,0.1
		c0.1,0.1,0.2,0.1,0.2,0.2c0.1,0.1,0.1,0.2,0.1,0.3c0,0.1,0,0.1,0,0.2c0,0.1-0.1,0.3-0.2,0.5c-0.1,0.2-0.3,0.4-0.4,0.7
		c-0.2,0.3-0.3,0.5-0.5,0.8c-0.2,0.3-0.3,0.6-0.5,0.9c-0.2,0.3-0.3,0.6-0.4,1c-0.1,0.3-0.2,0.7-0.2,1c0,0.1,0,0.3,0.1,0.4
		c0.1,0.1,0.2,0.2,0.4,0.2c0.5,0,0.9-0.1,1.4-0.4c0.4-0.3,0.8-0.6,1.2-1c0.4-0.4,0.7-0.8,1-1.3c0.3-0.4,0.5-0.9,0.7-1.2
		c0.1-0.2,0.3-0.5,0.4-0.8c0.1-0.3,0.2-0.5,0.3-0.8c0.1-0.2,0.3-0.4,0.4-0.6c0.2-0.2,0.4-0.2,0.6-0.2c0.3,0,0.5,0.1,0.6,0.3
		c0.2,0.2,0.2,0.4,0.2,0.6c0,0.1,0,0.3-0.1,0.5c-0.1,0.2-0.2,0.5-0.4,0.8c-0.1,0.3-0.3,0.6-0.5,0.9c-0.2,0.3-0.3,0.7-0.5,1
		c-0.1,0.3-0.3,0.7-0.4,1c-0.1,0.3-0.1,0.6-0.1,0.9c0,0.3,0.2,0.4,0.5,0.4c0.2,0,0.5-0.1,0.8-0.2c0.3-0.1,0.7-0.3,1.1-0.6
		c0.4-0.2,0.7-0.5,1.1-0.8c0.4-0.3,0.7-0.7,1-1L208.9,50.3z"/>
	<path fill="#901A1D" d="M211.2,46.5c0.3-0.2,0.6-0.3,0.9-0.5c0.3-0.1,0.6-0.3,0.9-0.4c0.3-0.1,0.6-0.2,0.8-0.3
		c0.3-0.1,0.5-0.1,0.7-0.1c0.3,0,0.6,0.1,0.8,0.2c0.2,0.2,0.3,0.4,0.3,0.8c0,0.1,0,0.2,0,0.3c0,0.1,0,0.2,0,0.3
		c0,0.2-0.1,0.4-0.3,0.7c-0.2,0.3-0.4,0.5-0.6,0.8c-0.2,0.3-0.5,0.6-0.8,0.8c-0.3,0.3-0.5,0.5-0.8,0.8c-0.2,0.2-0.4,0.4-0.6,0.6
		c-0.2,0.2-0.2,0.3-0.2,0.4c0,0.1,0,0.1,0,0.1c0,0,0,0,0.1,0c0.4-0.2,0.8-0.4,1.3-0.6c0.5-0.2,1-0.5,1.5-0.7
		c0.5-0.2,0.9-0.5,1.4-0.7c0.4-0.2,0.8-0.4,1.1-0.6c0.1,0,0.1-0.1,0.2-0.1c0.1,0,0.1,0,0.2,0c0.1,0,0.2,0,0.3,0.1
		c0.1,0.1,0.1,0.2,0.1,0.4c0,0.2-0.1,0.4-0.2,0.6c-0.1,0.2-0.4,0.4-0.7,0.7c-0.3,0.2-0.5,0.3-0.9,0.5c-0.3,0.2-0.7,0.4-1,0.6
		c-0.3,0.2-0.7,0.4-1.1,0.6c-0.4,0.2-0.7,0.4-1,0.5c-0.3,0.2-0.6,0.3-0.9,0.4c-0.3,0.1-0.5,0.1-0.8,0.1c-0.5,0-0.9-0.1-1.1-0.4
		c-0.3-0.2-0.4-0.6-0.4-0.9c0-0.1,0-0.1,0-0.1c0.1-0.3,0.1-0.6,0.3-0.9c0.1-0.3,0.3-0.6,0.5-0.9c0.2-0.3,0.4-0.5,0.5-0.8
		c0.2-0.2,0.4-0.5,0.5-0.7c0.2-0.2,0.3-0.4,0.4-0.6c0.1-0.2,0.2-0.4,0.2-0.5c0,0,0-0.1,0-0.1c0,0,0-0.1-0.1-0.1
		c-0.1,0-0.2,0-0.4,0.1c-0.2,0.1-0.4,0.2-0.6,0.3c-0.2,0.1-0.4,0.2-0.6,0.4c-0.2,0.1-0.4,0.3-0.4,0.5c-0.1,0.2-0.3,0.5-0.4,0.8
		c-0.2,0.3-0.3,0.6-0.5,1c-0.2,0.3-0.3,0.7-0.5,1c-0.2,0.3-0.3,0.6-0.4,0.9c-0.1,0.2-0.2,0.4-0.3,0.6c-0.1,0.2-0.3,0.3-0.5,0.4
		c-0.2,0.1-0.3,0.2-0.5,0.3c-0.2,0.1-0.3,0.1-0.5,0.1c-0.2,0-0.3,0-0.4-0.1c-0.1-0.1-0.1-0.2-0.1-0.4c0-0.1,0-0.2,0-0.3
		c0-0.1,0.1-0.3,0.2-0.4c0.1-0.2,0.3-0.5,0.4-0.8c0.1-0.3,0.3-0.6,0.5-1c0.2-0.4,0.4-0.8,0.6-1.3c0.2-0.5,0.5-1,0.8-1.7
		c-0.1-0.1-0.2-0.2-0.3-0.3c-0.1-0.1-0.1-0.3-0.1-0.5c0-0.2,0-0.3,0.1-0.5c0.1-0.1,0.2-0.2,0.3-0.3c0.1-0.1,0.3-0.1,0.4-0.2
		c0.2,0,0.3-0.1,0.5-0.1c0.2,0,0.4,0,0.6,0c0.2,0,0.4,0.1,0.5,0.1c0.1,0.1,0.3,0.1,0.4,0.2c0.1,0.1,0.1,0.2,0.1,0.3c0,0,0,0.1,0,0.1
		c0,0,0,0.1,0,0.1C211.2,46.3,211.2,46.4,211.2,46.5C211.1,46.5,211.1,46.5,211.2,46.5C211.1,46.5,211.1,46.5,211.2,46.5L211.2,46.5
		L211.2,46.5z"/>
	<path fill="#901A1D" d="M222.8,46c0,0.2,0,0.5-0.1,0.8c-0.1,0.3-0.1,0.5-0.3,0.8c-0.1,0.2-0.3,0.4-0.4,0.6
		c-0.2,0.2-0.4,0.2-0.7,0.2c-0.1,0-0.2,0-0.3-0.1c0,0-0.1-0.1-0.1-0.2c0-0.1,0-0.2,0-0.3c0-0.1,0-0.3,0-0.4c0-0.1,0-0.2-0.1-0.3
		c0-0.1-0.1-0.1-0.3-0.1c-0.2,0-0.4,0.1-0.6,0.2c-0.2,0.1-0.4,0.3-0.6,0.5c-0.2,0.2-0.4,0.4-0.6,0.7c-0.2,0.3-0.4,0.5-0.5,0.8
		c-0.2,0.3-0.3,0.5-0.4,0.8c-0.1,0.2-0.1,0.5-0.1,0.6c0,0.3,0.1,0.5,0.3,0.6c0.2,0.1,0.4,0.2,0.7,0.2c0.3,0,0.7-0.1,1.1-0.2
		c0.4-0.1,0.7-0.2,1.1-0.4c0.4-0.2,0.7-0.4,1.1-0.5c0.3-0.2,0.7-0.4,0.9-0.6c0.3-0.2,0.5-0.3,0.7-0.5c0.2-0.1,0.3-0.2,0.4-0.2
		c0.1-0.1,0.2-0.1,0.3-0.1c0.1,0,0.2,0,0.2,0.1c0.1,0,0.1,0.1,0.1,0.1c0,0.1,0.1,0.1,0.1,0.2c0,0.1,0,0.1,0,0.2c0,0.1,0,0.1,0,0.2
		c0,0.1-0.1,0.2-0.2,0.3c0,0-0.2,0.2-0.4,0.3c-0.2,0.2-0.5,0.4-0.8,0.6c-0.3,0.2-0.7,0.5-1.1,0.8c-0.4,0.3-0.9,0.5-1.3,0.8
		c-0.5,0.2-1,0.4-1.5,0.6c-0.5,0.1-1,0.2-1.5,0.2c-0.4,0-0.7-0.1-1-0.2c-0.3-0.1-0.5-0.3-0.7-0.5c-0.2-0.2-0.3-0.4-0.4-0.7
		c-0.1-0.3-0.2-0.6-0.2-0.9c0-0.3,0.1-0.7,0.2-1.1c0.2-0.4,0.4-0.9,0.6-1.3c0.3-0.4,0.6-0.9,1-1.3c0.4-0.4,0.8-0.8,1.2-1.2
		c0.4-0.3,0.9-0.6,1.3-0.8c0.5-0.2,0.9-0.3,1.4-0.3c0.2,0,0.3,0,0.5,0.1c0.1,0,0.3,0.1,0.4,0.2c0.1,0.1,0.2,0.2,0.3,0.3
		C222.8,45.6,222.8,45.8,222.8,46z"/>
	<path fill="#901A1D" d="M228.6,44.9c0.6,0,1.1,0.1,1.4,0.4c0.3,0.3,0.4,0.7,0.4,1.2c0,0.3-0.1,0.6-0.2,1c-0.2,0.3-0.4,0.7-0.8,1
		c-0.4,0.3-0.9,0.7-1.6,1.1c-0.7,0.4-1.5,0.7-2.5,1.1c0,0.2,0.1,0.4,0.3,0.5c0.2,0.1,0.4,0.2,0.8,0.2c0.3,0,0.7,0,1.1-0.1
		s0.8-0.2,1.1-0.4c0.4-0.2,0.7-0.3,1.1-0.5c0.4-0.2,0.7-0.3,1-0.5c0.3-0.2,0.5-0.3,0.7-0.4c0.2-0.1,0.3-0.2,0.4-0.2
		c0.1,0,0.1-0.1,0.2-0.1c0.1,0,0.1,0,0.1,0c0.1,0,0.2,0,0.2,0.1c0.1,0,0.1,0.1,0.1,0.1c0,0.1,0.1,0.1,0.1,0.2c0,0.1,0,0.1,0,0.2
		c0,0.1,0,0.1,0,0.2c0,0.1-0.1,0.2-0.2,0.3c0,0-0.2,0.1-0.4,0.3c-0.2,0.2-0.5,0.4-0.8,0.6c-0.3,0.2-0.7,0.5-1.1,0.7
		c-0.4,0.2-0.9,0.5-1.4,0.7c-0.5,0.2-1,0.4-1.5,0.5c-0.5,0.1-1,0.2-1.6,0.2c-0.4,0-0.8-0.1-1.2-0.3c-0.3-0.2-0.6-0.4-0.9-0.7
		c-0.2-0.3-0.4-0.6-0.5-1c-0.1-0.4-0.2-0.8-0.2-1.2c0-0.3,0.1-0.7,0.2-1c0.1-0.4,0.3-0.8,0.5-1.1c0.2-0.4,0.5-0.8,0.9-1.1
		c0.3-0.4,0.7-0.7,1.1-1c0.4-0.3,0.9-0.5,1.4-0.7C227.5,45,228,44.9,228.6,44.9z M228.2,46.4C228.2,46.4,228.1,46.4,228.2,46.4
		c-0.1,0-0.2,0-0.2,0c-0.3,0-0.5,0.1-0.8,0.2c-0.2,0.1-0.5,0.3-0.7,0.4c-0.2,0.2-0.4,0.4-0.5,0.6c-0.2,0.2-0.3,0.5-0.4,0.7
		c-0.1,0.2-0.2,0.4-0.3,0.6c-0.1,0.2-0.1,0.4-0.2,0.5c0.3-0.1,0.5-0.3,0.8-0.4c0.3-0.2,0.5-0.3,0.8-0.5c0.2-0.2,0.5-0.3,0.6-0.4
		c0.2-0.1,0.3-0.2,0.4-0.3c0.3-0.2,0.6-0.4,0.7-0.6c0.1-0.2,0.2-0.3,0.2-0.5c0-0.1,0-0.2-0.1-0.3C228.4,46.5,228.3,46.5,228.2,46.4z
		"/>
</g>
</svg>
